<svg width="722" height="947" viewBox="0 0 722 947" fill="none" xmlns="http://www.w3.org/2000/svg">
<path fill-rule="evenodd" clip-rule="evenodd" d="M359.822 200.946C359.202 201.558 358.677 202.291 358.303 203.166C357.555 204.938 357.555 207.037 357.342 208.505C357.214 213.006 356.873 217.51 356.778 222.033C356.75 223.97 356.717 225.904 356.812 227.838C357.062 232.159 357.716 236.414 358.241 240.754C358.241 240.857 358.393 240.959 358.549 240.959C358.705 240.959 358.861 240.878 358.861 240.754C359.33 237.516 359.945 234.316 360.352 231.097C360.664 228.958 360.906 226.82 361.034 224.662C361.346 219.261 361.157 213.903 361.128 208.524C360.972 207.304 360.754 205.631 360.57 204.044C360.48 202.964 360.291 201.983 360.537 201.148C360.631 201.008 360.537 200.866 360.352 200.822C360.13 200.763 359.921 200.822 359.822 200.946Z" fill="white"/>
<path fill-rule="evenodd" clip-rule="evenodd" d="M268.86 192.432C268.689 195.223 268.517 197.963 268.997 200.685L271.116 212.702C272.883 222.721 276.546 232.305 279.598 242.098C282.379 250.435 285.828 258.806 290.495 266.608C293.404 271.914 296.929 276.961 302.31 281.377C309.472 288.385 320.13 296.59 332.205 301.683C340.113 305.407 349.682 307.479 358.777 306.779C362.665 306.447 365.798 305.592 368.878 304.397C372.567 302.894 376.764 300.6 380.359 298.563C390.536 292.851 399.074 285.28 406.119 276.714C412.539 268.36 417.49 259.109 421.173 250.137C423.147 242.668 425.079 235.004 426.373 227.352C427.654 219.752 428.298 212.169 428.282 204.647C428.214 204.26 428.153 203.917 427.501 203.932C426.856 203.995 426.264 204.352 426.333 204.743C425.656 212.136 424.35 219.633 422.384 227.151C420.401 234.572 417.749 241.914 414.42 249.173C411.297 257.597 406.258 266.308 400.405 274.164C393.901 282.078 386.606 289.184 377.03 294.632C373.435 296.624 369.865 298.758 366.182 300.254C363.712 301.195 361.842 301.777 359.242 301.983C350.806 302.618 342.56 300.66 335.396 297.361C324.002 292.451 314.692 284.412 307.603 277.783C302.926 273.642 299.463 268.989 295.987 264.186C291.38 256.721 287.974 248.596 285.229 240.505C282.8 234.16 280.365 227.822 278.564 221.366C277.233 217.538 275.903 213.709 275.199 209.72C273.511 203.901 271.202 198.242 270.147 192.255C270.105 192.016 269.419 191.884 269.419 191.884C268.783 191.996 268.818 192.192 268.86 192.432Z" fill="white"/>
<path fill-rule="evenodd" clip-rule="evenodd" d="M329.457 40.0218C326.508 40.3355 323.59 40.4372 320.616 40.8915C317.637 41.3389 314.959 42.1716 311.93 42.9062C306.228 44.4382 300.799 46.4835 295.227 49.3373C276.048 59.5364 263.776 73.6964 255.782 90.2842C247.988 105.777 244.509 123.451 241.679 141.559C237.911 167.036 236.476 193.643 228.349 217.155C224.993 227.933 218.8 236.398 211.682 243.909C193.799 263.236 169.332 276.696 156.035 300.782C152.163 308.388 149.251 316.677 148.129 325.094C146.983 333.652 147.971 342.405 151.21 350.727C155.151 361.233 162.313 369.915 165.927 380.188C167.405 384.14 168.118 388.32 168.01 393.043C168.002 397.168 167.222 401.592 166.454 405.945C165.352 410.173 163.907 414.256 161.832 417.805C155.206 428.689 143.855 439.652 138.788 452.008C135.082 460.694 134.52 470.05 140.318 480.267C141.717 482.61 143.153 484.748 144.96 486.801C147.332 489.756 150.107 492.523 152.899 495.19C155.685 497.82 158.497 500.376 161.326 502.832C165.741 506.505 170.199 509.973 174.676 513.294C175.002 513.533 175.366 513.488 175.78 513.235C175.829 512.954 175.897 512.567 175.565 512.363C171.766 509.307 168.339 506.165 164.923 502.923C161.508 499.711 158.105 496.434 155.078 493.043C152.304 490.307 149.888 487.597 147.521 484.576C146.054 482.65 144.957 480.65 143.897 478.469C139.338 469.413 140.017 461.419 143.494 454.033C148.874 442.023 160.164 431.339 166.408 420.599C168.915 416.625 170.812 412.036 172.011 407.287C172.847 402.547 173.695 397.737 173.766 393.224C174.004 387.763 173.057 382.889 171.345 378.207C168.089 367.931 160.969 359.039 157.405 348.448C154.713 341.135 154.244 333.519 155.192 326.086C156.51 318.609 159.254 311.27 162.959 304.649C176.473 281.392 200.735 269.057 218.834 250.559C226.84 242.124 233.607 232.491 237.902 220.434C246.14 196.326 248.397 169.175 252.263 143.1C254.576 125.873 257.874 109.26 264.496 94.2795C270.872 78.6449 280.924 64.74 298.005 54.1044C300.863 52.2884 304.023 50.7794 307.15 49.4882C311.477 47.5324 316.048 46.2725 320.67 44.6647C323.761 43.5787 326.537 42.1893 329.653 40.9626C330.018 40.9181 330.067 40.6369 330.111 40.3908C330.154 40.1447 329.827 39.9783 329.457 40.0218Z" fill="white"/>
<path fill-rule="evenodd" clip-rule="evenodd" d="M177.21 493.432C176.687 492.289 176.842 491.41 175.947 490.316C174.364 486.992 171.571 484.366 169.267 480.988C163.937 472.224 163.972 463.767 166.513 455.557C169.288 448.012 174.543 440.788 180.136 433.703C189.372 422.367 200.322 411.593 206.349 402.083C208.967 397.512 211.228 392.879 212.082 388.033C212.949 383.117 213.125 378.043 211.537 372.658C210.435 368.628 206.632 363.505 205.334 358.569C204.934 356.759 205.243 355.007 205.892 353.345C208.368 349.583 211.935 347.82 216.063 346.989C226.192 344.981 239.034 348.146 247.672 344.346C252.349 342.422 255.695 339.895 258.719 337.099C265.312 330.511 268.265 321.951 276.055 314.74C278.66 312.305 281.518 310.453 284.682 308.951C287.046 307.882 289.366 307.022 291.699 306.092C297.535 303.829 303.348 301.634 308.846 299.196C310 298.855 310.549 297.762 310.001 296.759C309.816 295.784 308.817 295.282 307.664 295.622C301.95 297.261 295.991 298.198 289.876 300.019C288.353 300.47 287.149 301.127 285.594 301.723C280.51 303.835 276.035 306.665 272.085 310.566C264.598 318.151 261.613 326.856 255.323 333.782C252.705 336.292 249.773 338.567 246.182 340.429C237.537 344.299 224.992 341.543 215.201 343.689C210.302 344.783 205.921 347.013 203.297 351.655C201.802 353.965 201.357 356.491 201.96 359.237C202.523 364.266 205.894 369.784 206.607 373.928C207.622 378.45 207.588 382.752 206.507 386.796C205.423 390.919 203.633 394.904 201.138 398.778C194.822 407.941 183.964 418.157 174.76 429.312C168.678 437.078 163.257 445.245 160.692 453.625C157.879 463.447 158.273 473.509 165.546 483.588C167.856 486.931 170.562 490.091 173.312 492.962C173.293 493.068 173.608 493.304 173.595 493.375C174.588 493.912 175.322 493.86 176.371 494.081C176.685 494.318 177.055 494.311 177.092 494.1L177.21 493.432Z" fill="white"/>
<path fill-rule="evenodd" clip-rule="evenodd" d="M284.88 259.814C284.148 259.575 283.691 259.493 282.845 259.73C281.737 259.976 280.785 261.061 279.713 262.063C276.812 264.906 274.081 269.314 272.485 271.321C271.366 272.856 270.015 274.262 268.562 275.618C264.961 279.069 260.725 282.117 257.243 285.225C252.323 289.815 243.823 293.106 235.283 297.269C226.882 301.38 218.388 306.118 212.184 311.874C205.658 317.968 201.567 325.228 202.46 334.283C203.122 342.021 208.299 346.808 211.044 353.072C212.017 355.312 212.604 357.78 212.39 360.717C211.559 368.121 202.565 371.215 197.608 376.971C195.263 379.688 193.692 382.888 193.774 387.168C193.93 396.412 199.323 401.08 206.148 404.355C212.088 407.188 219.207 408.864 224.133 412.633C227.899 415.485 230.366 419.546 230.016 426.641C229.93 427.221 230.361 427.79 230.983 427.854C231.557 427.892 232.114 427.465 232.186 426.847C233.461 418.461 230.849 413.259 226.617 409.61C221.635 405.341 214.261 403.341 207.991 400.41C202.445 397.81 197.705 394.518 197.255 387.006C197.036 383.712 198.188 381.102 199.971 378.935C205.06 372.62 214.283 368.886 215.024 361.007C215.469 357.552 214.885 354.656 213.934 351.899C211.798 346.003 207.313 341.247 207.347 334.106C207.487 327.013 211.601 321.957 217.127 317.608C223.301 312.804 231.491 309.161 239.273 305.366C248.627 300.73 257.333 295.861 262.48 290.51C265.618 287.063 269.618 283.626 272.954 279.894C274.496 278.117 275.957 276.325 277.113 274.401L285.149 260.864C285.464 260.789 285.601 260.477 285.523 260.169C285.469 259.891 285.142 259.715 284.88 259.814Z" fill="white"/>
<path fill-rule="evenodd" clip-rule="evenodd" d="M327.023 108.569C326.702 108.784 322.436 110.713 321.014 110.908C319.806 111.1 318.376 111.549 316.958 111.951C313.809 112.862 310.705 114.083 309.887 114.541C302.267 118.989 294.017 124.251 287.183 130.785C282.349 135.321 278.285 140.519 275.442 146.323C272.225 153.255 268.613 163.062 266.362 172.608C264.79 179.419 263.908 186.106 264.261 191.524C264.902 200.866 268.648 210.788 269.009 220.447C269.231 226.023 268.203 231.525 264.252 236.677C260.021 242.233 253.724 244.386 247.1 245.963C239.72 247.729 231.951 248.758 225.415 251.668C221.614 253.348 218.245 255.648 215.524 258.978C212.934 262.148 211.977 265.914 211.825 269.928C211.659 274.863 212.779 280.097 211.596 284.368C210.881 287.002 209.181 289.197 205.606 290.709L197.375 292.79C196.735 292.976 196.335 293.624 196.492 294.312C196.631 294.951 197.259 295.348 197.937 295.176L206.59 293.624C211.629 292.019 214.012 289.067 215.294 285.545C216.684 281.725 216.525 277.097 216.689 272.499C216.796 268.843 217.081 265.252 219.531 262.449C224.04 257.251 230.635 255.5 237.516 254.103C245.003 252.627 252.856 251.584 259.475 248.448C263.194 246.657 266.533 244.222 269.295 240.782C273.156 235.891 274.984 230.768 275.615 225.54C276.982 214.159 272.135 202.111 271.571 190.952C271.282 186.146 272.229 180.282 273.676 174.301C275.84 165.311 279.273 156.114 282.341 149.591C284.609 144.496 287.994 139.895 291.928 135.707C298.101 129.182 305.526 123.613 312.466 118.925C313.521 118.134 323.525 114.121 326.444 111.951C327.952 110.818 330.676 109.379 331.486 108.569C333.717 106.338 331.486 106.338 331.486 106.338C331.256 106.167 327.193 108.337 327.023 108.569Z" fill="white"/>
<path fill-rule="evenodd" clip-rule="evenodd" d="M442.888 205.992C442.918 209.284 444.175 212.26 446.203 215.011C448.946 218.781 453.122 221.752 456.231 224.608C468.503 235.085 484.298 237.465 497.509 244.906C502.485 247.729 507.094 251.26 510.855 256.623C512.079 258.386 513.082 260.061 513.912 261.832C514.723 263.637 515.34 265.485 515.936 267.62C517.615 273.958 517.293 278.976 515.786 283.374C511.315 296.088 497.994 303.798 492.515 318.286C489.972 325.136 491.329 330.77 494.619 335.851C500.737 345.285 514.84 352.23 516.148 363.45C516.753 368.547 515.234 372.78 512.626 376.537C510.115 380.19 506.633 383.388 503.117 386.743C497.671 391.867 492.085 397.129 488.683 403.301C488.413 403.701 488.558 404.252 488.95 404.526C489.357 404.755 489.907 404.653 490.135 404.246C494.053 398.611 500.126 394.287 505.682 389.673C509.715 386.366 513.369 382.872 516.162 379.027C519.522 374.466 521.442 369.295 520.893 362.988C519.798 351.038 505.651 342.943 499.446 332.805C497.245 329.215 496.321 325.24 498.248 320.511C504.092 306.009 517.702 298.513 522.463 285.766C524.535 280.253 525.135 273.864 523.108 265.762C522.476 263.179 521.688 260.932 520.747 258.736C519.792 256.544 518.612 254.463 517.098 252.257C512.589 245.861 507.161 241.461 501.152 238.293C487.982 231.306 472.069 230.24 459.499 220.605C456.219 218.239 452.172 215.664 448.856 212.645C446.69 210.638 444.784 208.598 443.969 205.82C443.942 205.532 443.653 205.318 443.37 205.346C443.074 205.415 442.861 205.667 442.888 205.992Z" fill="white"/>
<path fill-rule="evenodd" clip-rule="evenodd" d="M444.436 413.924C442.873 414.294 441.419 414.932 440.088 416.039C437.565 418.149 435.818 421.653 434.471 425.385C431.721 433.134 431.378 442.65 431.957 447.899C432.072 448.856 432.919 449.567 433.87 449.451C434.814 449.375 435.538 448.488 435.428 447.538C435.027 443.371 435.635 436.465 437.184 430.008C438.168 425.795 439.743 421.898 441.703 418.837C442.703 417.309 443.566 415.879 444.91 414.901C445.18 414.743 445.316 414.447 445.159 414.178C445.049 413.911 444.705 413.771 444.436 413.924Z" fill="white"/>
<path fill-rule="evenodd" clip-rule="evenodd" d="M339.076 95.4285L339.749 95.6921C340.087 95.8606 339.994 96.3879 340.284 96.7653C342.743 101.325 345.361 104.94 348.482 107.768C356.656 114.822 367.062 117.376 377.892 119.618C389.778 122.034 402.071 124.201 411.56 129.898C418.134 133.661 423.725 138.924 427.779 146.732C430.736 152.575 431.559 158.188 431.662 163.74C432.023 176.044 426.685 187.85 428.38 200.817C428.883 204.132 429.813 207.045 431.508 209.802C438.322 222.483 453.091 231.098 455.869 246.141C456.539 250.567 456.487 254.974 455.731 259.257C453.05 274.462 441.845 288.707 443.025 304.629C444.341 321.801 454.448 334.27 458.3 349.394C460.018 356.101 460.556 363.295 458.762 371.412C457.444 376.865 455.128 381.742 452.509 386.349C447.001 394.972 439.545 402.381 432.421 409.927C426.056 417.275 420.037 424.72 418.372 434.165C417.195 440.838 418.278 446.998 420.487 452.97C425.77 468.165 437.088 482.032 438.212 498.234C439.076 507.69 437.75 515.207 435.464 522.006C433.604 526.42 431.418 530.596 428.88 534.746C425.398 540.107 421.199 545.45 416.84 551.671C416.345 552.454 415.217 552.684 414.576 552.208C413.59 551.636 413.417 550.56 413.917 549.778C417.956 543.319 421.488 537.641 424.631 532.118C426.774 528.188 428.899 524.358 430.358 520.199C432.532 514.033 433.376 507.192 432.697 498.711C431.48 483.001 419.706 469.736 414.336 454.997C411.941 448.092 410.675 440.879 412.056 433.051C413.028 427.537 414.993 422.525 417.988 417.876C428.053 401.841 447.541 389.89 452.15 369.92C453.733 362.961 453.01 356.786 451.853 351.079C448.063 335.603 437.665 322.69 436.425 305.09C435.337 288.647 446.635 273.874 449.403 258.178C450.028 254.633 449.95 251 449.503 247.369C446.6 232.992 432.411 225.168 425.497 213.056C423.575 209.6 422.066 205.86 421.711 201.671C420.053 188.493 425.083 176.415 424.752 163.899C424.471 159.325 423.833 154.759 421.417 149.99C414.351 136.685 402.059 132.458 389.169 129.569C374.193 126.239 358.538 124.675 346.977 116.299C341.871 112.433 337.384 107.08 334.336 99.7339C334.429 99.2066 333.448 98.5988 333.905 98.0631L334.029 97.36C334.374 97.463 335.121 97.2988 336.33 96.648C336.015 96.3751 336.065 96.0938 336.441 96.0152C336.818 95.9365 336.805 96.0069 337.114 96.2787C343.173 94.7735 334.05 93.1287 339.076 95.4285Z" fill="white"/>
<path fill-rule="evenodd" clip-rule="evenodd" d="M391.131 556.712C393.925 557.277 396.744 557.738 400.045 557.486C411.105 556.361 421.449 549.026 430.54 540.601C436.707 534.372 442.344 527.041 445.878 519.333C448.681 513.713 450.431 507.866 451.409 502.317C452.674 493.091 449.028 483 450.28 473.808C450.511 470.478 451.796 467.303 454.123 464.348C458.216 459.639 460.981 458.278 464.065 459.293C468.856 460.863 472.992 466.153 477.394 469.938C483.405 474.87 489.77 477.763 497.582 472.483C503.742 468.349 506.78 463.454 507.708 458.192C508.773 452.151 507.396 445.571 506.37 439.059C505.547 433.482 504.718 427.905 507.034 422.991C508.184 420.547 509.967 418.657 512.078 416.927C517.972 412.281 526.142 409.052 530.704 403.736C533.796 400.554 535.476 397.159 536.46 393.671C538.814 386.486 537.992 378.814 541.816 371.483C547.646 361.033 556.817 354.216 562.497 344.579C564.733 340.085 566.686 335.18 567.023 329.155C567.467 320.474 565.516 313.067 561.672 306.125C554.409 291.879 540.154 280.352 536.506 264.037C535.19 257.178 537.545 249.957 538.037 243.054C537.984 239.244 537.549 235.543 536.366 232.005C532.049 221.578 523.158 214.507 517.149 205.448C515.184 202.238 513.28 198.682 512.56 194.538C511.785 190.71 511.382 186.833 510.989 182.927C510.514 173.25 511.143 163.55 509.595 153.864C508.059 144.108 504.926 135.152 500.606 126.791C496.257 118.599 490.734 110.931 484.428 103.591C480.237 98.5804 475.441 94.9798 470.513 92.1233C459.327 85.7709 446.751 83.1909 437.171 73.8595C431.912 68.7697 427.963 62.4245 423.161 56.7991C420.745 54.0895 418.297 51.5615 415.776 49.3771C402.495 38.529 387.454 31.4244 372.219 29.4992C364.78 28.5862 357.501 28.783 350.331 30.4549C343.533 32.0412 336.252 34.3459 330.007 38.9599C328.748 39.934 327.815 41.147 326.52 42.29C325.292 43.0884 325.006 44.7056 325.887 45.8759C326.769 47.0765 328.162 47.3644 329.391 46.5661C330.94 45.9693 332.1 45.5576 333.655 44.9618C339.942 42.1617 345.823 39.5798 351.832 38.3558C358.211 37.0941 364.768 36.873 371.146 37.6713C384.945 39.452 398.641 45.9933 410.318 55.767C412.859 57.7315 414.658 59.8611 416.785 62.1573C421.543 68.0287 425.82 74.5765 431.393 79.9392C441.251 89.7124 454.474 92.769 466.32 99.5277C470.242 101.887 474.428 104.866 478.022 109.088C483.693 115.949 488.95 123.104 493.028 130.813C496.769 138.275 499.693 146.361 501.045 155.142C502.642 164.552 502.051 174.035 502.562 183.471C502.893 187.759 503.223 192.058 504.275 196.333C505.16 201.594 507.612 206.153 510.158 210.221C515.882 218.8 524.15 225.29 528.209 235.165C529.219 237.626 529.489 240.169 529.407 242.728C529.143 250.354 526.677 258.208 528.239 265.763C532.107 282.848 546.614 295.036 554.483 309.926C557.477 315.522 559.663 321.593 559.153 328.596C558.686 333.334 557.271 337.247 555.555 340.817C550.219 350.521 541.029 357.479 535.55 368.028C531.283 375.818 532.024 383.917 529.934 391.657C529.124 394.226 527.944 396.809 525.71 399.2C521.191 404.27 513.423 407.28 507.936 411.744C504.973 414.157 502.664 416.97 500.985 420.329C498.457 426.439 499.069 433.246 500.398 440.102C501.19 445.854 502.685 451.73 501.744 457.068C501.057 460.964 498.988 464.508 494.465 467.583C489.151 471.032 485.198 468.813 481.42 465.573C476.043 461.187 471.272 455.386 466.16 453.578C461.379 451.908 455.796 452.802 449.401 460.326C445.827 464.184 444.337 468.489 443.909 473.005C442.669 482.096 445.611 492.1 444.353 501.254C443.493 506.135 441.873 511.208 439.193 516.13C435.796 523.095 431.325 529.985 425.584 535.854C417.998 543.959 408.34 549.5 399.023 552.998C396.327 553.937 393.951 555.107 390.947 555.701C390.941 555.736 390.546 555.92 390.502 556.166C390.453 556.447 390.773 556.685 391.131 556.712Z" fill="white"/>
<path fill-rule="evenodd" clip-rule="evenodd" d="M325.513 298.966C325.513 298.579 326.595 299.437 328.32 300.154C328.814 300.366 328.789 300.663 329.039 301.226C329.529 302.452 330.269 303.705 330.759 305.138C332.729 310.036 333.714 316.129 334.208 322.222C334.944 331.51 333.963 340.825 330.51 347.072C328.789 350.235 326.08 352.921 323.125 355.102C321.155 356.535 318.936 357.819 316.966 358.833C314.751 359.852 312.532 360.569 310.562 361.259C309.332 361.763 308.347 361.163 307.852 359.91C307.362 358.658 307.852 357.251 309.083 356.774C310.807 355.67 312.781 354.359 314.751 353.043C316.471 351.848 318.196 350.654 319.925 349.216C322.14 347.427 324.114 345.368 325.344 342.889C327.314 338.856 328.05 333.15 328.05 327.206C328.05 320.073 326.819 312.637 325.344 306.602C325.095 304.989 324.114 303.498 324.355 302.065C325.591 300.379 323.865 302.632 325.585 300.568C325.585 300.361 325.585 300.095 325.835 300C326.08 299.883 326.325 299.942 326.325 300.154C327.314 299.793 325.759 299.179 325.513 298.966Z" fill="white"/>
<path fill-rule="evenodd" clip-rule="evenodd" d="M140.338 627.484C140.258 627.527 140.143 627.579 139.987 627.634C139.29 627.934 138.338 628.859 136.319 629.197C131.491 629.984 123.417 628.361 120.399 628.267C119.117 628.218 118.097 627.142 118.151 625.853C118.149 624.534 119.219 623.514 120.549 623.559C123.564 623.618 131.838 622.894 136.566 624.242C138.541 624.834 139.394 625.84 140.069 626.182C140.188 626.255 140.278 626.324 140.368 626.394L140.522 626.381C140.679 626.331 140.916 626.794 140.599 627.258C140.532 627.383 140.421 627.477 140.338 627.484Z" fill="white"/>
<path fill-rule="evenodd" clip-rule="evenodd" d="M269.098 372.85C268.903 371.357 269.656 371.931 268.825 370.761C268.442 370.403 267.767 370.425 267.41 370.268C260.344 367.848 253.264 365.365 245.98 363.85C237.307 362.079 228.803 361.605 220.24 363.257C210.718 365.28 201.88 370.01 194.234 376.109C183.223 384.837 173.612 396.562 165.523 407.032C157.183 418.153 149.973 430.165 144.176 442.604C135.44 461.037 128.526 480.504 121.262 499.819C114.299 518.962 105.599 537.619 98.2814 556.569C96.2074 561.363 94.4685 566.151 92.7439 571.002C87.2952 586.162 80.5107 601.43 75.8111 617.134C72.7963 627.727 70.4964 638.558 69.2349 649.529C69.3474 650.39 69.7949 651.244 70.8265 651.379C71.8485 651.486 72.4458 650.868 72.6629 649.957C73.9905 642.02 76.3485 634.254 78.7261 626.545C79.9463 622.978 81.1703 619.44 82.4003 615.901C87.6082 601.517 93.5128 587.276 98.769 573.215L127.992 502.282C134.961 483.24 141.9 464.004 150.676 445.841C156.541 433.867 163.475 422.36 171.537 411.689C179.346 401.687 188.351 390.515 199.08 382.16C205.805 376.824 213.364 372.633 221.904 370.81C227.801 369.464 233.887 369.479 240.041 370.062C248.583 370.872 257.282 372.838 265.32 374.933C266.016 375.076 266.411 375.528 267.064 375.377C268.369 375.039 267.669 374.824 268.893 373.854C268.911 373.99 269.223 373.811 269.525 373.502C269.49 373.236 269.447 372.906 269.098 372.85Z" fill="white"/>
<path fill-rule="evenodd" clip-rule="evenodd" d="M72.1728 657.981C72.4863 659.506 72.667 660.295 73.5592 661.47C74.0053 662.058 74.4082 662.588 75.098 662.946C80.5811 667.404 86.8002 671.168 93.4577 674.398C105.36 680.661 118.478 685.208 130.494 689.406C158.949 699.2 187.365 704.534 215.902 707.244C233.125 708.884 250.508 709.642 268.024 709.455C276.251 709.222 284.178 709.136 292.425 708.38C295.961 708.048 299.391 707.588 302.866 707.177C304.13 707.188 305.296 705.959 305.144 704.648C305.276 703.158 304.079 702.132 302.526 702.31C299.464 702.155 296.365 701.938 293.325 701.811C286.056 701.652 278.67 701.881 271.484 701.831C247.074 701.784 223.272 700.894 199.453 697.748C177.346 694.653 155.209 689.855 132.787 682.458C123.046 679.044 112.598 675.248 102.257 671.043C93.0949 667.279 85.322 660.907 76.5188 657.625C75.2398 657.042 74.2554 657.408 72.8286 657.192C72.4014 657.18 72.3006 657.047 72.0748 657.301C71.849 657.554 72.0109 657.768 72.1728 657.981Z" fill="white"/>
<path fill-rule="evenodd" clip-rule="evenodd" d="M253.582 769.319C253.477 768.116 254.161 768.36 253.731 767.192C253.261 765.65 251.508 764.86 250.396 763.685C243.756 756.938 238.417 749.641 233.384 742.084C228.007 734.421 222.622 726.662 216.925 719.092C213.53 714.886 210.151 710.815 206.77 706.775C198.892 697.413 190.379 688.381 182.825 678.829C173.429 667.552 164.977 655.451 156.231 643.817C153.237 640.317 150.572 636.751 147.601 633.512C146.133 632.099 144.686 630.912 143.559 629.565C142.848 629.09 142.167 629.018 141.864 629.379C141.221 629.805 141.282 630.505 141.666 631.009C142.505 632.882 143.679 634.762 144.515 636.606C149.164 643.731 154.129 650.517 158.769 657.475C164.577 666.242 171.031 674.749 177.479 683.054L211.266 723.552C215.801 729.307 219.68 735.286 223.886 741.1C228.115 747.114 232.655 753 237.513 758.493C241.573 762.707 245.627 766.79 250.307 770.31C250.319 770.447 250.668 770.613 250.671 770.649C252.033 770.864 251.655 770.431 252.974 770.077C252.991 770.278 253.323 770.249 253.643 770.018C253.958 769.788 253.932 769.491 253.582 769.319" fill="white"/>
<path fill-rule="evenodd" clip-rule="evenodd" d="M148.969 641.921C150.295 641.203 150.4 641.796 151.367 640.657C152.053 639.626 151.798 638.179 152.16 636.917C154.23 628.874 157.527 621.191 161.138 613.619C164.717 605.892 168.311 598.254 171.631 590.641C177.413 577.266 183.51 564.009 189.646 550.969C193.712 542.695 197.808 534.617 201.897 526.443C203.61 522.967 205.311 519.424 207.023 515.943C208.51 512.829 210.289 509.728 211.771 506.581C214.131 501.822 216.193 497.017 218.548 492.259C218.779 491.895 218.4 491.415 218.068 491.145C217.727 490.883 217.441 490.933 217.221 491.295C213.683 495.973 210.409 500.502 207.191 505.349C202.364 512.617 198.169 520.165 193.997 527.836C183.412 546.977 174.429 566.969 165.473 587.084C160.323 599.115 153.993 611.054 150.141 623.824C148.43 628.952 145.289 634.241 146.507 639.533C147.054 640.963 147.278 640.566 148.348 641.708C148.106 641.975 148.436 642.211 148.728 642.223C148.745 642.318 149.008 642.139 148.969 641.921Z" fill="white"/>
<path fill-rule="evenodd" clip-rule="evenodd" d="M395.57 286.06C393.226 286.089 394.564 284.923 392.553 286.125C391.887 286.595 391.887 287.731 391.548 288.57C386.527 299.648 383.849 311.268 383.522 322.983C383.522 328.206 383.849 333.496 384.527 338.719C385.86 346.317 388.204 353.784 391.221 361.179C391.887 362.69 393.226 363.529 394.904 362.988C396.236 362.488 397.242 360.882 396.575 359.376C394.904 353.314 394.225 347.257 393.226 341.23C392.553 335.167 392.226 329.146 392.226 323.12C392.226 312.303 393.898 301.594 397.575 290.944C397.575 290.141 398.247 289.373 398.247 288.505C397.914 286.292 397.914 288.166 396.236 286.458C396.575 286.226 396.236 285.923 396.236 285.822C395.903 285.72 395.57 285.822 395.57 286.06Z" fill="white"/>
<path fill-rule="evenodd" clip-rule="evenodd" d="M571.51 604.007C571.599 604.045 571.725 604.09 571.896 604.134C572.661 604.387 573.755 605.278 575.924 605.449C581.109 605.835 589.506 603.369 592.693 602.989C594.046 602.819 595.027 601.586 594.849 600.226C594.729 598.829 593.503 597.849 592.099 598.019C588.912 598.361 580.085 598.361 575.203 600.226C573.167 601.036 572.358 602.18 571.675 602.604C571.555 602.692 571.466 602.774 571.378 602.857H571.213C571.042 602.819 570.834 603.331 571.213 603.792C571.295 603.919 571.422 604.007 571.51 604.007Z" fill="white"/>
<path fill-rule="evenodd" clip-rule="evenodd" d="M431.473 360.28C431.66 358.692 430.868 359.311 431.735 358.057C432.137 357.672 432.854 357.686 433.231 357.514C440.708 354.847 448.961 353.735 456.681 352.027C466.467 350.157 474.228 350.504 483.35 352.143C493.497 354.165 502.868 356.353 511.076 362.731C522.895 371.857 537.495 384.956 546.233 395.974C555.247 407.68 559.348 416.447 565.678 429.588C575.21 449.059 582.318 472.784 590.299 493.212C597.957 513.462 607.455 533.171 615.488 553.21C617.757 558.277 619.67 563.341 621.568 568.473C627.564 584.51 634.98 600.644 640.187 617.269C643.535 628.487 646.125 639.965 647.614 651.607C647.506 652.524 647.042 653.437 645.948 653.595C644.863 653.722 644.22 653.073 643.977 652.109C642.459 643.691 639.848 635.47 637.217 627.31C635.872 623.536 634.523 619.793 633.168 616.049C627.439 600.833 620.971 585.778 615.195 570.907L583.18 495.921C575.516 475.779 566.122 450.065 556.549 430.882C550.659 416.38 546.659 410.571 537.946 399.34C529.513 388.816 528.428 387.984 516.913 379.251C509.693 373.671 505.037 368.935 495.45 364.834C489.166 363.483 477.333 360.498 469.884 359.621C459.953 358.453 444.03 360.109 435.516 362.443C434.778 362.605 434.364 363.091 433.669 362.939C432.277 362.597 433.018 362.359 431.704 361.345C431.687 361.49 431.353 361.304 431.028 360.979C431.061 360.697 431.103 360.345 431.473 360.28Z" fill="white"/>
<path fill-rule="evenodd" clip-rule="evenodd" d="M645.084 657.755C644.802 659.385 644.637 660.23 643.728 661.508C643.274 662.147 642.864 662.724 642.143 663.127C636.468 668.046 629.988 672.254 623.024 675.908C610.59 682.959 596.807 688.23 584.184 693.091C554.286 704.449 524.279 711.067 494.055 714.902C475.814 717.222 457.375 718.61 438.762 718.998C430.015 719.027 421.591 719.2 412.805 718.673C409.038 718.44 405.378 718.066 401.673 717.745C400.331 717.8 399.051 716.534 399.169 715.135C398.979 713.558 400.216 712.428 401.872 712.565C405.119 712.297 408.404 711.963 411.629 711.726C419.345 711.313 427.199 711.309 434.831 711.015C460.759 710.147 486.013 708.404 511.21 704.263C534.59 700.235 557.945 694.397 581.516 685.788C591.748 681.835 602.72 677.452 613.564 672.638C623.171 668.333 631.214 661.303 640.456 657.522C641.795 656.86 642.853 657.216 644.361 656.939C644.814 656.912 644.917 656.767 645.165 657.029C645.414 657.291 645.249 657.523 645.084 657.755Z" fill="white"/>
<path fill-rule="evenodd" clip-rule="evenodd" d="M482.58 760.892C482.58 759.608 481.878 759.931 482.226 758.653C482.58 756.978 484.363 755.979 485.432 754.632C491.837 746.873 496.814 738.653 501.442 730.186C506.425 721.574 511.408 712.86 516.738 704.318C519.944 699.55 523.144 694.928 526.35 690.337C533.824 679.695 542 669.344 549.113 658.531C558.016 645.72 565.845 632.125 574.027 618.998C576.872 615.015 579.364 610.993 582.209 607.288C583.632 605.656 585.055 604.265 586.123 602.735C586.831 602.166 587.546 602.027 587.9 602.381C588.621 602.773 588.621 603.519 588.26 604.088C587.546 606.149 586.477 608.249 585.763 610.278C581.501 618.252 576.872 625.897 572.604 633.693C567.267 643.513 561.222 653.118 555.165 662.508L523.144 708.516C518.875 715.029 515.322 721.719 511.408 728.264C507.487 735.023 503.225 741.675 498.591 747.942C494.683 752.779 490.769 757.477 486.14 761.638C486.14 761.783 485.786 761.992 485.786 762.03C484.363 762.384 484.724 761.891 483.295 761.638C483.295 761.853 482.941 761.853 482.58 761.638C482.226 761.423 482.226 761.107 482.58 760.892" fill="white"/>
<path fill-rule="evenodd" clip-rule="evenodd" d="M586.633 602.106C585.115 601.624 585.115 602.232 583.893 601.269C582.985 600.365 582.985 598.881 582.375 597.69C578.727 590.056 573.862 582.995 568.69 576.099C563.523 569.044 558.357 562.08 553.482 555.093C544.969 542.808 536.149 530.696 527.329 518.806C521.551 511.293 515.779 503.979 509.996 496.568C507.564 493.413 505.132 490.189 502.7 487.027C500.57 484.192 498.138 481.42 496.009 478.551C492.663 474.233 489.621 469.818 486.28 465.499C485.972 465.179 486.28 464.635 486.578 464.308C486.886 463.988 487.194 463.988 487.491 464.308C492.053 468.34 496.311 472.269 500.57 476.524C506.959 482.904 512.736 489.673 518.514 496.568C533.112 513.744 546.191 532.047 559.264 550.477C566.869 561.535 575.689 572.297 582.072 584.317C584.807 589.117 589.066 593.824 588.768 599.299C588.46 600.817 588.152 600.462 587.244 601.785C587.547 602.008 587.244 602.3 586.942 602.363C586.942 602.461 586.633 602.329 586.633 602.106Z" fill="white"/>
<path fill-rule="evenodd" clip-rule="evenodd" d="M361.849 464.563C362.909 463.428 363.785 462.684 364.776 461.432C366.738 458.891 368.322 455.992 370.08 453.257C376.209 443.735 382.396 434.412 388.152 424.751C392.143 418.076 395.926 411.357 399.271 404.552C405.021 392.974 410.235 380.921 412.932 369.099C413.484 366.751 414.176 364.23 414.026 362.23C413.98 361.464 413.743 361.327 413.524 360.78C413.955 358.784 413.142 357.562 411.694 357.976C410.246 358.39 408.682 360.395 408.21 362.367C407.71 363.163 407.363 363.383 406.93 364.205C405.871 366.348 405.268 368.487 404.512 370.64C400.743 381.525 396.674 391.904 391.717 402.358C388.252 409.669 384.66 416.83 380.886 424.14C375.161 435.222 369.227 446.273 363.5 457.443C362.946 458.462 362.307 459.509 361.897 460.599C361.419 461.904 361.325 462.756 360.978 464.06C360.729 464.491 360.743 464.919 360.98 465.056C361.217 465.193 361.6 464.993 361.849 464.563Z" fill="white"/>
<path fill-rule="evenodd" clip-rule="evenodd" d="M353.339 480.554C352.165 479.297 351.195 478.473 350.098 477.087C347.926 474.274 346.172 471.064 344.226 468.036C337.44 457.494 330.59 447.172 324.217 436.476C319.798 429.086 315.61 421.647 311.906 414.112C305.54 401.294 299.768 387.949 296.782 374.86C296.171 372.261 295.404 369.47 295.571 367.256C295.621 366.408 295.884 366.256 296.127 365.65C295.65 363.44 296.55 362.087 298.153 362.545C299.756 363.004 301.487 365.224 302.01 367.407C302.564 368.288 302.948 368.532 303.427 369.441C304.6 371.815 305.267 374.183 306.104 376.567C310.277 388.618 314.782 400.11 320.271 411.684C324.107 419.777 328.083 427.706 332.262 435.799C338.6 448.069 345.17 460.304 351.511 472.67C352.124 473.799 352.832 474.958 353.285 476.165C353.815 477.61 353.918 478.553 354.303 479.997C354.579 480.474 354.564 480.948 354.301 481.1C354.039 481.251 353.614 481.03 353.339 480.554Z" fill="white"/>
<path fill-rule="evenodd" clip-rule="evenodd" d="M493.215 512.704C493.476 511.882 493.791 511.282 493.937 510.434C494.195 508.729 493.97 507.003 493.967 505.286C493.964 499.307 494.108 493.39 493.737 487.477C493.493 483.387 493.06 479.349 492.236 475.421C490.881 468.718 488.857 461.999 484.955 456.214C484.192 455.06 483.454 453.788 482.312 453.011C481.884 452.71 481.626 452.733 481.172 452.58C480.494 451.611 479.224 451.378 478.287 452.032C477.349 452.686 477.134 454.037 477.767 455.009C477.777 455.505 477.614 455.712 477.69 456.196C477.946 457.435 478.56 458.52 479.062 459.661C481.634 465.416 483.71 471.063 485.12 477.036C486.107 481.213 486.918 485.37 487.659 489.65C488.781 496.139 489.721 502.685 490.886 509.212C490.967 509.818 490.995 510.463 491.227 511.05C491.515 511.749 491.876 512.132 492.267 512.787C492.289 513.048 492.519 513.221 492.777 513.198C493.035 513.176 493.237 512.965 493.215 512.704Z" fill="white"/>
<path fill-rule="evenodd" clip-rule="evenodd" d="M490.015 486.881C487.841 487.982 489.475 485.247 488.114 487.84V488.196C487.841 491.778 487.841 495.289 487.841 498.842C487.841 500.399 487.569 501.963 487.569 503.526C487.841 517.607 488.114 531.273 486.752 545.04C485.94 552.88 484.851 560.797 482.678 568.814C480.772 577.548 477.782 585.885 474.791 594.329C472.886 600.114 470.984 605.899 469.351 611.72C467.445 618.067 465.539 624.421 463.91 630.916C463.643 631.947 464.187 633.113 464.999 633.504C465.816 633.895 466.633 633.362 466.901 632.332C470.984 620.163 476.693 608.877 481.316 596.952C484.579 588.792 487.297 580.349 489.475 571.727C493.282 557.208 494.643 543.157 494.911 529.035C495.188 520.165 495.188 511.259 494.371 502.211C494.094 498.416 493.826 494.685 493.282 490.854C493.282 489.753 493.554 488.367 493.01 487.521C491.376 485.176 493.282 487.627 490.836 486.846C490.836 486.561 490.559 486.348 490.559 486.384C490.292 486.384 490.015 486.597 490.015 486.881Z" fill="white"/>
<path fill-rule="evenodd" clip-rule="evenodd" d="M207.379 521.715C207.133 520.917 206.85 520.346 206.701 519.513C206.433 517.835 206.569 516.093 206.519 514.38C206.34 508.414 206.039 502.524 206.171 496.593C206.252 492.491 206.493 488.424 207.067 484.434C208.003 477.629 209.501 470.748 212.609 464.636C213.215 463.418 213.798 462.084 214.735 461.21C215.085 460.872 215.303 460.872 215.681 460.68C216.222 459.655 217.283 459.311 218.092 459.882C218.9 460.453 219.123 461.781 218.619 462.807C218.626 463.302 218.77 463.494 218.72 463.984C218.543 465.242 218.059 466.378 217.672 467.561C215.683 473.527 214.108 479.341 213.103 485.424C212.4 489.677 211.845 493.895 211.351 498.23C210.605 504.802 210.013 511.415 209.232 518.027C209.182 518.639 209.178 519.286 209 519.892C208.78 520.614 208.487 521.028 208.179 521.715C208.167 521.978 207.979 522.17 207.761 522.17C207.544 522.17 207.367 521.978 207.379 521.715Z" fill="white"/>
<path fill-rule="evenodd" clip-rule="evenodd" d="M207.039 495.387C209.815 496.488 207.728 493.753 209.467 496.346V496.702C209.815 500.284 209.815 503.795 209.815 507.348C209.815 508.905 210.163 510.469 210.163 512.032C209.815 526.113 209.467 539.779 211.206 553.546C212.244 561.386 213.635 569.303 216.411 577.32C218.846 586.054 222.666 594.391 226.486 602.835C228.92 608.62 231.349 614.405 233.436 620.226C235.87 626.573 238.305 632.927 240.385 639.422C240.727 640.453 240.032 641.619 238.994 642.01C237.951 642.401 236.908 641.868 236.566 640.838C231.349 628.669 224.057 617.383 218.15 605.458C213.983 597.298 210.511 588.855 207.728 580.233C202.865 565.714 201.126 551.663 200.784 537.541C200.431 528.671 200.431 519.765 201.474 510.717C201.828 506.922 202.17 503.191 202.865 499.36C202.865 498.259 202.517 496.873 203.213 496.027C205.3 493.682 202.865 496.133 205.99 495.352C205.99 495.067 206.343 494.854 206.343 494.89C206.685 494.89 207.039 495.103 207.039 495.387Z" fill="white"/>
<path fill-rule="evenodd" clip-rule="evenodd" d="M374.652 262.341C374.596 262.503 374.556 262.672 374.532 262.85C374.482 263.204 373.881 263.439 373.572 263.641C369.869 266.321 365.302 267.727 360.63 268.113C357.659 268.321 354.61 268.101 351.624 267.534C347.188 266.516 343.009 264.679 339.452 262.433C339.177 262.275 339.015 261.986 339.169 261.691C339.306 261.388 339.689 261.222 339.977 261.388C343.521 262.856 347.651 263.509 351.846 263.812C353.497 263.995 355.184 264.007 356.857 264.008C361.903 263.841 366.748 262.788 371.027 260.248C371.381 260.069 371.675 259.66 372.104 259.716C374.007 259.853 373.103 259.523 372.806 259.735C372.635 259.828 372.612 260.201 373.44 260.871C373.567 260.752 373.695 260.826 373.798 260.886C373.83 261.096 373.874 261.121 373.747 261.24C375.369 264.298 375.225 259.783 374.652 262.341Z" fill="white"/>
<path d="M411.938 190.755C408.53 190.428 405.572 189.933 402.669 189.761C399.778 189.56 396.994 189.583 394.167 189.808C391.337 190.046 388.462 190.461 385.44 190.964C382.407 191.452 379.261 192.094 375.755 192.322L375.74 192.324C375.217 192.354 374.815 191.854 374.848 191.206C374.864 190.914 374.969 190.639 375.129 190.421C377.663 186.937 380.74 184.368 384.069 182.437C387.397 180.531 391.028 179.333 394.665 179.095C401.933 178.547 409.203 181.889 412.952 188.872C413.222 189.382 413.083 190.116 412.639 190.512C412.428 190.698 412.184 190.78 411.961 190.761L411.938 190.755" fill="white"/>
<path d="M296.964 190.181C300.377 189.914 303.344 189.47 306.25 189.349C309.143 189.199 311.927 189.27 314.749 189.546C317.575 189.833 320.442 190.298 323.455 190.854C326.479 191.395 329.613 192.092 333.115 192.381L333.13 192.384C333.652 192.422 334.063 191.929 334.041 191.282C334.031 190.989 333.93 190.712 333.774 190.492C331.301 186.964 328.27 184.341 324.975 182.352C321.681 180.388 318.071 179.126 314.439 178.825C307.181 178.15 299.854 181.365 295.984 188.281C295.705 188.786 295.831 189.522 296.268 189.926C296.475 190.115 296.718 190.202 296.941 190.187L296.964 190.181" fill="white"/>
<path d="M676.944 854.113C647.925 869.276 614.146 869.627 581.906 869.307C558.754 869.053 535.684 867.517 512.742 864.382C477.676 861.289 442.117 855.277 406.98 859.998C371.418 864.616 338.685 879.648 305.454 891.872C275.021 903.286 243.711 912.652 211.312 917.207C192.909 919.865 174.143 919.11 155.702 917.11C151.563 916.607 147.492 915.734 143.505 914.543C141.532 913.865 129.916 910.655 121.418 907.353C113.91 904.422 108.836 901.417 115.07 900.004C118.09 901.081 121.149 902.081 124.207 902.994C164.188 914.981 207.13 913.62 247.079 901.825C304.398 888.955 355.81 856.302 415.05 850.79C449.112 847.998 483.302 853.606 517.18 856.767C544.007 860.416 571.038 861.389 598.083 861.295C624.122 860.891 650.953 859.217 674.129 846.649C694.739 833.909 712.961 813.229 712.051 788.293C710.802 787.65 709.363 786.92 708.148 786.045C706.01 784.468 704.611 782.422 706.38 779.546C707.575 777.499 709.346 776.828 711.249 776.965C712.146 777.021 713.059 777.269 713.968 777.63C714.101 777.685 714.225 777.739 714.366 777.805C716.595 778.773 718.706 780.419 720.022 781.931C726.971 811.622 701.449 839.46 676.944 854.113Z" fill="white"/>
<path d="M659.123 779.875C653.923 782.436 640.142 781.82 634.368 782.415C617.937 783.434 601.494 784.296 585.037 785.015C510.636 788.265 436.014 788.709 361.248 788.961C361.324 788.954 361.42 788.957 361.516 788.949C361.212 788.96 360.893 788.972 360.59 788.972L360.704 788.976C335.156 789.897 309.61 790.85 284.065 791.705C283.974 791.713 283.878 791.71 283.785 791.707L283.935 791.712C283.352 791.735 282.768 791.748 282.185 791.761C281.509 791.771 280.847 791.802 280.171 791.823C202.024 795.76 123.511 794.587 44.9337 794.198C34.9822 794.856 24.3652 794.132 14.6855 795.673C13.4954 795.852 12.3229 796.066 11.1659 796.324C14.2361 804.235 12.3203 812.282 13.7334 820.246C23.8109 820.278 9.86815 828.645 7.73611 820.236C7.67746 818.687 7.21638 816.824 6.55498 814.778L6.55533 814.768C3.78501 806.302 -2.37822 794.901 3.2641 791.085C3.70433 790.88 4.12529 790.673 4.58285 790.49C5.4993 790.079 6.45308 789.715 7.42333 789.374C9.3459 788.666 11.3601 788.073 13.4467 787.561C32.3163 782.903 57.2884 784.979 76.8379 783.451C102.146 783.993 127.429 784.135 152.686 783.978C165.154 783.905 177.588 783.764 190.041 783.557C223.583 783.016 257.084 782.052 290.572 780.933C293.772 780.824 296.954 780.714 300.153 780.626C301.131 780.595 302.111 780.562 303.089 780.531C317.208 780.084 331.339 779.737 345.474 779.346C397.113 778.01 448.958 779.313 500.707 779.152C505.163 779.13 509.639 779.11 514.096 779.066C513.816 779.078 513.551 779.093 513.286 779.105C513.852 779.08 514.435 779.068 515 779.054C527.233 778.686 539.444 777.929 551.715 777.573C551.602 777.569 551.49 777.577 551.376 777.573C568.597 777.08 585.599 775.362 602.833 774.946C620.704 775.272 639.196 772.271 656.738 773.348C657.433 773.394 658.128 773.44 658.82 773.487C662.152 776.664 661.632 778.637 659.123 779.875Z" fill="white"/>
<path d="M159.177 771H562.825C576.381 771 587.802 761.411 589.395 748.683L621.81 508.273C623.698 493.226 611.266 480 595.233 480H126.763C110.736 480 98.3025 493.226 100.19 508.273L132.6 748.683C134.197 761.411 145.613 771 159.177 771Z" fill="white"/>
</svg>
