<svg width="162" height="225" viewBox="0 0 162 225" fill="none" xmlns="http://www.w3.org/2000/svg">
<path fill-rule="evenodd" clip-rule="evenodd" d="M86.6887 45.0332C86.5497 45.1703 86.432 45.3344 86.3482 45.5306C86.1806 45.9278 86.1806 46.3981 86.1329 46.7272C86.1042 47.7359 86.0278 48.7453 86.0066 49.7588C86.0003 50.1929 85.9928 50.6263 86.0141 51.0597C86.0703 52.0281 86.2167 52.9818 86.3344 53.9543C86.3344 53.9773 86.3683 54.0002 86.4033 54.0002C86.4384 54.0002 86.4734 53.9822 86.4734 53.9543C86.5784 53.2288 86.7163 52.5115 86.8075 51.7901C86.8775 51.3108 86.9316 50.8315 86.9602 50.348C87.0303 49.1376 86.9878 47.9369 86.9815 46.7313C86.9465 46.4579 86.8977 46.083 86.8563 45.7275C86.8361 45.4854 86.7937 45.2656 86.8489 45.0784C86.8701 45.0471 86.8489 45.0151 86.8075 45.0054C86.7576 44.9922 86.711 45.0054 86.6887 45.0332Z" fill="white"/>
<path fill-rule="evenodd" clip-rule="evenodd" d="M66.3036 43.125C66.2654 43.7505 66.2269 44.3647 66.3344 44.9745L66.8093 47.6676C67.2052 49.913 68.0261 52.0609 68.7101 54.2555C69.3333 56.1239 70.1062 57.9997 71.1521 59.7483C71.804 60.9375 72.5941 62.0683 73.7999 63.058C75.4051 64.6286 77.7935 66.4674 80.4995 67.6088C82.2719 68.4432 84.4164 68.9077 86.4545 68.7508C87.3258 68.6764 88.0279 68.4847 88.7183 68.2171C89.545 67.8802 90.4856 67.3659 91.2911 66.9095C93.5718 65.6295 95.4853 63.9327 97.0642 62.0131C98.5029 60.1409 99.6124 58.0676 100.438 56.0571C100.88 54.3832 101.313 52.6656 101.603 50.9507C101.89 49.2476 102.034 47.5483 102.031 45.8624C102.016 45.7758 102.002 45.699 101.856 45.7022C101.711 45.7163 101.579 45.7963 101.594 45.8841C101.442 47.5407 101.15 49.221 100.709 50.9058C100.265 52.5688 99.6705 54.2141 98.9245 55.841C98.2244 57.7288 97.0952 59.6811 95.7836 61.4416C94.3259 63.2153 92.691 64.8077 90.5451 66.0287C89.7394 66.4751 88.9393 66.9532 88.114 67.2886C87.5605 67.4994 87.1413 67.6299 86.5587 67.676C84.6681 67.8182 82.8203 67.3794 81.2148 66.6401C78.6612 65.5397 76.5747 63.7383 74.9862 62.2527C73.9381 61.3245 73.1619 60.2818 72.383 59.2055C71.3505 57.5326 70.5872 55.7116 69.9721 53.8984C69.4277 52.4765 68.8819 51.0561 68.4783 49.6093C68.1801 48.7514 67.882 47.8934 67.7244 46.9994C67.3459 45.6953 66.8286 44.4271 66.592 43.0854C66.5826 43.0318 66.4289 43.0023 66.4289 43.0023C66.2864 43.0274 66.2942 43.0713 66.3036 43.125Z" fill="white"/>
<path fill-rule="evenodd" clip-rule="evenodd" d="M79.8837 8.96918C79.2228 9.03948 78.5689 9.06228 77.9025 9.16409C77.2349 9.26437 76.6347 9.45098 75.9558 9.61559C74.6781 9.95893 73.4614 10.4173 72.2127 11.0568C67.9145 13.3425 65.1643 16.5158 63.3729 20.2332C61.6261 23.7053 60.8465 27.6661 60.2122 31.7243C59.3679 37.4337 59.0463 43.3965 57.225 48.6656C56.4728 51.081 55.0849 52.9782 53.4897 54.6614C49.4821 58.9926 43.999 62.009 41.019 67.4069C40.1512 69.1114 39.4987 70.969 39.2473 72.8553C38.9904 74.7732 39.2118 76.7347 39.9376 78.5998C40.8209 80.9543 42.4261 82.8999 43.2359 85.2022C43.5672 86.0878 43.7269 87.0245 43.7028 88.083C43.7009 89.0074 43.5261 89.9988 43.354 90.9744C43.1071 91.9219 42.7833 92.8369 42.3181 93.6322C40.8333 96.0714 38.2894 98.5283 37.154 101.297C36.3233 103.244 36.1973 105.341 37.4968 107.63C37.8104 108.155 38.1321 108.635 38.537 109.095C39.0687 109.757 39.6905 110.377 40.3162 110.975C40.9407 111.564 41.5708 112.137 42.2048 112.687C43.1943 113.51 44.1932 114.288 45.1965 115.032C45.2697 115.085 45.3513 115.075 45.4439 115.019C45.455 114.956 45.4703 114.869 45.3958 114.823C44.5444 114.138 43.7763 113.434 43.0109 112.708C42.2456 111.988 41.4828 111.254 40.8045 110.494C40.1829 109.88 39.6415 109.273 39.111 108.596C38.7823 108.164 38.5363 107.716 38.2989 107.227C37.2772 105.198 37.4292 103.406 38.2085 101.751C39.4142 99.0597 41.9444 96.6654 43.3436 94.2585C43.9055 93.3678 44.3305 92.3393 44.5994 91.2752C44.7867 90.2129 44.9768 89.1349 44.9926 88.1236C45.046 86.8996 44.8337 85.8075 44.4501 84.7583C43.7203 82.4552 42.1247 80.4625 41.3261 78.0891C40.7228 76.4501 40.6176 74.7433 40.8301 73.0775C41.1256 71.4021 41.7405 69.7572 42.5708 68.2735C45.5992 63.0615 51.0365 60.297 55.0926 56.1517C56.8868 54.2612 58.4034 52.1024 59.3659 49.4005C61.2121 43.9977 61.7177 37.9131 62.5843 32.0694C63.1025 28.2088 63.8416 24.4859 65.3258 21.1286C66.7546 17.6248 69.0072 14.5087 72.8353 12.1252C73.4757 11.7182 74.1838 11.38 74.8847 11.0907C75.8542 10.6524 76.8788 10.37 77.9145 10.0097C78.6073 9.7663 79.2294 9.45494 79.9278 9.18003C80.0094 9.17006 80.0205 9.10703 80.0303 9.05188C80.04 8.99673 79.9667 8.95944 79.8837 8.96918Z" fill="white"/>
<path fill-rule="evenodd" clip-rule="evenodd" d="M45.7645 110.581C45.6472 110.324 45.6819 110.127 45.4815 109.882C45.1267 109.137 44.5007 108.549 43.9844 107.792C42.7899 105.828 42.7978 103.933 43.3673 102.093C43.9891 100.402 45.1667 98.783 46.4201 97.1952C48.4901 94.6547 50.944 92.2401 52.2946 90.1089C52.8813 89.0846 53.388 88.0461 53.5795 86.9602C53.7738 85.8586 53.8132 84.7215 53.4573 83.5147C53.2104 82.6114 52.3582 81.4633 52.0671 80.3573C51.9775 79.9516 52.0468 79.559 52.1923 79.1866C52.7472 78.3434 53.5466 77.9483 54.4716 77.7621C56.7416 77.3121 59.6195 78.0213 61.5554 77.1698C62.6036 76.7386 63.3533 76.1722 64.0311 75.5457C65.5086 74.0692 66.1704 72.151 67.9162 70.5349C68.4998 69.9893 69.1403 69.5742 69.8495 69.2376C70.3792 68.9979 70.8992 68.8053 71.422 68.5969C72.73 68.0896 74.0325 67.5977 75.2648 67.0514C75.5233 66.9751 75.6464 66.7301 75.5235 66.5053C75.4822 66.2868 75.2583 66.1743 74.9998 66.2505C73.7192 66.6177 72.3838 66.8277 71.0135 67.2359C70.6721 67.3369 70.4024 67.4843 70.0539 67.6178C68.9144 68.0911 67.9117 68.7253 67.0265 69.5995C65.3485 71.2993 64.6796 73.2501 63.2699 74.8022C62.6833 75.3649 62.0262 75.8746 61.2215 76.2918C59.2841 77.1593 56.4726 76.5417 54.2784 77.0226C53.1805 77.2677 52.1988 77.7675 51.6106 78.8078C51.2756 79.3255 51.1758 79.8914 51.311 80.5069C51.4372 81.634 52.1926 82.8706 52.3525 83.7991C52.5799 84.8127 52.5724 85.7767 52.33 86.683C52.0872 87.6069 51.686 88.5002 51.1268 89.3682C49.7114 91.4216 47.2781 93.7112 45.2154 96.211C43.8525 97.9515 42.6375 99.7816 42.0627 101.66C41.4322 103.861 41.5206 106.116 43.1505 108.375C43.6683 109.124 44.2745 109.832 44.8908 110.475C44.8866 110.499 44.9572 110.552 44.9544 110.568C45.1769 110.688 45.3414 110.677 45.5763 110.726C45.6469 110.779 45.7297 110.778 45.7381 110.73L45.7645 110.581Z" fill="white"/>
<path fill-rule="evenodd" clip-rule="evenodd" d="M69.8939 58.2257C69.7298 58.1722 69.6274 58.1539 69.4379 58.2069C69.1894 58.2621 68.9761 58.5051 68.7359 58.7297C68.0857 59.3669 67.4736 60.3546 67.1161 60.8045C66.8654 61.1485 66.5625 61.4637 66.2368 61.7676C65.4299 62.5409 64.4806 63.224 63.7002 63.9204C62.5977 64.9492 60.6927 65.6866 58.7789 66.6196C56.8963 67.5409 54.9925 68.6027 53.6024 69.8926C52.1397 71.2583 51.2231 72.8853 51.4231 74.9147C51.5715 76.6486 52.7316 77.7215 53.3468 79.1253C53.5648 79.6274 53.6965 80.1805 53.6484 80.8385C53.4622 82.4978 51.4466 83.1913 50.3358 84.4812C49.8102 85.09 49.4581 85.8072 49.4766 86.7664C49.5116 88.8381 50.72 89.8842 52.2496 90.6181C53.5808 91.253 55.1761 91.6286 56.2801 92.4733C57.1241 93.1125 57.677 94.0225 57.5986 95.6126C57.5792 95.7425 57.6758 95.8699 57.8152 95.8843C57.9438 95.8928 58.0687 95.7972 58.0849 95.6586C58.3705 93.7794 57.7852 92.6136 56.8368 91.7958C55.7204 90.839 54.0678 90.3909 52.6627 89.734C51.4197 89.1513 50.3574 88.4135 50.2566 86.73C50.2075 85.9918 50.4657 85.407 50.8653 84.9213C52.0058 83.5062 54.0727 82.6693 54.2387 80.9036C54.3384 80.1292 54.2076 79.4803 53.9944 78.8625C53.5157 77.541 52.5107 76.4752 52.5182 74.8748C52.5497 73.2854 53.4717 72.1522 54.7101 71.1776C56.0938 70.1011 57.929 69.2846 59.6731 68.4341C61.7693 67.3952 63.7204 66.3041 64.874 65.105C65.5771 64.3323 66.4736 63.5622 67.2212 62.7258C67.5668 62.3274 67.8941 61.926 68.1532 61.4948L69.9541 58.4609C70.0248 58.4443 70.0554 58.3743 70.0379 58.3053C70.0258 58.2429 69.9525 58.2036 69.8939 58.2257Z" fill="white"/>
<path fill-rule="evenodd" clip-rule="evenodd" d="M79.3384 24.3311C79.2663 24.3791 78.3102 24.8114 77.9915 24.8551C77.7208 24.8981 77.4006 24.9987 77.0827 25.0889C76.3769 25.293 75.6813 25.5666 75.4979 25.6694C73.7904 26.6661 71.9414 27.8453 70.41 29.3097C69.3267 30.3263 68.4159 31.491 67.7787 32.7919C67.0579 34.3453 66.2484 36.5431 65.7439 38.6824C65.3915 40.2088 65.1939 41.7074 65.273 42.9215C65.4166 45.0151 66.2562 47.2388 66.3371 49.4034C66.3869 50.6531 66.1563 51.8861 65.2711 53.0406C64.3228 54.2857 62.9115 54.7681 61.4271 55.1217C59.7733 55.5173 58.0322 55.7481 56.5674 56.4002C55.7157 56.7767 54.9607 57.2921 54.3509 58.0383C53.7703 58.7489 53.556 59.5927 53.5217 60.4924C53.4847 61.5983 53.7357 62.7713 53.4705 63.7284C53.3102 64.3187 52.9293 64.8106 52.1281 65.1494L50.2836 65.6157C50.1402 65.6574 50.0505 65.8027 50.0857 65.957C50.1169 66.1 50.2576 66.1891 50.4095 66.1505L52.3486 65.8027C53.4779 65.4431 54.0119 64.7815 54.2992 63.9922C54.6108 63.136 54.5751 62.0989 54.6118 61.0685C54.6359 60.2492 54.6997 59.4444 55.2488 58.8163C56.2593 57.6513 57.7373 57.259 59.2793 56.9459C60.9572 56.6151 62.7171 56.3814 64.2004 55.6786C65.0339 55.2772 65.7822 54.7314 66.4011 53.9605C67.2664 52.8646 67.6761 51.7163 67.8175 50.5447C68.1239 47.9942 67.0376 45.2941 66.9112 42.7935C66.8464 41.7163 67.0587 40.4023 67.3829 39.0618C67.868 37.0471 68.6373 34.986 69.3248 33.5241C69.8331 32.3824 70.5917 31.3513 71.4734 30.4127C72.8567 28.9505 74.5206 27.7025 76.076 26.6518C76.3124 26.4745 78.5543 25.5751 79.2086 25.0889C79.5465 24.835 80.1569 24.5126 80.3384 24.3311C80.8384 23.8311 80.3384 23.8311 80.3384 23.8311C80.2869 23.7927 79.3764 24.279 79.3384 24.3311Z" fill="white"/>
<path fill-rule="evenodd" clip-rule="evenodd" d="M105.304 46.164C105.311 46.9017 105.593 47.5688 106.047 48.1851C106.662 49.03 107.598 49.696 108.294 50.336C111.045 52.6839 114.584 53.2173 117.545 54.8848C118.66 55.5174 119.693 56.3088 120.536 57.5107C120.81 57.9057 121.035 58.2811 121.221 58.6781C121.403 59.0825 121.541 59.4967 121.675 59.9752C122.051 61.3955 121.979 62.52 121.641 63.5057C120.639 66.355 117.654 68.0828 116.426 71.3296C115.856 72.8646 116.16 74.1273 116.897 75.266C118.269 77.3802 121.429 78.9366 121.722 81.4511C121.858 82.5933 121.517 83.5419 120.933 84.3839C120.37 85.2026 119.59 85.9193 118.802 86.6713C117.581 87.8194 116.33 88.9986 115.567 90.3819C115.507 90.4715 115.539 90.595 115.627 90.6565C115.718 90.7078 115.841 90.6848 115.893 90.5937C116.771 89.3309 118.131 88.3619 119.377 87.3277C120.28 86.5867 121.099 85.8037 121.725 84.942C122.478 83.9199 122.909 82.761 122.786 81.3475C122.54 78.6695 119.37 76.8554 117.979 74.5834C117.486 73.7789 117.279 72.8881 117.711 71.8283C119.02 68.5783 122.07 66.8985 123.137 64.0417C123.602 62.8062 123.736 61.3745 123.282 59.5587C123.14 58.98 122.964 58.4763 122.753 57.9842C122.539 57.4929 122.274 57.0266 121.935 56.5321C120.925 55.0989 119.708 54.1127 118.362 53.4027C115.41 51.8371 111.844 51.5982 109.027 49.4389C108.292 48.9085 107.385 48.3316 106.642 47.6549C106.156 47.2052 105.729 46.748 105.547 46.1255C105.54 46.0608 105.476 46.0128 105.412 46.0193C105.346 46.0346 105.298 46.0912 105.304 46.164Z" fill="white"/>
<path fill-rule="evenodd" clip-rule="evenodd" d="M105.651 92.7624C105.301 92.8454 104.975 92.9884 104.677 93.2364C104.111 93.7094 103.72 94.4946 103.418 95.3309C102.802 97.0676 102.725 99.2 102.855 100.376C102.88 100.591 103.07 100.75 103.283 100.724C103.495 100.707 103.657 100.508 103.632 100.296C103.542 99.3618 103.679 97.8139 104.026 96.3669C104.246 95.4229 104.6 94.5496 105.039 93.8634C105.263 93.5211 105.456 93.2005 105.757 92.9815C105.818 92.9461 105.848 92.8797 105.813 92.8193C105.788 92.7595 105.711 92.7283 105.651 92.7624Z" fill="white"/>
<path fill-rule="evenodd" clip-rule="evenodd" d="M82.0394 21.3862L82.1901 21.4452C82.2661 21.483 82.2452 21.6012 82.3102 21.6857C82.8611 22.7076 83.448 23.5178 84.1473 24.1515C85.9793 25.7323 88.3113 26.3046 90.7383 26.807C93.402 27.3485 96.1569 27.8343 98.2835 29.1109C99.7568 29.9542 101.01 31.1337 101.918 32.8834C102.581 34.193 102.765 35.4508 102.788 36.6951C102.869 39.4524 101.673 42.0982 102.053 45.0043C102.166 45.7471 102.374 46.3999 102.754 47.0179C104.281 49.8596 107.591 51.7903 108.213 55.1617C108.363 56.1535 108.352 57.1411 108.182 58.101C107.582 61.5084 105.07 64.7008 105.335 68.269C105.63 72.1173 107.895 74.9118 108.758 78.3011C109.143 79.8041 109.264 81.4162 108.862 83.2354C108.566 84.4573 108.047 85.5505 107.46 86.5829C106.226 88.5153 104.555 90.1757 102.958 91.8668C101.532 93.5135 100.183 95.1819 99.81 97.2986C99.5463 98.7942 99.7889 100.175 100.284 101.513C101.468 104.918 104.004 108.026 104.256 111.657C104.45 113.776 104.153 115.461 103.641 116.984C103.224 117.973 102.734 118.909 102.165 119.839C101.384 121.041 100.444 122.238 99.4667 123.632C99.3558 123.808 99.1031 123.859 98.9594 123.753C98.7383 123.624 98.6996 123.383 98.8117 123.208C99.7168 121.761 100.508 120.488 101.213 119.25C101.693 118.37 102.169 117.511 102.496 116.579C102.983 115.198 103.173 113.664 103.02 111.764C102.748 108.243 100.109 105.27 98.9056 101.967C98.3688 100.42 98.0852 98.8033 98.3945 97.049C98.6124 95.8134 99.0528 94.6901 99.7239 93.6482C101.98 90.0546 106.347 87.3763 107.38 82.901C107.735 81.3416 107.572 79.9578 107.313 78.6787C106.464 75.2105 104.134 72.3165 103.856 68.3724C103.612 64.6874 106.144 61.3768 106.764 57.859C106.904 57.0646 106.887 56.2505 106.787 55.4368C106.136 52.2149 102.956 50.4614 101.407 47.7471C100.976 46.9725 100.638 46.1344 100.558 45.1956C100.187 42.2423 101.314 39.5355 101.24 36.7307C101.177 35.7056 101.034 34.6825 100.493 33.6136C98.9089 30.632 96.1542 29.6846 93.2654 29.0371C89.9093 28.291 86.4009 27.9404 83.8102 26.0634C82.6659 25.1968 81.6603 23.9973 80.9771 22.351C80.9979 22.2328 80.7782 22.0966 80.8806 21.9766L80.9084 21.819C80.9856 21.8421 81.1532 21.8053 81.424 21.6594C81.3535 21.5983 81.3646 21.5352 81.449 21.5176C81.5333 21.5 81.5305 21.5158 81.5997 21.5767C82.9575 21.2394 80.9132 20.8707 82.0394 21.3862Z" fill="white"/>
<path fill-rule="evenodd" clip-rule="evenodd" d="M93.7052 124.762C94.3314 124.889 94.9631 124.992 95.7028 124.935C98.1815 124.683 100.5 123.04 102.537 121.151C103.919 119.756 105.182 118.113 105.974 116.385C106.602 115.126 106.995 113.815 107.214 112.572C107.497 110.504 106.68 108.243 106.961 106.183C107.013 105.436 107.3 104.725 107.822 104.063C108.739 103.007 109.359 102.702 110.05 102.93C111.124 103.282 112.051 104.467 113.037 105.315C114.384 106.421 115.811 107.069 117.561 105.886C118.942 104.959 119.623 103.862 119.831 102.683C120.069 101.329 119.761 99.8547 119.531 98.3953C119.346 97.1456 119.161 95.8957 119.68 94.7944C119.937 94.2468 120.337 93.8231 120.81 93.4354C122.131 92.3943 123.962 91.6706 124.984 90.4793C125.677 89.7662 126.054 89.0053 126.274 88.2237C126.802 86.6136 126.618 84.8941 127.474 83.2513C128.781 80.9093 130.836 79.3816 132.109 77.2218C132.61 76.2149 133.048 75.1155 133.124 73.7655C133.223 71.8198 132.786 70.16 131.924 68.6041C130.297 65.4116 127.102 62.8283 126.284 59.1722C125.99 57.6349 126.517 56.0166 126.628 54.4696C126.616 53.6159 126.518 52.7864 126.253 51.9937C125.286 49.6568 123.293 48.0721 121.946 46.0421C121.506 45.3227 121.079 44.5258 120.918 43.597C120.744 42.7392 120.654 41.8702 120.566 40.995C120.46 38.8262 120.601 36.6524 120.254 34.4818C119.909 32.2955 119.207 30.2884 118.239 28.4145C117.264 26.5787 116.027 24.8603 114.614 23.2153C113.674 22.0924 112.599 21.2855 111.495 20.6454C108.988 19.2218 106.17 18.6436 104.023 16.5524C102.845 15.4117 101.959 13.9897 100.883 12.7291C100.342 12.1218 99.7932 11.5553 99.2283 11.0657C96.2519 8.63462 92.8811 7.04245 89.4669 6.61101C87.7997 6.40641 86.1686 6.4505 84.5618 6.82517C83.0383 7.18068 81.4065 7.69717 80.007 8.73119C79.7248 8.9495 79.5157 9.22133 79.2255 9.47749C78.9503 9.65642 78.8864 10.0188 79.0838 10.2811C79.2814 10.5502 79.5936 10.6147 79.8689 10.4358C80.2161 10.302 80.476 10.2098 80.8245 10.0763C82.2335 9.44873 83.5514 8.87011 84.8981 8.59581C86.3276 8.31307 87.7972 8.26351 89.2265 8.44242C92.3189 8.84147 95.3883 10.3074 98.005 12.4977C98.5746 12.938 98.9778 13.4153 99.4544 13.9298C100.521 15.2457 101.479 16.7131 102.728 17.9149C104.937 20.1051 107.901 20.7901 110.555 22.3047C111.434 22.8334 112.373 23.5011 113.178 24.4473C114.449 25.9847 115.627 27.5883 116.541 29.316C117.379 30.9883 118.034 32.8003 118.337 34.7681C118.695 36.8769 118.563 39.0022 118.677 41.1169C118.752 42.0777 118.826 43.0412 119.061 43.9994C119.26 45.1784 119.809 46.2 120.38 47.1116C121.663 49.0342 123.516 50.4888 124.425 52.7017C124.651 53.2533 124.712 53.8232 124.693 54.3967C124.634 56.1057 124.082 57.8658 124.432 59.559C125.299 63.3877 128.55 66.1191 130.313 69.456C130.984 70.7102 131.474 72.0706 131.36 73.64C131.255 74.7019 130.938 75.5788 130.553 76.3789C129.358 78.5536 127.298 80.113 126.07 82.477C125.114 84.2228 125.28 86.0379 124.812 87.7722C124.63 88.3482 124.366 88.927 123.865 89.4629C122.852 90.599 121.111 91.2736 119.882 92.2739C119.218 92.8148 118.7 93.4452 118.324 94.198C117.758 95.5671 117.895 97.0927 118.192 98.6291C118.37 99.9182 118.705 101.235 118.494 102.431C118.34 103.304 117.877 104.099 116.863 104.788C115.672 105.561 114.786 105.063 113.939 104.337C112.734 103.354 111.665 102.054 110.519 101.649C109.448 101.275 108.197 101.475 106.764 103.161C105.963 104.026 105.629 104.991 105.533 106.003C105.255 108.04 105.914 110.282 105.633 112.334C105.44 113.427 105.077 114.564 104.476 115.667C103.715 117.228 102.713 118.772 101.426 120.088C99.7263 121.904 97.5618 123.146 95.4739 123.93C94.8696 124.14 94.3373 124.402 93.6639 124.535C93.6626 124.543 93.574 124.584 93.5643 124.64C93.5532 124.703 93.625 124.756 93.7052 124.762Z" fill="white"/>
<path fill-rule="evenodd" clip-rule="evenodd" d="M79 67C79 66.9132 79.2424 67.1056 79.6289 67.2661C79.7398 67.3137 79.7341 67.3803 79.79 67.5064C79.8999 67.7812 80.0657 68.0619 80.1756 68.383C80.617 69.4809 80.8377 70.8463 80.9486 72.2118C81.1134 74.2933 80.8937 76.3807 80.1197 77.7807C79.7341 78.4896 79.1269 79.0914 78.4647 79.5803C78.0233 79.9014 77.5259 80.1892 77.0845 80.4164C76.5881 80.6448 76.0908 80.8054 75.6493 80.96C75.3737 81.073 75.1529 80.9386 75.0421 80.6579C74.9322 80.3772 75.0421 80.062 75.3177 79.9549C75.7042 79.7075 76.1467 79.4137 76.5881 79.1188C76.9736 78.8511 77.3601 78.5835 77.7476 78.2612C78.244 77.8604 78.6864 77.3989 78.9621 76.8434C79.4035 75.9394 79.5683 74.6608 79.5683 73.3286C79.5683 71.7301 79.2927 70.0637 78.9621 68.7113C78.9062 68.3497 78.6864 68.0155 78.7404 67.6943C79.0174 67.3166 78.6305 67.8216 79.0161 67.3589C79.0161 67.3125 79.0161 67.2531 79.072 67.2317C79.1269 67.2055 79.1818 67.2186 79.1818 67.2661C79.4035 67.1853 79.0549 67.0476 79 67Z" fill="white"/>
<path fill-rule="evenodd" clip-rule="evenodd" d="M37.5012 140.622C37.4833 140.632 37.4576 140.644 37.4225 140.656C37.2665 140.723 37.0531 140.931 36.6006 141.006C35.5185 141.183 33.7093 140.819 33.0328 140.798C32.7455 140.787 32.5169 140.546 32.5291 140.257C32.5287 139.961 32.7684 139.733 33.0664 139.743C33.7421 139.756 35.5963 139.594 36.656 139.896C37.0986 140.028 37.2897 140.254 37.4409 140.33C37.4678 140.347 37.4879 140.362 37.508 140.378L37.5425 140.375C37.5777 140.364 37.6309 140.468 37.5597 140.572C37.5448 140.6 37.5198 140.621 37.5012 140.622Z" fill="white"/>
<path fill-rule="evenodd" clip-rule="evenodd" d="M66.5531 83.565C66.5237 83.229 66.6868 83.3646 66.512 83.0948C66.4297 83.011 66.2783 83.0095 66.2 82.9709C64.641 82.3618 63.0794 81.7382 61.4629 81.3295C59.5378 80.8501 57.6383 80.663 55.7054 80.9512C53.5541 81.3134 51.53 82.2882 49.7599 83.5807C47.2114 85.4299 44.9476 87.9635 43.0366 90.2307C41.0632 92.6412 39.3343 95.2618 37.9175 97.9917C35.7859 102.036 34.0521 106.328 32.2414 110.584C30.4999 114.803 28.374 118.898 26.5548 123.071C26.0447 124.125 25.6096 125.18 25.1772 126.25C23.8127 129.592 22.148 132.946 20.946 136.417C20.1699 138.76 19.5516 141.163 19.1645 143.608C19.1815 143.802 19.2736 143.997 19.5033 144.037C19.7311 144.071 19.8707 143.938 19.928 143.736C20.301 141.972 20.903 140.255 21.5088 138.552C21.8161 137.765 22.1239 136.985 22.433 136.204C23.7363 133.033 25.1942 129.901 26.5052 126.803L33.7247 111.199C35.4669 107.002 37.2039 102.761 39.3422 98.7785C40.7695 96.1535 42.4317 93.643 44.3388 91.3307C46.1824 89.1658 48.3053 86.7502 50.7873 84.9818C52.344 83.8512 54.0764 82.9849 56.006 82.6582C57.339 82.413 58.7015 82.4745 60.0739 82.6636C61.9788 82.9266 63.9077 83.4498 65.6874 83.9955C65.842 84.0341 65.9261 84.1392 66.0736 84.1116C66.3692 84.0482 66.2145 83.9935 66.4977 83.788C66.5004 83.8186 66.5721 83.7815 66.6426 83.7151C66.6373 83.6554 66.6308 83.581 66.5531 83.565Z" fill="white"/>
<path fill-rule="evenodd" clip-rule="evenodd" d="M19.5844 144.105C19.4617 144.432 19.4017 144.603 19.4305 144.932C19.4449 145.097 19.458 145.246 19.5461 145.396C20.0534 146.896 20.7831 148.353 21.6598 149.76C23.169 152.369 25.1134 154.799 26.8906 157.03C31.1167 162.285 35.8681 166.691 40.956 170.613C44.026 172.981 47.2317 175.2 50.5757 177.257C52.1635 178.195 53.677 179.126 55.3313 179.967C56.0414 180.327 56.7468 180.649 57.4549 180.986C57.6931 181.139 58.061 181.046 58.1889 180.779C58.3918 180.512 58.2873 180.175 57.9715 180.023C57.4096 179.628 56.8476 179.216 56.2864 178.829C54.927 177.931 53.4991 177.092 52.1423 176.224C47.5192 173.3 43.112 170.289 38.9709 166.847C35.1484 163.62 31.5236 160.067 28.1551 155.986C26.7158 154.175 25.1879 152.208 23.7292 150.175C22.4413 148.367 21.7284 146.23 20.451 144.557C20.2781 144.293 20.0477 144.245 19.803 144.034C19.7234 143.981 19.7201 143.943 19.647 143.964C19.5739 143.986 19.5791 144.045 19.5844 144.105Z" fill="white"/>
<path fill-rule="evenodd" clip-rule="evenodd" d="M62.8799 172.408C62.8563 172.139 63.0096 172.193 62.9131 171.932C62.8079 171.586 62.415 171.409 62.1658 171.146C60.6776 169.634 59.4812 167.998 58.3534 166.305C57.1484 164.587 55.9416 162.849 54.6649 161.152C53.9038 160.209 53.1468 159.297 52.389 158.392C50.6234 156.294 48.7157 154.27 47.0227 152.129C44.9171 149.602 43.0229 146.89 41.0629 144.283C40.3919 143.498 39.7947 142.699 39.1289 141.973C38.8 141.657 38.4756 141.391 38.223 141.089C38.0638 140.982 37.9111 140.966 37.8433 141.047C37.6991 141.143 37.7128 141.299 37.7989 141.412C37.9869 141.832 38.25 142.253 38.4374 142.667C39.4791 144.263 40.5919 145.784 41.6318 147.343C42.9333 149.308 44.3796 151.215 45.8247 153.076L53.3965 162.152C54.4128 163.441 55.2822 164.781 56.2247 166.084C57.1724 167.432 58.1899 168.751 59.2787 169.982C60.1885 170.927 61.097 171.842 62.1458 172.63C62.1484 172.661 62.2266 172.698 62.2273 172.706C62.5327 172.755 62.4479 172.658 62.7435 172.578C62.7474 172.623 62.8218 172.617 62.8936 172.565C62.964 172.513 62.9582 172.447 62.8799 172.408" fill="white"/>
<path fill-rule="evenodd" clip-rule="evenodd" d="M39.4356 143.858C39.7327 143.697 39.7561 143.83 39.9729 143.575C40.1268 143.343 40.0696 143.019 40.1506 142.736C40.6146 140.934 41.3535 139.212 42.1627 137.515C42.9647 135.783 43.7702 134.072 44.5142 132.366C45.8099 129.368 47.1764 126.397 48.5514 123.475C49.4627 121.621 50.3805 119.81 51.2969 117.979C51.6808 117.2 52.062 116.406 52.4456 115.625C52.779 114.928 53.1776 114.233 53.5096 113.527C54.0386 112.461 54.5008 111.384 55.0286 110.318C55.0803 110.236 54.9953 110.129 54.9209 110.068C54.8445 110.009 54.7805 110.021 54.7311 110.102C53.9383 111.15 53.2046 112.165 52.4834 113.251C51.4015 114.88 50.4615 116.572 49.5265 118.291C47.1543 122.58 45.1413 127.061 43.1342 131.569C41.9799 134.265 40.5614 136.94 39.6981 139.802C39.3146 140.951 38.6109 142.137 38.8837 143.323C39.0062 143.643 39.0566 143.554 39.2963 143.81C39.242 143.87 39.3162 143.923 39.3815 143.925C39.3853 143.947 39.4442 143.907 39.4356 143.858Z" fill="white"/>
<path fill-rule="evenodd" clip-rule="evenodd" d="M94.7 64.1075C94.1747 64.1142 94.4747 63.8529 94.024 64.1222C93.8747 64.2275 93.8747 64.4822 93.7987 64.6702C92.6733 67.1529 92.0733 69.7569 92 72.3822C92 73.5529 92.0733 74.7382 92.2253 75.9089C92.524 77.6115 93.0493 79.2849 93.7253 80.9422C93.8747 81.2809 94.1747 81.4689 94.5507 81.3475C94.8493 81.2355 95.0747 80.8755 94.9253 80.5382C94.5507 79.1795 94.3987 77.8222 94.1747 76.4715C94.024 75.1129 93.9507 73.7635 93.9507 72.4129C93.9507 69.9889 94.3253 67.5889 95.1493 65.2022C95.1493 65.0222 95.3 64.8502 95.3 64.6555C95.2253 64.1595 95.2253 64.5795 94.8493 64.1969C94.9253 64.1449 94.8493 64.0769 94.8493 64.0542C94.7747 64.0315 94.7 64.0542 94.7 64.1075Z" fill="white"/>
<path fill-rule="evenodd" clip-rule="evenodd" d="M138.125 134.515C138.145 134.524 138.173 134.534 138.211 134.544C138.383 134.6 138.628 134.8 139.114 134.838C140.276 134.925 142.158 134.372 142.872 134.287C143.175 134.249 143.395 133.972 143.355 133.668C143.328 133.355 143.053 133.135 142.739 133.173C142.025 133.25 140.046 133.25 138.952 133.668C138.496 133.849 138.315 134.106 138.162 134.201C138.135 134.22 138.115 134.239 138.095 134.257H138.058C138.02 134.249 137.973 134.364 138.058 134.467C138.077 134.495 138.105 134.515 138.125 134.515Z" fill="white"/>
<path fill-rule="evenodd" clip-rule="evenodd" d="M104.081 77.7965C104.081 77.4379 103.921 77.5967 104.081 77.2948C104.16 77.1985 104.32 77.1829 104.4 77.1347C105.994 76.3454 107.589 75.5405 109.263 74.9581C111.257 74.2722 113.251 73.8981 115.324 74.0242C117.635 74.2084 119.868 75.053 121.862 76.2575C124.732 77.9793 127.363 80.452 129.597 82.6754C131.909 85.0448 133.982 87.6593 135.735 90.4183C138.367 94.5023 140.6 98.8867 142.911 103.224C145.146 107.531 147.776 111.669 150.089 115.918C150.726 116.987 151.285 118.064 151.842 119.156C153.596 122.569 155.669 125.965 157.263 129.529C158.302 131.938 159.179 134.425 159.816 136.978C159.816 137.184 159.736 137.4 159.497 137.464C159.259 137.52 159.099 137.393 159.019 137.184C158.461 135.351 157.664 133.589 156.865 131.842C156.467 131.037 156.069 130.239 155.669 129.442C153.996 126.205 152.162 123.024 150.487 119.865L141.398 104.014C139.165 99.7313 136.933 95.4021 134.3 91.3833C132.545 88.7362 130.553 86.2323 128.32 83.9607C126.167 81.8394 123.696 79.4785 120.904 77.8361C119.151 76.7833 117.237 76.0265 115.164 75.8593C113.73 75.7233 112.293 75.9146 110.857 76.2419C108.865 76.6968 106.871 77.4294 105.037 78.172C104.877 78.2272 104.798 78.3463 104.639 78.3307C104.32 78.291 104.479 78.2187 104.16 78.0274C104.16 78.06 104.081 78.0274 104 77.9637C104 77.8999 104 77.8205 104.081 77.7965Z" fill="white"/>
<path fill-rule="evenodd" clip-rule="evenodd" d="M158.417 137.543C158.577 137.878 158.657 138.053 158.657 138.405C158.657 138.581 158.657 138.739 158.577 138.906C158.179 140.542 157.541 142.152 156.744 143.723C155.387 146.625 153.554 149.377 151.879 151.904C147.891 157.86 143.269 162.964 138.245 167.588C135.214 170.38 132.026 173.027 128.676 175.514C127.081 176.654 125.565 177.779 123.892 178.824C123.173 179.27 122.456 179.677 121.738 180.099C121.5 180.283 121.101 180.218 120.941 179.948C120.702 179.684 120.781 179.317 121.101 179.127C121.66 178.657 122.217 178.169 122.775 177.707C124.131 176.63 125.565 175.61 126.921 174.566C131.545 171.041 135.932 167.445 139.998 163.417C143.746 159.647 147.255 155.549 150.443 150.916C151.799 148.866 153.235 146.641 154.591 144.354C155.787 142.32 156.344 139.992 157.541 138.102C157.7 137.807 157.94 137.735 158.179 137.488C158.258 137.424 158.258 137.385 158.338 137.4C158.417 137.416 158.417 137.479 158.417 137.543Z" fill="white"/>
<path fill-rule="evenodd" clip-rule="evenodd" d="M114.199 170.52C114.199 170.232 114.042 170.304 114.12 170.018C114.199 169.643 114.599 169.419 114.838 169.117C116.274 167.378 117.389 165.536 118.426 163.638C119.543 161.708 120.66 159.756 121.854 157.841C122.573 156.773 123.29 155.737 124.008 154.708C125.683 152.323 127.516 150.003 129.11 147.58C131.105 144.709 132.859 141.663 134.693 138.721C135.331 137.828 135.889 136.927 136.527 136.096C136.846 135.731 137.164 135.419 137.404 135.076C137.563 134.948 137.723 134.917 137.802 134.997C137.964 135.084 137.964 135.252 137.883 135.379C137.723 135.841 137.483 136.312 137.323 136.767C136.368 138.553 135.331 140.267 134.374 142.014C133.178 144.215 131.823 146.367 130.466 148.472L123.29 158.782C122.333 160.242 121.537 161.741 120.66 163.208C119.781 164.722 118.826 166.213 117.787 167.618C116.912 168.702 116.034 169.754 114.997 170.687C114.997 170.72 114.918 170.766 114.918 170.775C114.599 170.854 114.68 170.744 114.36 170.687C114.36 170.735 114.28 170.735 114.199 170.687C114.12 170.639 114.12 170.568 114.199 170.52" fill="white"/>
<path fill-rule="evenodd" clip-rule="evenodd" d="M137.518 134.935C137.178 134.827 137.178 134.963 136.904 134.748C136.701 134.545 136.701 134.212 136.564 133.945C135.746 132.235 134.656 130.652 133.497 129.107C132.339 127.526 131.181 125.965 130.089 124.399C128.181 121.646 126.204 118.932 124.228 116.267C122.933 114.583 121.639 112.944 120.343 111.284C119.798 110.576 119.253 109.854 118.708 109.145C118.231 108.51 117.686 107.889 117.209 107.246C116.459 106.278 115.777 105.289 115.029 104.321C114.96 104.249 115.029 104.127 115.095 104.054C115.164 103.982 115.233 103.982 115.3 104.054C116.322 104.957 117.277 105.838 118.231 106.792C119.663 108.221 120.957 109.738 122.252 111.284C125.524 115.133 128.455 119.235 131.385 123.365C133.089 125.843 135.066 128.255 136.496 130.949C137.109 132.024 138.063 133.079 137.997 134.306C137.928 134.646 137.859 134.567 137.655 134.863C137.723 134.913 137.655 134.979 137.587 134.993C137.587 135.015 137.518 134.985 137.518 134.935Z" fill="white"/>
<path fill-rule="evenodd" clip-rule="evenodd" d="M87.1428 104.111C87.3805 103.857 87.5769 103.69 87.7989 103.409C88.2385 102.84 88.5936 102.19 88.9875 101.577C90.3611 99.4434 91.7476 97.354 93.0376 95.1889C93.932 93.6931 94.7798 92.1874 95.5295 90.6622C96.8181 88.0676 97.9865 85.3664 98.5909 82.7169C98.7145 82.1909 98.8698 81.626 98.836 81.1777C98.8258 81.0061 98.7727 80.9754 98.7235 80.8526C98.8201 80.4053 98.6379 80.1315 98.3134 80.2243C97.9889 80.317 97.6386 80.7665 97.5327 81.2085C97.4206 81.3867 97.3428 81.4361 97.2458 81.6202C97.0084 82.1006 96.8733 82.5799 96.704 83.0625C95.8592 85.5017 94.9473 87.8279 93.8364 90.1706C93.0599 91.8089 92.255 93.4137 91.4092 95.052C90.1263 97.5355 88.7965 100.012 87.5129 102.515C87.3887 102.744 87.2456 102.978 87.1538 103.223C87.0465 103.515 87.0256 103.706 86.9477 103.998C86.892 104.095 86.895 104.191 86.9482 104.221C87.0013 104.252 87.0871 104.207 87.1428 104.111Z" fill="white"/>
<path fill-rule="evenodd" clip-rule="evenodd" d="M85.2359 107.695C84.9727 107.413 84.7553 107.228 84.5095 106.918C84.0228 106.287 83.6297 105.568 83.1936 104.889C81.6727 102.527 80.1377 100.214 78.7095 97.8165C77.7192 96.1604 76.7806 94.4933 75.9506 92.8047C74.5239 89.9321 73.2302 86.9415 72.5611 84.0081C72.4242 83.4257 72.2523 82.8002 72.2897 82.3039C72.301 82.1139 72.3598 82.0799 72.4143 81.944C72.3073 81.4488 72.509 81.1456 72.8683 81.2483C73.2276 81.351 73.6155 81.8486 73.7327 82.338C73.8568 82.5353 73.9429 82.59 74.0504 82.7938C74.3131 83.3257 74.4627 83.8564 74.6501 84.3906C75.5855 87.0912 76.5951 89.6667 77.825 92.2605C78.6848 94.0743 79.5759 95.8511 80.5123 97.6649C81.9328 100.415 83.405 103.156 84.8261 105.928C84.9636 106.181 85.1221 106.441 85.2237 106.711C85.3425 107.035 85.3657 107.246 85.4519 107.57C85.5136 107.677 85.5103 107.783 85.4514 107.817C85.3926 107.851 85.2976 107.801 85.2359 107.695Z" fill="white"/>
<path fill-rule="evenodd" clip-rule="evenodd" d="M116.583 114.9C116.641 114.715 116.712 114.581 116.745 114.391C116.802 114.009 116.752 113.622 116.751 113.237C116.751 111.897 116.783 110.571 116.7 109.246C116.645 108.33 116.548 107.425 116.363 106.544C116.06 105.042 115.606 103.536 114.732 102.24C114.561 101.981 114.395 101.696 114.139 101.522C114.043 101.455 113.986 101.46 113.884 101.425C113.732 101.208 113.447 101.156 113.237 101.303C113.027 101.449 112.979 101.752 113.121 101.97C113.123 102.081 113.086 102.127 113.104 102.236C113.161 102.513 113.299 102.757 113.411 103.012C113.987 104.302 114.453 105.568 114.769 106.906C114.99 107.842 115.171 108.774 115.338 109.733C115.589 111.187 115.8 112.654 116.061 114.117C116.079 114.253 116.085 114.397 116.137 114.529C116.202 114.686 116.283 114.772 116.37 114.918C116.375 114.977 116.427 115.015 116.485 115.01C116.542 115.005 116.588 114.958 116.583 114.9Z" fill="white"/>
<path fill-rule="evenodd" clip-rule="evenodd" d="M115.866 109.113C115.378 109.359 115.745 108.746 115.439 109.328V109.407C115.378 110.21 115.378 110.997 115.378 111.793C115.378 112.142 115.317 112.492 115.317 112.843C115.378 115.998 115.439 119.061 115.134 122.146C114.952 123.903 114.708 125.677 114.221 127.474C113.794 129.431 113.124 131.3 112.454 133.192C112.027 134.489 111.601 135.785 111.235 137.089C110.808 138.512 110.38 139.936 110.015 141.392C109.955 141.622 110.077 141.884 110.259 141.971C110.443 142.059 110.626 141.94 110.686 141.709C111.601 138.982 112.88 136.453 113.916 133.78C114.647 131.951 115.256 130.059 115.745 128.127C116.598 124.873 116.903 121.724 116.963 118.559C117.025 116.572 117.025 114.576 116.842 112.548C116.78 111.698 116.72 110.862 116.598 110.003C116.598 109.756 116.659 109.446 116.537 109.256C116.171 108.73 116.598 109.28 116.05 109.105C116.05 109.041 115.988 108.993 115.988 109.001C115.928 109.001 115.866 109.049 115.866 109.113Z" fill="white"/>
<path fill-rule="evenodd" clip-rule="evenodd" d="M52.5254 116.919C52.4704 116.74 52.407 116.612 52.3736 116.426C52.3134 116.05 52.3439 115.659 52.3328 115.275C52.2926 113.938 52.2252 112.618 52.2547 111.289C52.273 110.37 52.3269 109.458 52.4555 108.564C52.6653 107.039 53.001 105.497 53.6975 104.127C53.8333 103.854 53.9639 103.555 54.1739 103.36C54.2525 103.284 54.3013 103.284 54.3859 103.241C54.5072 103.011 54.745 102.934 54.9262 103.062C55.1074 103.19 55.1573 103.488 55.0445 103.717C55.0461 103.828 55.0782 103.871 55.0671 103.981C55.0274 104.263 54.9189 104.518 54.8321 104.783C54.3864 106.12 54.0334 107.423 53.8083 108.786C53.6506 109.739 53.5262 110.685 53.4155 111.656C53.2483 113.129 53.1157 114.611 52.9407 116.093C52.9295 116.23 52.9286 116.375 52.8888 116.51C52.8394 116.672 52.7739 116.765 52.7047 116.919C52.7021 116.978 52.66 117.021 52.6112 117.021C52.5624 117.021 52.5228 116.978 52.5254 116.919Z" fill="white"/>
<path fill-rule="evenodd" clip-rule="evenodd" d="M52.4492 111.019C53.0714 111.266 52.6038 110.653 52.9935 111.234V111.313C53.0714 112.116 53.0714 112.903 53.0714 113.699C53.0714 114.048 53.1494 114.399 53.1494 114.749C53.0714 117.905 52.9935 120.967 53.3832 124.052C53.6157 125.809 53.9275 127.584 54.5497 129.38C55.0953 131.338 55.9513 133.206 56.8074 135.098C57.3529 136.395 57.8972 137.691 58.3649 138.996C58.9104 140.418 59.456 141.842 59.9224 143.298C59.999 143.529 59.8431 143.79 59.6106 143.878C59.3768 143.965 59.143 143.846 59.0663 143.615C57.8972 140.888 56.2631 138.359 54.9394 135.686C54.0054 133.858 53.2273 131.965 52.6038 130.033C51.5139 126.779 51.1242 123.631 51.0476 120.466C50.9683 118.478 50.9683 116.482 51.2022 114.454C51.2814 113.604 51.358 112.768 51.5139 111.909C51.5139 111.662 51.436 111.352 51.5919 111.162C52.0595 110.637 51.5139 111.186 52.2141 111.011C52.2141 110.947 52.2933 110.899 52.2933 110.907C52.37 110.907 52.4492 110.955 52.4492 111.019Z" fill="white"/>
<path fill-rule="evenodd" clip-rule="evenodd" d="M90.0121 58.7919C89.9995 58.8283 89.9907 58.8662 89.9853 58.906C89.974 58.9854 89.8393 59.038 89.7702 59.0833C88.9402 59.684 87.9169 59.999 86.8698 60.0856C86.204 60.1322 85.5207 60.0829 84.8516 59.9558C83.8573 59.7277 82.9208 59.3159 82.1237 58.8127C82.0621 58.7772 82.0258 58.7125 82.0602 58.6464C82.091 58.5783 82.1769 58.5412 82.2413 58.5784C83.0355 58.9073 83.9612 59.0536 84.9013 59.1217C85.2712 59.1626 85.6493 59.1654 86.0242 59.1656C87.155 59.1281 88.2408 58.8921 89.1999 58.3229C89.279 58.2827 89.345 58.1912 89.4412 58.2038C89.8676 58.2344 89.6649 58.1604 89.5984 58.2079C89.5602 58.2288 89.5549 58.3124 89.7405 58.4625C89.7689 58.4359 89.7977 58.4525 89.8207 58.4658C89.828 58.513 89.8378 58.5186 89.8094 58.5452C90.173 59.2307 90.1406 58.2187 90.0121 58.7919Z" fill="white"/>
<path d="M98.3682 42.7491C97.6044 42.6759 96.9414 42.5649 96.2909 42.5264C95.6431 42.4815 95.0191 42.4865 94.3856 42.5371C93.7514 42.5903 93.1071 42.6834 92.4299 42.7962C91.7502 42.9055 91.0451 43.0493 90.2594 43.1004L90.2559 43.1009C90.1388 43.1076 90.0488 42.9955 90.0561 42.8504C90.0596 42.7849 90.0832 42.7232 90.119 42.6745C90.687 41.8937 91.3765 41.3179 92.1226 40.8851C92.8684 40.4579 93.6821 40.1895 94.4972 40.1361C96.126 40.0134 97.7551 40.7624 98.5953 42.3272C98.6558 42.4416 98.6247 42.606 98.5253 42.6949C98.478 42.7364 98.4233 42.7548 98.3734 42.7505L98.3682 42.7491" fill="white"/>
<path d="M72.602 42.6206C73.3669 42.5607 74.0317 42.4614 74.6829 42.4342C75.3314 42.4007 75.9552 42.4166 76.5877 42.4783C77.2208 42.5426 77.8635 42.6469 78.5386 42.7715C79.2163 42.8928 79.9188 43.0489 80.7035 43.1137L80.7069 43.1143C80.8239 43.1229 80.9159 43.0124 80.9111 42.8673C80.9088 42.8017 80.8862 42.7396 80.8512 42.6903C80.297 41.8996 79.6176 41.3118 78.8793 40.8661C78.1411 40.4259 77.3321 40.1433 76.5181 40.0756C74.8917 39.9245 73.2497 40.6449 72.3822 42.1948C72.3197 42.3081 72.348 42.473 72.4458 42.5636C72.4924 42.606 72.5467 42.6254 72.5967 42.6219L72.602 42.6206" fill="white"/>
<path d="M151.707 203.229C145.203 206.627 137.633 206.705 130.408 206.634C125.219 206.577 120.049 206.233 114.908 205.53C107.049 204.837 99.0806 203.49 91.2061 204.548C83.2365 205.582 75.9009 208.951 68.4537 211.691C61.6335 214.249 54.6168 216.348 47.3561 217.368C43.2318 217.964 39.0262 217.795 34.8936 217.347C33.966 217.234 33.0537 217.038 32.1602 216.771C31.7179 216.619 29.1147 215.9 27.2103 215.16C25.5277 214.503 24.3906 213.83 25.7878 213.513C26.4645 213.755 27.15 213.978 27.8353 214.183C36.7953 216.869 46.4187 216.564 55.3716 213.921C68.217 211.037 79.7388 203.719 93.0147 202.484C100.648 201.858 108.31 203.115 115.902 203.823C121.915 204.641 127.972 204.859 134.033 204.838C139.869 204.748 145.882 204.372 151.076 201.556C155.695 198.701 159.778 194.066 159.574 188.478C159.294 188.334 158.972 188.17 158.699 187.974C158.22 187.621 157.907 187.162 158.303 186.518C158.571 186.059 158.968 185.909 159.394 185.939C159.595 185.952 159.8 186.007 160.004 186.088C160.034 186.101 160.061 186.113 160.093 186.128C160.593 186.345 161.066 186.713 161.36 187.052C162.918 193.706 157.198 199.945 151.707 203.229Z" fill="white"/>
<path d="M147.713 186.592C146.547 187.165 143.459 187.028 142.165 187.161C138.483 187.389 134.798 187.582 131.11 187.743C114.436 188.472 97.7128 188.571 80.9576 188.628C80.9744 188.626 80.9959 188.627 81.0174 188.625C80.9494 188.628 80.8779 188.63 80.81 188.63L80.8355 188.631C75.1102 188.838 69.3852 189.051 63.6604 189.243C63.64 189.245 63.6185 189.244 63.5977 189.243L63.6313 189.244C63.5005 189.249 63.3698 189.252 63.2391 189.255C63.0875 189.258 62.9393 189.264 62.7876 189.269C45.2745 190.152 27.6795 189.889 10.0699 189.801C7.83968 189.949 5.46034 189.787 3.29108 190.132C3.02437 190.172 2.76161 190.22 2.50233 190.278C3.19038 192.051 2.76104 193.854 3.07771 195.639C5.33612 195.646 2.21149 197.521 1.73369 195.637C1.72055 195.289 1.61722 194.872 1.46899 194.413L1.46907 194.411C0.848228 192.514 -0.532982 189.959 0.731489 189.104C0.830148 189.058 0.924487 189.011 1.02703 188.97C1.23241 188.878 1.44616 188.797 1.6636 188.72C2.09445 188.562 2.54585 188.429 3.01346 188.314C7.24224 187.27 12.8386 187.735 17.2198 187.393C22.8913 187.514 28.5576 187.546 34.2177 187.511C37.0117 187.495 39.7983 187.463 42.5892 187.417C50.106 187.295 57.6138 187.079 65.1186 186.829C65.8358 186.804 66.5489 186.78 67.2658 186.76C67.4849 186.753 67.7046 186.746 67.9237 186.739C71.0878 186.638 74.2546 186.561 77.4223 186.473C88.995 186.174 100.614 186.466 112.211 186.43C113.209 186.425 114.213 186.42 115.211 186.41C115.149 186.413 115.089 186.416 115.03 186.419C115.157 186.413 115.287 186.411 115.414 186.408C118.156 186.325 120.892 186.155 123.642 186.076C123.617 186.075 123.592 186.076 123.566 186.076C127.425 185.965 131.236 185.58 135.098 185.487C139.103 185.56 143.247 184.887 147.178 185.129C147.334 185.139 147.49 185.149 147.645 185.16C148.391 185.872 148.275 186.314 147.713 186.592Z" fill="white"/>
<path d="M42.1989 188H125.408C128.202 188 130.557 186.023 130.885 183.399L137.567 133.83C137.956 130.727 135.394 128 132.089 128H35.5171C32.2132 128 29.6501 130.727 30.0391 133.83L36.7202 183.399C37.0495 186.023 39.4028 188 42.1989 188" fill="white"/>
</svg>
