<svg width="721" height="890" viewBox="0 0 721 890" fill="none" xmlns="http://www.w3.org/2000/svg">
<path fill-rule="evenodd" clip-rule="evenodd" d="M358.859 171.987C358.239 172.599 357.714 173.332 357.34 174.207C356.592 175.979 356.592 178.078 356.379 179.546C356.251 184.047 355.91 188.551 355.815 193.074C355.787 195.011 355.754 196.945 355.849 198.879C356.099 203.2 356.753 207.455 357.278 211.795C357.278 211.898 357.43 212 357.586 212C357.742 212 357.898 211.919 357.898 211.795C358.367 208.557 358.982 205.357 359.389 202.138C359.701 199.999 359.943 197.861 360.071 195.703C360.383 190.302 360.194 184.944 360.165 179.565C360.009 178.345 359.791 176.672 359.607 175.085C359.517 174.005 359.328 173.024 359.574 172.189C359.668 172.049 359.574 171.907 359.389 171.863C359.167 171.804 358.958 171.863 358.859 171.987Z" fill="white"/>
<path fill-rule="evenodd" clip-rule="evenodd" d="M267.897 163.473C267.726 166.264 267.554 169.004 268.034 171.726L270.153 183.743C271.92 193.762 275.583 203.346 278.635 213.139C281.416 221.476 284.865 229.847 289.532 237.649C292.441 242.955 295.966 248.002 301.347 252.418C308.509 259.426 319.167 267.631 331.242 272.724C339.15 276.448 348.719 278.52 357.814 277.82C361.702 277.488 364.835 276.633 367.915 275.438C371.604 273.935 375.801 271.641 379.396 269.604C389.573 263.892 398.111 256.321 405.156 247.755C411.576 239.401 416.527 230.15 420.21 221.178C422.184 213.709 424.116 206.045 425.41 198.393C426.691 190.793 427.335 183.21 427.319 175.688C427.251 175.301 427.19 174.958 426.538 174.973C425.893 175.036 425.301 175.393 425.37 175.784C424.693 183.177 423.387 190.674 421.421 198.192C419.438 205.613 416.786 212.955 413.457 220.214C410.334 228.638 405.295 237.349 399.442 245.205C392.938 253.119 385.643 260.225 376.067 265.673C372.472 267.665 368.902 269.799 365.219 271.295C362.749 272.236 360.879 272.818 358.279 273.024C349.843 273.659 341.597 271.701 334.433 268.402C323.039 263.492 313.729 255.453 306.64 248.824C301.963 244.683 298.5 240.03 295.024 235.227C290.417 227.762 287.011 219.637 284.266 211.546C281.837 205.201 279.402 198.863 277.601 192.407C276.27 188.579 274.94 184.75 274.236 180.761C272.548 174.942 270.239 169.283 269.184 163.296C269.142 163.057 268.456 162.925 268.456 162.925C267.82 163.037 267.855 163.233 267.897 163.473Z" fill="white"/>
<path fill-rule="evenodd" clip-rule="evenodd" d="M328.494 11.0628C325.545 11.3765 322.627 11.4782 319.653 11.9325C316.674 12.3799 313.996 13.2126 310.967 13.9472C305.265 15.4792 299.836 17.5245 294.264 20.3783C275.085 30.5774 262.813 44.7374 254.819 61.3252C247.025 76.818 243.546 94.492 240.716 112.6C236.948 138.077 235.513 164.684 227.386 188.196C224.03 198.974 217.837 207.439 210.719 214.95C192.836 234.277 168.369 247.737 155.072 271.823C151.2 279.429 148.288 287.718 147.166 296.135C146.02 304.693 147.008 313.446 150.247 321.768C154.188 332.274 161.35 340.956 164.964 351.229C166.442 355.181 167.155 359.361 167.047 364.084C167.039 368.209 166.259 372.633 165.491 376.986C164.389 381.214 162.944 385.297 160.869 388.846C154.243 399.73 142.892 410.693 137.825 423.049C134.119 431.735 133.557 441.091 139.355 451.308C140.754 453.651 142.19 455.789 143.997 457.842C146.369 460.797 149.144 463.564 151.936 466.231C154.722 468.861 157.534 471.417 160.363 473.873C164.778 477.546 169.236 481.014 173.713 484.335C174.039 484.574 174.403 484.529 174.817 484.276C174.866 483.995 174.934 483.608 174.602 483.404C170.803 480.348 167.376 477.206 163.96 473.964C160.545 470.752 157.142 467.475 154.115 464.084C151.341 461.348 148.925 458.638 146.558 455.617C145.091 453.691 143.994 451.691 142.934 449.51C138.375 440.454 139.054 432.46 142.531 425.074C147.911 413.064 159.201 402.38 165.445 391.64C167.952 387.666 169.849 383.077 171.048 378.328C171.884 373.588 172.732 368.778 172.803 364.265C173.041 358.804 172.094 353.93 170.382 349.248C167.126 338.972 160.006 330.08 156.442 319.489C153.75 312.176 153.281 304.56 154.229 297.127C155.547 289.65 158.291 282.311 161.996 275.69C175.51 252.433 199.772 240.098 217.871 221.6C225.877 213.165 232.644 203.532 236.939 191.475C245.177 167.367 247.434 140.216 251.3 114.141C253.613 96.914 256.911 80.301 263.533 65.3205C269.909 49.6859 279.961 35.781 297.042 25.1454C299.9 23.3294 303.06 21.8204 306.187 20.5292C310.514 18.5734 315.085 17.3135 319.707 15.7057C322.798 14.6197 325.574 13.2303 328.69 12.0036C329.055 11.9591 329.104 11.6779 329.148 11.4318C329.191 11.1857 328.864 11.0193 328.494 11.0628Z" fill="white"/>
<path fill-rule="evenodd" clip-rule="evenodd" d="M176.247 464.473C175.724 463.33 175.879 462.451 174.984 461.357C173.401 458.033 170.608 455.407 168.304 452.029C162.974 443.265 163.009 434.808 165.55 426.598C168.325 419.053 173.58 411.829 179.173 404.744C188.409 393.408 199.359 382.634 205.386 373.124C208.004 368.553 210.265 363.92 211.119 359.074C211.986 354.158 212.162 349.084 210.574 343.699C209.472 339.669 205.669 334.546 204.371 329.61C203.971 327.8 204.28 326.048 204.929 324.386C207.405 320.624 210.972 318.861 215.1 318.03C225.229 316.022 238.071 319.187 246.709 315.387C251.386 313.463 254.732 310.936 257.756 308.14C264.349 301.552 267.302 292.992 275.092 285.781C277.697 283.346 280.555 281.494 283.719 279.992C286.083 278.923 288.403 278.063 290.736 277.133C296.572 274.87 302.385 272.675 307.883 270.237C309.037 269.896 309.586 268.803 309.038 267.8C308.853 266.825 307.854 266.323 306.701 266.663C300.987 268.302 295.028 269.239 288.913 271.06C287.39 271.511 286.186 272.168 284.631 272.764C279.547 274.876 275.072 277.706 271.122 281.607C263.635 289.192 260.65 297.897 254.36 304.823C251.742 307.333 248.81 309.608 245.219 311.47C236.574 315.34 224.029 312.584 214.238 314.73C209.339 315.824 204.958 318.054 202.334 322.696C200.839 325.006 200.394 327.532 200.997 330.278C201.56 335.307 204.931 340.825 205.644 344.969C206.659 349.491 206.625 353.793 205.544 357.837C204.46 361.96 202.67 365.945 200.175 369.819C193.859 378.982 183.001 389.198 173.797 400.353C167.715 408.119 162.294 416.286 159.729 424.666C156.916 434.488 157.31 444.55 164.583 454.629C166.893 457.972 169.599 461.132 172.349 464.003C172.33 464.109 172.645 464.345 172.632 464.416C173.625 464.953 174.359 464.901 175.408 465.122C175.722 465.359 176.092 465.352 176.129 465.141L176.247 464.473Z" fill="white"/>
<path fill-rule="evenodd" clip-rule="evenodd" d="M283.917 230.855C283.185 230.616 282.728 230.534 281.882 230.771C280.774 231.017 279.822 232.102 278.75 233.104C275.849 235.947 273.118 240.355 271.522 242.362C270.403 243.897 269.052 245.303 267.599 246.659C263.998 250.11 259.762 253.158 256.28 256.266C251.36 260.856 242.86 264.147 234.32 268.31C225.919 272.421 217.425 277.159 211.221 282.915C204.695 289.009 200.604 296.269 201.497 305.324C202.159 313.062 207.336 317.849 210.081 324.113C211.054 326.353 211.641 328.821 211.427 331.758C210.596 339.162 201.602 342.256 196.645 348.012C194.3 350.729 192.729 353.929 192.811 358.209C192.967 367.453 198.36 372.121 205.185 375.396C211.125 378.229 218.244 379.905 223.17 383.674C226.936 386.526 229.403 390.587 229.053 397.682C228.967 398.262 229.398 398.831 230.02 398.895C230.594 398.933 231.151 398.506 231.223 397.888C232.498 389.502 229.886 384.3 225.654 380.651C220.672 376.382 213.298 374.382 207.028 371.451C201.482 368.851 196.742 365.559 196.292 358.047C196.073 354.753 197.225 352.143 199.008 349.976C204.097 343.661 213.32 339.927 214.061 332.048C214.506 328.593 213.922 325.697 212.971 322.94C210.835 317.044 206.35 312.288 206.384 305.147C206.524 298.054 210.638 292.998 216.164 288.649C222.338 283.845 230.528 280.202 238.31 276.407C247.664 271.771 256.37 266.902 261.517 261.551C264.655 258.104 268.655 254.667 271.991 250.935C273.533 249.158 274.994 247.366 276.15 245.442L284.186 231.905C284.501 231.83 284.638 231.518 284.56 231.21C284.506 230.932 284.179 230.756 283.917 230.855Z" fill="white"/>
<path fill-rule="evenodd" clip-rule="evenodd" d="M326.06 79.61C325.739 79.825 321.473 81.754 320.051 81.949C318.843 82.141 317.413 82.59 315.995 82.992C312.846 83.903 309.742 85.124 308.924 85.582C301.304 90.03 293.054 95.292 286.22 101.826C281.386 106.362 277.322 111.56 274.479 117.364C271.262 124.296 267.65 134.103 265.399 143.649C263.827 150.46 262.945 157.147 263.298 162.565C263.939 171.907 267.685 181.829 268.046 191.488C268.268 197.064 267.24 202.566 263.289 207.718C259.058 213.274 252.761 215.427 246.137 217.004C238.757 218.77 230.988 219.799 224.452 222.709C220.651 224.389 217.282 226.689 214.561 230.019C211.971 233.189 211.014 236.955 210.862 240.969C210.696 245.904 211.816 251.138 210.633 255.409C209.918 258.043 208.218 260.238 204.643 261.75L196.412 263.831C195.772 264.017 195.372 264.665 195.529 265.353C195.668 265.992 196.296 266.389 196.974 266.217L205.627 264.665C210.666 263.06 213.049 260.108 214.331 256.586C215.721 252.766 215.562 248.138 215.726 243.54C215.833 239.884 216.118 236.293 218.568 233.49C223.077 228.292 229.672 226.541 236.553 225.144C244.04 223.668 251.893 222.625 258.512 219.489C262.231 217.698 265.57 215.263 268.332 211.823C272.193 206.932 274.021 201.809 274.652 196.581C276.019 185.2 271.172 173.152 270.608 161.993C270.319 157.187 271.266 151.323 272.713 145.342C274.877 136.352 278.31 127.155 281.378 120.632C283.646 115.537 287.031 110.936 290.965 106.748C297.138 100.223 304.563 94.654 311.503 89.966C312.558 89.175 322.562 85.162 325.481 82.992C326.989 81.859 329.713 80.42 330.523 79.61C332.754 77.379 330.523 77.379 330.523 77.379C330.293 77.208 326.23 79.378 326.06 79.61Z" fill="white"/>
<path fill-rule="evenodd" clip-rule="evenodd" d="M441.925 177.033C441.955 180.325 443.212 183.301 445.24 186.052C447.983 189.822 452.159 192.793 455.268 195.649C467.54 206.126 483.335 208.506 496.546 215.947C501.522 218.77 506.131 222.301 509.892 227.664C511.116 229.427 512.119 231.102 512.949 232.873C513.76 234.678 514.377 236.526 514.973 238.661C516.652 244.999 516.33 250.017 514.823 254.415C510.352 267.129 497.031 274.839 491.552 289.327C489.009 296.177 490.366 301.811 493.656 306.892C499.774 316.326 513.877 323.271 515.185 334.491C515.79 339.588 514.271 343.821 511.663 347.578C509.152 351.231 505.67 354.429 502.154 357.784C496.708 362.908 491.122 368.17 487.72 374.342C487.45 374.742 487.595 375.293 487.987 375.567C488.394 375.796 488.944 375.694 489.172 375.287C493.09 369.652 499.163 365.328 504.719 360.714C508.752 357.407 512.406 353.913 515.199 350.068C518.559 345.507 520.479 340.336 519.93 334.029C518.835 322.079 504.688 313.984 498.483 303.846C496.282 300.256 495.358 296.281 497.285 291.552C503.129 277.05 516.739 269.554 521.5 256.807C523.572 251.294 524.172 244.905 522.145 236.803C521.513 234.22 520.725 231.973 519.784 229.777C518.829 227.585 517.649 225.504 516.135 223.298C511.626 216.902 506.198 212.502 500.189 209.334C487.019 202.347 471.106 201.281 458.536 191.646C455.256 189.28 451.209 186.705 447.893 183.686C445.727 181.679 443.821 179.639 443.006 176.861C442.979 176.573 442.69 176.359 442.407 176.387C442.111 176.456 441.898 176.708 441.925 177.033Z" fill="white"/>
<path fill-rule="evenodd" clip-rule="evenodd" d="M443.473 384.965C441.91 385.335 440.456 385.973 439.125 387.08C436.602 389.19 434.855 392.694 433.508 396.426C430.758 404.175 430.415 413.691 430.994 418.94C431.109 419.897 431.956 420.608 432.907 420.492C433.851 420.416 434.575 419.529 434.465 418.579C434.064 414.412 434.672 407.506 436.221 401.049C437.205 396.836 438.78 392.939 440.74 389.878C441.74 388.35 442.603 386.92 443.947 385.942C444.217 385.784 444.353 385.488 444.196 385.219C444.086 384.952 443.742 384.812 443.473 384.965Z" fill="white"/>
<path fill-rule="evenodd" clip-rule="evenodd" d="M338.113 66.4696L338.786 66.7332C339.124 66.9017 339.031 67.429 339.321 67.8064C341.78 72.3661 344.398 75.9811 347.519 78.8091C355.693 85.8631 366.099 88.4171 376.929 90.6591C388.815 93.0751 401.108 95.2421 410.597 100.939C417.171 104.702 422.762 109.965 426.816 117.773C429.773 123.616 430.596 129.229 430.699 134.781C431.06 147.085 425.722 158.891 427.417 171.858C427.92 175.173 428.85 178.086 430.545 180.843C437.359 193.524 452.128 202.139 454.906 217.182C455.576 221.608 455.524 226.015 454.768 230.298C452.087 245.503 440.882 259.748 442.062 275.67C443.378 292.842 453.485 305.311 457.337 320.435C459.055 327.142 459.593 334.336 457.799 342.453C456.481 347.906 454.165 352.783 451.546 357.39C446.038 366.013 438.582 373.422 431.458 380.968C425.093 388.316 419.074 395.761 417.409 405.206C416.232 411.879 417.315 418.039 419.524 424.011C424.807 439.206 436.125 453.073 437.249 469.275C438.113 478.731 436.787 486.248 434.501 493.047C432.641 497.461 430.455 501.637 427.917 505.787C424.435 511.148 420.236 516.491 415.877 522.712C415.382 523.495 414.254 523.725 413.613 523.249C412.627 522.677 412.454 521.601 412.954 520.819C416.993 514.36 420.525 508.682 423.668 503.159C425.811 499.229 427.936 495.399 429.395 491.24C431.569 485.074 432.413 478.233 431.734 469.752C430.517 454.042 418.743 440.777 413.373 426.038C410.978 419.133 409.712 411.92 411.093 404.092C412.065 398.578 414.03 393.566 417.025 388.917C427.09 372.882 446.578 360.931 451.187 340.961C452.77 334.002 452.047 327.827 450.89 322.12C447.1 306.644 436.702 293.731 435.462 276.131C434.374 259.688 445.672 244.915 448.44 229.219C449.065 225.674 448.987 222.041 448.54 218.41C445.637 204.033 431.448 196.209 424.534 184.097C422.612 180.641 421.103 176.901 420.748 172.712C419.09 159.534 424.12 147.456 423.789 134.94C423.508 130.366 422.87 125.8 420.454 121.031C413.388 107.726 401.096 103.499 388.206 100.61C373.23 97.2801 357.575 95.7161 346.014 87.3401C340.908 83.4741 336.421 78.1211 333.373 70.775C333.466 70.2477 332.485 69.6399 332.942 69.1042L333.066 68.4011C333.411 68.5041 334.158 68.3399 335.367 67.6891C335.052 67.4162 335.102 67.1349 335.478 67.0563C335.855 66.9776 335.842 67.048 336.151 67.3198C342.21 65.8146 333.087 64.1698 338.113 66.4696Z" fill="white"/>
<path fill-rule="evenodd" clip-rule="evenodd" d="M390.168 527.753C392.962 528.318 395.781 528.779 399.082 528.527C410.142 527.402 420.486 520.067 429.577 511.642C435.744 505.413 441.381 498.082 444.915 490.374C447.718 484.754 449.468 478.907 450.446 473.358C451.711 464.132 448.065 454.041 449.317 444.849C449.548 441.519 450.833 438.344 453.16 435.389C457.253 430.68 460.018 429.319 463.102 430.334C467.893 431.904 472.029 437.194 476.431 440.979C482.442 445.911 488.807 448.804 496.619 443.524C502.779 439.39 505.817 434.495 506.745 429.233C507.81 423.192 506.433 416.612 505.407 410.1C504.584 404.523 503.755 398.946 506.071 394.032C507.221 391.588 509.004 389.698 511.115 387.968C517.009 383.322 525.179 380.093 529.741 374.777C532.833 371.595 534.513 368.2 535.497 364.712C537.851 357.527 537.029 349.855 540.853 342.524C546.683 332.074 555.854 325.257 561.534 315.62C563.77 311.126 565.723 306.221 566.06 300.196C566.504 291.515 564.553 284.108 560.709 277.166C553.446 262.92 539.191 251.393 535.543 235.078C534.227 228.219 536.582 220.998 537.074 214.095C537.021 210.285 536.586 206.584 535.403 203.046C531.086 192.619 522.195 185.548 516.186 176.489C514.221 173.279 512.317 169.723 511.597 165.579C510.822 161.751 510.419 157.874 510.026 153.968C509.551 144.291 510.18 134.591 508.632 124.905C507.096 115.149 503.963 106.193 499.643 97.832C495.294 89.64 489.771 81.972 483.465 74.632C479.274 69.6214 474.478 66.0208 469.55 63.1643C458.364 56.8119 445.788 54.2319 436.208 44.9005C430.949 39.8107 427 33.4655 422.198 27.8401C419.782 25.1305 417.334 22.6025 414.813 20.4181C401.532 9.56998 386.491 2.46538 371.256 0.540179C363.817 -0.372821 356.538 -0.176021 349.368 1.49588C342.57 3.08218 335.289 5.38688 329.044 10.0009C327.785 10.975 326.852 12.188 325.557 13.331C324.329 14.1294 324.043 15.7466 324.924 16.9169C325.806 18.1175 327.199 18.4054 328.428 17.6071C329.977 17.0103 331.137 16.5986 332.692 16.0028C338.979 13.2027 344.86 10.6208 350.869 9.39678C357.248 8.13508 363.805 7.91398 370.183 8.71228C383.982 10.493 397.678 17.0343 409.355 26.808C411.896 28.7725 413.695 30.9021 415.822 33.1983C420.58 39.0697 424.857 45.6175 430.43 50.9802C440.288 60.7534 453.511 63.81 465.357 70.5687C469.279 72.928 473.465 75.907 477.059 80.129C482.73 86.99 487.987 94.145 492.065 101.854C495.806 109.316 498.73 117.402 500.082 126.183C501.679 135.593 501.088 145.076 501.599 154.512C501.93 158.8 502.26 163.099 503.312 167.374C504.197 172.635 506.649 177.194 509.195 181.262C514.919 189.841 523.187 196.331 527.246 206.206C528.256 208.667 528.526 211.21 528.444 213.769C528.18 221.395 525.714 229.249 527.276 236.804C531.144 253.889 545.651 266.077 553.52 280.967C556.514 286.563 558.7 292.634 558.19 299.637C557.723 304.375 556.308 308.288 554.592 311.858C549.256 321.562 540.066 328.52 534.587 339.069C530.32 346.859 531.061 354.958 528.971 362.698C528.161 365.267 526.981 367.85 524.747 370.241C520.228 375.311 512.46 378.321 506.973 382.785C504.01 385.198 501.701 388.011 500.022 391.37C497.494 397.48 498.106 404.287 499.435 411.143C500.227 416.895 501.722 422.771 500.781 428.109C500.094 432.005 498.025 435.549 493.502 438.624C488.188 442.073 484.235 439.854 480.457 436.614C475.08 432.228 470.309 426.427 465.197 424.619C460.416 422.949 454.833 423.843 448.438 431.367C444.864 435.225 443.374 439.53 442.946 444.046C441.706 453.137 444.648 463.141 443.39 472.295C442.53 477.176 440.91 482.249 438.23 487.171C434.833 494.136 430.362 501.026 424.621 506.895C417.035 515 407.377 520.541 398.06 524.039C395.364 524.978 392.988 526.148 389.984 526.742C389.978 526.777 389.583 526.961 389.539 527.207C389.49 527.488 389.81 527.726 390.168 527.753Z" fill="white"/>
<path fill-rule="evenodd" clip-rule="evenodd" d="M324.55 270.007C324.55 269.62 325.632 270.478 327.357 271.195C327.851 271.407 327.826 271.704 328.076 272.267C328.566 273.493 329.306 274.746 329.796 276.179C331.766 281.077 332.751 287.17 333.245 293.263C333.981 302.551 333 311.866 329.547 318.113C327.826 321.276 325.117 323.962 322.162 326.143C320.192 327.576 317.973 328.86 316.003 329.874C313.788 330.893 311.569 331.61 309.599 332.3C308.369 332.804 307.384 332.204 306.889 330.951C306.399 329.699 306.889 328.292 308.12 327.815C309.844 326.711 311.818 325.4 313.788 324.084C315.508 322.889 317.233 321.695 318.962 320.257C321.177 318.468 323.151 316.409 324.381 313.93C326.351 309.897 327.087 304.191 327.087 298.247C327.087 291.114 325.856 283.678 324.381 277.643C324.132 276.03 323.151 274.539 323.392 273.106C324.628 271.42 322.902 273.673 324.622 271.609C324.622 271.402 324.622 271.136 324.872 271.041C325.117 270.924 325.362 270.983 325.362 271.195C326.351 270.834 324.796 270.22 324.55 270.007Z" fill="white"/>
<path fill-rule="evenodd" clip-rule="evenodd" d="M139.375 598.525C139.295 598.568 139.18 598.62 139.024 598.675C138.327 598.975 137.375 599.9 135.356 600.238C130.528 601.025 122.454 599.402 119.436 599.308C118.154 599.259 117.134 598.183 117.188 596.894C117.186 595.575 118.256 594.555 119.586 594.6C122.601 594.659 130.875 593.935 135.603 595.283C137.578 595.875 138.431 596.881 139.106 597.223C139.225 597.296 139.315 597.365 139.405 597.435L139.559 597.422C139.716 597.372 139.953 597.835 139.636 598.299C139.569 598.424 139.458 598.518 139.375 598.525Z" fill="white"/>
<path fill-rule="evenodd" clip-rule="evenodd" d="M268.135 343.891C267.94 342.398 268.693 342.972 267.862 341.802C267.479 341.444 266.804 341.466 266.447 341.309C259.381 338.889 252.301 336.406 245.017 334.891C236.344 333.12 227.84 332.646 219.277 334.298C209.755 336.321 200.917 341.051 193.271 347.15C182.26 355.878 172.649 367.603 164.56 378.073C156.22 389.194 149.01 401.206 143.213 413.645C134.477 432.078 127.563 451.545 120.299 470.86C113.336 490.003 104.636 508.66 97.3188 527.61C95.2448 532.404 93.5059 537.192 91.7813 542.043C86.3326 557.203 79.5481 572.471 74.8485 588.175C71.8337 598.768 69.5338 609.599 68.2723 620.57C68.3848 621.431 68.8323 622.285 69.8639 622.42C70.8859 622.527 71.4832 621.909 71.7003 620.998C73.0279 613.061 75.3859 605.295 77.7635 597.586C78.9837 594.019 80.2077 590.481 81.4377 586.942C86.6456 572.558 92.5502 558.317 97.8064 544.256L127.029 473.323C133.998 454.281 140.937 435.045 149.713 416.882C155.578 404.908 162.512 393.401 170.574 382.73C178.383 372.728 187.388 361.556 198.117 353.201C204.842 347.865 212.401 343.674 220.941 341.851C226.838 340.505 232.924 340.52 239.078 341.103C247.62 341.913 256.319 343.879 264.357 345.974C265.053 346.117 265.448 346.569 266.101 346.418C267.406 346.08 266.706 345.865 267.93 344.895C267.948 345.031 268.26 344.852 268.562 344.543C268.527 344.277 268.484 343.947 268.135 343.891Z" fill="white"/>
<path fill-rule="evenodd" clip-rule="evenodd" d="M71.2102 629.022C71.5237 630.547 71.7044 631.336 72.5966 632.511C73.0427 633.099 73.4456 633.629 74.1354 633.987C79.6185 638.445 85.8376 642.209 92.4951 645.439C104.397 651.702 117.515 656.249 129.531 660.447C157.986 670.241 186.402 675.575 214.939 678.285C232.162 679.925 249.545 680.683 267.061 680.496C275.288 680.263 283.215 680.177 291.462 679.421C294.998 679.089 298.428 678.629 301.903 678.218C303.167 678.229 304.333 677 304.181 675.689C304.313 674.199 303.116 673.173 301.563 673.351C298.501 673.196 295.402 672.979 292.362 672.852C285.093 672.693 277.707 672.922 270.521 672.872C246.111 672.825 222.309 671.935 198.49 668.789C176.383 665.694 154.246 660.896 131.824 653.499C122.083 650.085 111.635 646.289 101.294 642.084C92.1323 638.32 84.3594 631.948 75.5562 628.666C74.2772 628.083 73.2928 628.449 71.866 628.233C71.4388 628.221 71.338 628.088 71.1122 628.342C70.8864 628.595 71.0483 628.809 71.2102 629.022Z" fill="white"/>
<path fill-rule="evenodd" clip-rule="evenodd" d="M252.619 740.36C252.514 739.157 253.198 739.401 252.768 738.233C252.298 736.691 250.545 735.901 249.433 734.726C242.793 727.979 237.454 720.682 232.421 713.125C227.044 705.462 221.659 697.703 215.962 690.133C212.567 685.927 209.188 681.856 205.807 677.816C197.929 668.454 189.416 659.422 181.862 649.87C172.466 638.593 164.014 626.492 155.268 614.858C152.274 611.358 149.609 607.792 146.638 604.553C145.17 603.14 143.723 601.953 142.596 600.606C141.885 600.131 141.204 600.059 140.901 600.42C140.258 600.846 140.319 601.546 140.703 602.05C141.542 603.923 142.716 605.803 143.552 607.647C148.201 614.772 153.166 621.558 157.806 628.516C163.614 637.283 170.068 645.79 176.516 654.095L210.303 694.593C214.838 700.348 218.717 706.327 222.923 712.141C227.152 718.155 231.692 724.041 236.55 729.534C240.61 733.748 244.664 737.831 249.344 741.351C249.356 741.488 249.705 741.654 249.708 741.69C251.07 741.905 250.692 741.472 252.011 741.118C252.028 741.319 252.36 741.29 252.68 741.059C252.995 740.829 252.969 740.532 252.619 740.36Z" fill="white"/>
<path fill-rule="evenodd" clip-rule="evenodd" d="M148.006 612.962C149.332 612.244 149.437 612.837 150.404 611.698C151.09 610.667 150.835 609.22 151.197 607.958C153.267 599.915 156.564 592.232 160.175 584.66C163.754 576.933 167.348 569.295 170.668 561.682C176.45 548.307 182.547 535.05 188.683 522.01C192.749 513.736 196.845 505.658 200.934 497.484C202.647 494.008 204.348 490.465 206.06 486.984C207.547 483.87 209.326 480.769 210.808 477.622C213.168 472.863 215.23 468.058 217.585 463.3C217.816 462.936 217.437 462.456 217.105 462.186C216.764 461.924 216.478 461.974 216.258 462.336C212.72 467.014 209.446 471.543 206.228 476.39C201.401 483.658 197.206 491.206 193.034 498.877C182.449 518.018 173.466 538.01 164.51 558.125C159.36 570.156 153.03 582.095 149.178 594.865C147.467 599.993 144.326 605.282 145.544 610.574C146.091 612.004 146.315 611.607 147.385 612.749C147.143 613.016 147.473 613.252 147.765 613.264C147.782 613.359 148.045 613.18 148.006 612.962Z" fill="white"/>
<path fill-rule="evenodd" clip-rule="evenodd" d="M394.607 257.101C392.263 257.13 393.601 255.964 391.59 257.166C390.924 257.636 390.924 258.772 390.585 259.611C385.564 270.689 382.886 282.309 382.559 294.024C382.559 299.247 382.886 304.537 383.564 309.76C384.897 317.358 387.241 324.825 390.258 332.22C390.924 333.731 392.263 334.57 393.941 334.029C395.273 333.529 396.279 331.923 395.612 330.417C393.941 324.355 393.262 318.298 392.263 312.271C391.59 306.208 391.263 300.187 391.263 294.161C391.263 283.344 392.935 272.635 396.612 261.985C396.612 261.182 397.284 260.414 397.284 259.546C396.951 257.333 396.951 259.207 395.273 257.499C395.612 257.267 395.273 256.964 395.273 256.863C394.94 256.761 394.607 256.863 394.607 257.101Z" fill="white"/>
<path fill-rule="evenodd" clip-rule="evenodd" d="M570.547 575.048C570.636 575.086 570.762 575.131 570.933 575.175C571.698 575.428 572.792 576.319 574.961 576.49C580.146 576.876 588.543 574.41 591.73 574.03C593.083 573.86 594.064 572.627 593.886 571.267C593.766 569.87 592.54 568.89 591.136 569.06C587.949 569.402 579.122 569.402 574.24 571.267C572.204 572.077 571.395 573.221 570.712 573.645C570.592 573.733 570.503 573.815 570.415 573.898H570.25C570.079 573.86 569.871 574.372 570.25 574.833C570.332 574.96 570.459 575.048 570.547 575.048Z" fill="white"/>
<path fill-rule="evenodd" clip-rule="evenodd" d="M430.51 331.321C430.697 329.733 429.905 330.352 430.772 329.098C431.174 328.713 431.891 328.727 432.268 328.555C439.745 325.888 447.998 324.776 455.718 323.068C465.504 321.198 473.265 321.545 482.387 323.184C492.534 325.206 501.905 327.394 510.113 333.772C521.932 342.898 536.532 355.997 545.27 367.015C554.284 378.721 558.385 387.488 564.715 400.629C574.247 420.1 581.355 443.825 589.336 464.253C596.994 484.503 606.492 504.212 614.525 524.251C616.794 529.318 618.707 534.382 620.605 539.514C626.601 555.551 634.017 571.685 639.224 588.31C642.572 599.528 645.162 611.006 646.651 622.648C646.543 623.565 646.079 624.478 644.985 624.636C643.9 624.763 643.257 624.114 643.014 623.15C641.496 614.732 638.885 606.511 636.254 598.351C634.909 594.577 633.56 590.834 632.205 587.09C626.476 571.874 620.008 556.819 614.232 541.948L582.217 466.962C574.553 446.82 565.159 421.106 555.586 401.923C549.696 387.421 545.696 381.612 536.983 370.381C528.55 359.857 527.465 359.025 515.95 350.292C508.73 344.712 504.074 339.976 494.487 335.875C488.203 334.524 476.37 331.539 468.921 330.662C458.99 329.494 443.067 331.15 434.553 333.484C433.815 333.646 433.401 334.132 432.706 333.98C431.314 333.638 432.055 333.4 430.741 332.386C430.724 332.531 430.39 332.345 430.065 332.02C430.098 331.738 430.14 331.386 430.51 331.321Z" fill="white"/>
<path fill-rule="evenodd" clip-rule="evenodd" d="M644.121 628.796C643.839 630.426 643.674 631.271 642.765 632.549C642.311 633.188 641.901 633.765 641.18 634.168C635.505 639.087 629.025 643.295 622.061 646.949C609.627 654 595.844 659.271 583.221 664.132C553.323 675.49 523.316 682.108 493.092 685.943C474.851 688.263 456.412 689.651 437.799 690.039C429.052 690.068 420.628 690.241 411.842 689.714C408.075 689.481 404.415 689.107 400.71 688.786C399.368 688.841 398.088 687.575 398.206 686.176C398.016 684.599 399.253 683.469 400.909 683.606C404.156 683.338 407.441 683.004 410.666 682.767C418.382 682.354 426.236 682.35 433.868 682.056C459.796 681.188 485.05 679.445 510.247 675.304C533.627 671.276 556.982 665.438 580.553 656.829C590.785 652.876 601.757 648.493 612.601 643.679C622.208 639.374 630.251 632.344 639.493 628.563C640.832 627.901 641.89 628.257 643.398 627.98C643.851 627.953 643.954 627.808 644.202 628.07C644.451 628.332 644.286 628.564 644.121 628.796Z" fill="white"/>
<path fill-rule="evenodd" clip-rule="evenodd" d="M481.617 731.933C481.617 730.649 480.915 730.972 481.263 729.694C481.617 728.019 483.4 727.02 484.469 725.673C490.874 717.914 495.851 709.694 500.479 701.227C505.462 692.615 510.445 683.901 515.775 675.359C518.981 670.591 522.181 665.969 525.387 661.378C532.861 650.736 541.037 640.385 548.15 629.572C557.053 616.761 564.882 603.166 573.064 590.039C575.909 586.056 578.401 582.034 581.246 578.329C582.669 576.697 584.092 575.306 585.16 573.776C585.868 573.207 586.583 573.068 586.937 573.422C587.658 573.814 587.658 574.56 587.297 575.129C586.583 577.19 585.514 579.29 584.8 581.319C580.538 589.293 575.909 596.938 571.641 604.734C566.304 614.554 560.259 624.159 554.202 633.549L522.181 679.557C517.912 686.07 514.359 692.76 510.445 699.305C506.524 706.064 502.262 712.716 497.628 718.983C493.72 723.82 489.806 728.518 485.177 732.679C485.177 732.824 484.823 733.033 484.823 733.071C483.4 733.425 483.761 732.932 482.332 732.679C482.332 732.894 481.978 732.894 481.617 732.679C481.263 732.464 481.263 732.148 481.617 731.933Z" fill="white"/>
<path fill-rule="evenodd" clip-rule="evenodd" d="M585.67 573.147C584.152 572.665 584.152 573.273 582.93 572.31C582.022 571.406 582.022 569.922 581.412 568.731C577.764 561.097 572.899 554.036 567.727 547.14C562.56 540.085 557.394 533.121 552.519 526.134C544.006 513.849 535.186 501.737 526.366 489.847C520.588 482.334 514.816 475.02 509.033 467.609C506.601 464.454 504.169 461.23 501.737 458.068C499.607 455.233 497.175 452.461 495.046 449.592C491.7 445.274 488.658 440.859 485.317 436.54C485.009 436.22 485.317 435.676 485.615 435.349C485.923 435.029 486.231 435.029 486.528 435.349C491.09 439.381 495.348 443.31 499.607 447.565C505.996 453.945 511.773 460.714 517.551 467.609C532.149 484.785 545.228 503.088 558.301 521.518C565.906 532.576 574.726 543.338 581.109 555.358C583.844 560.158 588.103 564.865 587.805 570.34C587.497 571.858 587.189 571.503 586.281 572.826C586.584 573.049 586.281 573.341 585.979 573.404C585.979 573.502 585.67 573.37 585.67 573.147Z" fill="white"/>
<path fill-rule="evenodd" clip-rule="evenodd" d="M360.886 435.604C361.946 434.469 362.822 433.725 363.813 432.473C365.775 429.932 367.359 427.033 369.117 424.298C375.246 414.776 381.433 405.453 387.189 395.792C391.18 389.117 394.963 382.398 398.308 375.593C404.058 364.015 409.272 351.962 411.969 340.14C412.521 337.792 413.213 335.271 413.063 333.271C413.017 332.505 412.78 332.368 412.561 331.821C412.992 329.825 412.179 328.603 410.731 329.017C409.283 329.431 407.719 331.436 407.247 333.408C406.747 334.204 406.4 334.424 405.967 335.246C404.908 337.389 404.305 339.528 403.549 341.681C399.78 352.566 395.711 362.945 390.754 373.399C387.289 380.71 383.697 387.871 379.923 395.181C374.198 406.263 368.264 417.314 362.537 428.484C361.983 429.503 361.344 430.55 360.934 431.64C360.456 432.945 360.362 433.797 360.015 435.101C359.766 435.532 359.78 435.96 360.017 436.097C360.254 436.234 360.637 436.034 360.886 435.604Z" fill="white"/>
<path fill-rule="evenodd" clip-rule="evenodd" d="M352.376 451.595C351.202 450.338 350.232 449.514 349.135 448.128C346.963 445.315 345.209 442.105 343.263 439.077C336.477 428.535 329.627 418.213 323.254 407.517C318.835 400.127 314.647 392.688 310.943 385.153C304.577 372.335 298.805 358.99 295.819 345.901C295.208 343.302 294.441 340.511 294.608 338.297C294.658 337.449 294.921 337.297 295.164 336.691C294.687 334.481 295.587 333.128 297.19 333.586C298.793 334.045 300.524 336.265 301.047 338.448C301.601 339.329 301.985 339.573 302.464 340.482C303.637 342.856 304.304 345.224 305.141 347.608C309.314 359.659 313.819 371.151 319.308 382.725C323.144 390.818 327.12 398.747 331.299 406.84C337.637 419.11 344.207 431.345 350.548 443.711C351.161 444.84 351.869 445.999 352.322 447.206C352.852 448.651 352.955 449.594 353.34 451.038C353.616 451.515 353.601 451.989 353.338 452.141C353.076 452.292 352.651 452.071 352.376 451.595Z" fill="white"/>
<path fill-rule="evenodd" clip-rule="evenodd" d="M492.252 483.745C492.513 482.923 492.828 482.323 492.974 481.475C493.232 479.77 493.007 478.044 493.004 476.327C493.001 470.348 493.145 464.431 492.774 458.518C492.53 454.428 492.097 450.39 491.273 446.462C489.918 439.759 487.894 433.04 483.992 427.255C483.229 426.101 482.491 424.829 481.349 424.052C480.921 423.751 480.663 423.774 480.209 423.621C479.531 422.652 478.261 422.419 477.324 423.073C476.386 423.727 476.171 425.078 476.804 426.05C476.814 426.546 476.651 426.753 476.727 427.237C476.983 428.476 477.597 429.561 478.099 430.702C480.671 436.457 482.747 442.104 484.157 448.077C485.144 452.254 485.955 456.411 486.696 460.691C487.818 467.18 488.758 473.726 489.923 480.253C490.004 480.859 490.032 481.504 490.264 482.091C490.552 482.79 490.913 483.173 491.304 483.828C491.326 484.089 491.556 484.262 491.814 484.239C492.072 484.217 492.274 484.006 492.252 483.745Z" fill="white"/>
<path fill-rule="evenodd" clip-rule="evenodd" d="M489.052 457.922C486.878 459.023 488.512 456.288 487.151 458.881V459.237C486.878 462.819 486.878 466.33 486.878 469.883C486.878 471.44 486.606 473.004 486.606 474.567C486.878 488.648 487.151 502.314 485.789 516.081C484.977 523.921 483.888 531.838 481.715 539.855C479.809 548.589 476.819 556.926 473.828 565.37C471.923 571.155 470.021 576.94 468.388 582.761C466.482 589.108 464.576 595.462 462.947 601.957C462.68 602.988 463.224 604.154 464.036 604.545C464.853 604.936 465.67 604.403 465.938 603.373C470.021 591.204 475.73 579.918 480.353 567.993C483.616 559.833 486.334 551.39 488.512 542.768C492.319 528.249 493.68 514.198 493.948 500.076C494.225 491.206 494.225 482.3 493.408 473.252C493.131 469.457 492.863 465.726 492.319 461.895C492.319 460.794 492.591 459.408 492.047 458.562C490.413 456.217 492.319 458.668 489.873 457.887C489.873 457.602 489.596 457.389 489.596 457.425C489.329 457.425 489.052 457.638 489.052 457.922Z" fill="white"/>
<path fill-rule="evenodd" clip-rule="evenodd" d="M206.416 492.756C206.17 491.958 205.887 491.387 205.738 490.554C205.47 488.876 205.606 487.134 205.556 485.421C205.377 479.455 205.076 473.565 205.208 467.634C205.289 463.532 205.53 459.465 206.104 455.475C207.04 448.67 208.538 441.789 211.646 435.677C212.252 434.459 212.835 433.125 213.772 432.251C214.122 431.913 214.34 431.913 214.718 431.721C215.259 430.696 216.32 430.352 217.129 430.923C217.937 431.494 218.16 432.822 217.656 433.848C217.663 434.343 217.807 434.535 217.757 435.025C217.58 436.283 217.096 437.419 216.709 438.602C214.72 444.568 213.145 450.382 212.14 456.465C211.437 460.718 210.882 464.936 210.388 469.271C209.642 475.843 209.05 482.456 208.269 489.068C208.219 489.68 208.215 490.327 208.037 490.933C207.817 491.655 207.524 492.069 207.216 492.756C207.204 493.019 207.016 493.211 206.798 493.211C206.581 493.211 206.404 493.019 206.416 492.756Z" fill="white"/>
<path fill-rule="evenodd" clip-rule="evenodd" d="M206.076 466.428C208.852 467.529 206.765 464.794 208.504 467.387V467.743C208.852 471.325 208.852 474.836 208.852 478.389C208.852 479.946 209.2 481.51 209.2 483.073C208.852 497.154 208.504 510.82 210.243 524.587C211.281 532.427 212.672 540.344 215.448 548.361C217.883 557.095 221.703 565.432 225.523 573.876C227.957 579.661 230.386 585.446 232.473 591.267C234.907 597.614 237.342 603.968 239.422 610.463C239.764 611.494 239.069 612.66 238.031 613.051C236.988 613.442 235.945 612.909 235.603 611.879C230.386 599.71 223.094 588.424 217.187 576.499C213.02 568.339 209.548 559.896 206.765 551.274C201.902 536.755 200.163 522.704 199.821 508.582C199.468 499.712 199.468 490.806 200.511 481.758C200.865 477.963 201.207 474.232 201.902 470.401C201.902 469.3 201.554 467.914 202.25 467.068C204.337 464.723 201.902 467.174 205.027 466.393C205.027 466.108 205.38 465.895 205.38 465.931C205.722 465.931 206.076 466.144 206.076 466.428Z" fill="white"/>
<path fill-rule="evenodd" clip-rule="evenodd" d="M373.689 233.382C373.633 233.544 373.593 233.713 373.569 233.891C373.519 234.245 372.918 234.48 372.609 234.682C368.906 237.362 364.339 238.768 359.667 239.154C356.696 239.362 353.647 239.142 350.661 238.575C346.225 237.557 342.046 235.72 338.489 233.474C338.214 233.316 338.052 233.027 338.206 232.732C338.343 232.429 338.726 232.263 339.014 232.429C342.558 233.897 346.688 234.55 350.883 234.853C352.534 235.036 354.221 235.048 355.894 235.049C360.94 234.882 365.785 233.829 370.064 231.289C370.418 231.11 370.712 230.701 371.141 230.757C373.044 230.894 372.14 230.564 371.843 230.776C371.672 230.869 371.649 231.242 372.477 231.912C372.604 231.793 372.732 231.867 372.835 231.927C372.867 232.137 372.911 232.162 372.784 232.281C374.406 235.339 374.262 230.824 373.689 233.382Z" fill="white"/>
<path d="M410.975 161.796C407.567 161.469 404.609 160.974 401.706 160.802C398.815 160.601 396.031 160.624 393.204 160.849C390.374 161.087 387.499 161.502 384.477 162.005C381.444 162.493 378.298 163.135 374.792 163.363L374.777 163.365C374.254 163.395 373.852 162.895 373.885 162.247C373.901 161.955 374.006 161.68 374.166 161.462C376.7 157.978 379.777 155.409 383.106 153.478C386.434 151.572 390.065 150.374 393.702 150.136C400.97 149.588 408.24 152.93 411.989 159.913C412.259 160.423 412.12 161.157 411.676 161.553C411.465 161.739 411.221 161.821 410.998 161.802L410.975 161.796Z" fill="white"/>
<path d="M296.001 161.222C299.414 160.955 302.381 160.511 305.287 160.39C308.18 160.24 310.964 160.311 313.786 160.587C316.612 160.874 319.479 161.339 322.492 161.895C325.516 162.436 328.65 163.133 332.152 163.422L332.167 163.425C332.689 163.463 333.1 162.97 333.078 162.323C333.068 162.03 332.967 161.753 332.811 161.533C330.338 158.005 327.307 155.382 324.012 153.393C320.718 151.429 317.108 150.167 313.476 149.866C306.218 149.191 298.891 152.406 295.021 159.322C294.742 159.827 294.868 160.563 295.305 160.967C295.512 161.156 295.755 161.243 295.978 161.228L296.001 161.222Z" fill="white"/>
<path d="M675.981 825.154C646.962 840.317 613.183 840.668 580.943 840.348C557.791 840.094 534.721 838.558 511.779 835.423C476.713 832.33 441.154 826.318 406.017 831.039C370.455 835.657 337.722 850.689 304.491 862.913C274.058 874.327 242.748 883.693 210.349 888.248C191.946 890.906 173.18 890.151 154.739 888.151C150.6 887.648 146.529 886.775 142.542 885.584C140.569 884.906 128.953 881.696 120.455 878.394C112.947 875.463 107.873 872.458 114.107 871.045C117.127 872.122 120.186 873.122 123.244 874.035C163.225 886.022 206.167 884.661 246.116 872.866C303.435 859.996 354.847 827.343 414.087 821.831C448.149 819.039 482.339 824.647 516.217 827.808C543.044 831.457 570.075 832.43 597.12 832.336C623.159 831.932 649.99 830.258 673.166 817.69C693.776 804.95 711.998 784.27 711.088 759.334C709.839 758.691 708.4 757.961 707.185 757.086C705.047 755.509 703.648 753.463 705.417 750.587C706.612 748.54 708.383 747.869 710.286 748.006C711.183 748.062 712.096 748.31 713.005 748.671C713.138 748.726 713.262 748.78 713.403 748.846C715.632 749.814 717.743 751.46 719.059 752.972C726.008 782.663 700.486 810.501 675.981 825.154Z" fill="white"/>
<path d="M658.16 750.916C652.96 753.477 639.179 752.861 633.405 753.456C616.974 754.475 600.531 755.337 584.074 756.056C509.673 759.306 435.051 759.75 360.285 760.002C360.361 759.995 360.457 759.998 360.553 759.99C360.249 760.001 359.93 760.013 359.627 760.013L359.741 760.017C334.193 760.938 308.647 761.891 283.102 762.746C283.011 762.754 282.915 762.751 282.822 762.748L282.972 762.753C282.389 762.776 281.805 762.789 281.222 762.802C280.546 762.812 279.884 762.843 279.208 762.864C201.061 766.801 122.548 765.628 43.9711 765.239C34.0196 765.897 23.4026 765.173 13.7229 766.714C12.5328 766.893 11.3603 767.107 10.2033 767.365C13.2735 775.276 11.3577 783.323 12.7708 791.287C22.8483 791.319 8.90555 799.686 6.77351 791.277C6.71486 789.728 6.25378 787.865 5.59238 785.819L5.59273 785.809C2.82241 777.343 -3.34082 765.942 2.3015 762.126C2.74173 761.921 3.16269 761.714 3.62025 761.531C4.5367 761.12 5.49048 760.756 6.46073 760.415C8.3833 759.707 10.3975 759.114 12.4841 758.602C31.3537 753.944 56.3258 756.02 75.8753 754.492C101.183 755.034 126.466 755.176 151.723 755.019C164.191 754.946 176.625 754.805 189.078 754.598C222.62 754.057 256.121 753.093 289.609 751.974C292.809 751.865 295.991 751.755 299.19 751.667C300.168 751.636 301.148 751.603 302.126 751.572C316.245 751.125 330.376 750.778 344.511 750.387C396.15 749.051 447.995 750.354 499.744 750.193C504.2 750.171 508.676 750.151 513.133 750.107C512.853 750.119 512.588 750.134 512.323 750.146C512.889 750.121 513.472 750.109 514.037 750.095C526.27 749.727 538.481 748.97 550.752 748.614C550.639 748.61 550.527 748.618 550.413 748.614C567.634 748.121 584.636 746.403 601.87 745.987C619.741 746.313 638.233 743.312 655.775 744.389C656.47 744.435 657.165 744.481 657.857 744.528C661.189 747.705 660.669 749.678 658.16 750.916Z" fill="white"/>
<path d="M158.214 742.041H561.862C575.418 742.041 586.839 732.452 588.432 719.724L620.847 479.314C622.735 464.267 610.303 451.041 594.27 451.041H125.8C109.773 451.041 97.3399 464.267 99.2274 479.314L131.637 719.724C133.234 732.452 144.65 742.041 158.214 742.041Z" fill="white"/>
</svg>
