<svg width="722" height="1000" viewBox="0 0 722 1000" fill="none" xmlns="http://www.w3.org/2000/svg">
<path fill-rule="evenodd" clip-rule="evenodd" d="M386.822 200.947C386.202 201.558 385.677 202.291 385.303 203.166C384.555 204.939 384.555 207.037 384.342 208.505C384.214 213.006 383.873 217.51 383.778 222.033C383.75 223.97 383.717 225.904 383.812 227.838C384.062 232.159 384.716 236.415 385.241 240.754C385.241 240.857 385.393 240.959 385.549 240.959C385.705 240.959 385.861 240.879 385.861 240.754C386.33 237.517 386.945 234.316 387.352 231.097C387.664 228.959 387.906 226.82 388.034 224.662C388.346 219.261 388.157 213.903 388.128 208.524C387.972 207.304 387.754 205.631 387.57 204.045C387.48 202.964 387.291 201.983 387.537 201.148C387.631 201.009 387.537 200.866 387.352 200.822C387.13 200.764 386.921 200.822 386.822 200.947Z" fill="white"/>
<path fill-rule="evenodd" clip-rule="evenodd" d="M295.86 192.432C295.689 195.223 295.517 197.963 295.997 200.685L298.116 212.702C299.883 222.721 303.546 232.305 306.598 242.098C309.379 250.435 312.828 258.806 317.495 266.608C320.404 271.914 323.929 276.961 329.31 281.377C336.472 288.385 347.13 296.59 359.205 301.683C367.113 305.407 376.682 307.479 385.777 306.779C389.665 306.447 392.798 305.592 395.878 304.397C399.567 302.894 403.764 300.6 407.359 298.563C417.536 292.851 426.074 285.28 433.119 276.714C439.539 268.36 444.49 259.109 448.173 250.137C450.147 242.668 452.079 235.004 453.373 227.352C454.654 219.752 455.298 212.169 455.282 204.647C455.214 204.26 455.153 203.917 454.501 203.932C453.856 203.995 453.264 204.352 453.333 204.743C452.656 212.136 451.35 219.633 449.384 227.151C447.401 234.572 444.749 241.914 441.42 249.173C438.297 257.597 433.258 266.308 427.405 274.164C420.901 282.078 413.606 289.184 404.03 294.632C400.435 296.624 396.865 298.758 393.182 300.254C390.712 301.195 388.842 301.777 386.242 301.983C377.806 302.618 369.56 300.66 362.396 297.361C351.002 292.451 341.692 284.412 334.603 277.783C329.926 273.642 326.463 268.989 322.987 264.186C318.38 256.721 314.974 248.596 312.229 240.505C309.8 234.16 307.365 227.822 305.564 221.366C304.233 217.538 302.903 213.709 302.199 209.72C300.511 203.901 298.202 198.242 297.147 192.255C297.105 192.016 296.419 191.884 296.419 191.884C295.783 191.996 295.818 192.192 295.86 192.432Z" fill="white"/>
<path fill-rule="evenodd" clip-rule="evenodd" d="M356.457 40.0218C353.508 40.3355 350.59 40.4372 347.616 40.8915C344.637 41.3389 341.959 42.1716 338.93 42.9062C333.228 44.4382 327.799 46.4835 322.227 49.3373C303.048 59.5364 290.776 73.6964 282.782 90.2842C274.988 105.777 271.509 123.451 268.679 141.559C264.911 167.036 263.476 193.643 255.349 217.155C251.993 227.933 245.8 236.398 238.682 243.909C220.799 263.236 196.332 276.696 183.035 300.782C179.163 308.388 176.251 316.677 175.129 325.094C173.983 333.652 174.971 342.405 178.21 350.727C182.151 361.233 189.313 369.915 192.927 380.188C194.405 384.14 195.118 388.32 195.01 393.043C195.002 397.168 194.222 401.592 193.454 405.945C192.352 410.173 190.907 414.256 188.832 417.805C182.206 428.689 170.855 439.652 165.788 452.008C162.082 460.694 161.52 470.05 167.318 480.267C168.717 482.61 170.153 484.748 171.96 486.801C174.332 489.756 177.107 492.523 179.899 495.19C182.685 497.82 185.497 500.376 188.326 502.832C192.741 506.505 197.199 509.973 201.676 513.294C202.002 513.533 202.366 513.488 202.78 513.235C202.829 512.954 202.897 512.567 202.565 512.363C198.766 509.307 195.339 506.165 191.923 502.923C188.508 499.711 185.105 496.434 182.078 493.043C179.304 490.307 176.888 487.597 174.521 484.576C173.054 482.65 171.957 480.65 170.897 478.469C166.338 469.413 167.017 461.419 170.494 454.033C175.874 442.023 187.164 431.339 193.408 420.599C195.915 416.625 197.812 412.036 199.011 407.287C199.847 402.547 200.695 397.737 200.766 393.224C201.004 387.763 200.057 382.889 198.345 378.207C195.089 367.931 187.969 359.039 184.405 348.448C181.713 341.135 181.244 333.519 182.192 326.086C183.51 318.609 186.254 311.27 189.959 304.649C203.473 281.392 227.735 269.057 245.834 250.559C253.84 242.124 260.607 232.491 264.902 220.434C273.14 196.326 275.397 169.175 279.263 143.1C281.576 125.873 284.874 109.26 291.496 94.2795C297.872 78.6449 307.924 64.74 325.005 54.1044C327.863 52.2884 331.023 50.7794 334.15 49.4882C338.477 47.5324 343.048 46.2725 347.67 44.6647C350.761 43.5787 353.537 42.1893 356.653 40.9626C357.018 40.9181 357.067 40.6369 357.111 40.3908C357.154 40.1447 356.827 39.9783 356.457 40.0218Z" fill="white"/>
<path fill-rule="evenodd" clip-rule="evenodd" d="M204.21 493.432C203.687 492.289 203.842 491.41 202.947 490.316C201.364 486.992 198.571 484.366 196.267 480.988C190.937 472.224 190.972 463.767 193.513 455.557C196.288 448.012 201.543 440.788 207.136 433.703C216.372 422.367 227.322 411.593 233.349 402.083C235.967 397.512 238.228 392.879 239.082 388.033C239.949 383.117 240.125 378.043 238.537 372.658C237.435 368.628 233.632 363.505 232.334 358.569C231.934 356.759 232.243 355.007 232.892 353.345C235.368 349.583 238.935 347.82 243.063 346.989C253.192 344.981 266.034 348.146 274.672 344.346C279.349 342.422 282.695 339.895 285.719 337.099C292.312 330.511 295.265 321.951 303.055 314.74C305.66 312.305 308.518 310.453 311.682 308.951C314.046 307.882 316.366 307.022 318.699 306.092C324.535 303.829 330.348 301.634 335.846 299.196C337 298.855 337.549 297.762 337.001 296.759C336.816 295.784 335.817 295.282 334.664 295.622C328.95 297.261 322.991 298.198 316.876 300.019C315.353 300.47 314.149 301.127 312.594 301.723C307.51 303.835 303.035 306.665 299.085 310.566C291.598 318.151 288.613 326.856 282.323 333.782C279.705 336.292 276.773 338.567 273.182 340.429C264.537 344.299 251.992 341.543 242.201 343.689C237.302 344.783 232.921 347.013 230.297 351.655C228.802 353.965 228.357 356.491 228.96 359.237C229.523 364.266 232.894 369.784 233.607 373.928C234.622 378.45 234.588 382.752 233.507 386.796C232.423 390.919 230.633 394.904 228.138 398.778C221.822 407.941 210.964 418.157 201.76 429.312C195.678 437.078 190.257 445.245 187.692 453.625C184.879 463.447 185.273 473.509 192.546 483.588C194.856 486.931 197.562 490.091 200.312 492.962C200.293 493.068 200.608 493.304 200.595 493.375C201.588 493.912 202.322 493.86 203.371 494.081C203.685 494.318 204.055 494.311 204.092 494.1L204.21 493.432Z" fill="white"/>
<path fill-rule="evenodd" clip-rule="evenodd" d="M311.88 259.814C311.148 259.575 310.691 259.493 309.845 259.73C308.737 259.976 307.785 261.061 306.713 262.063C303.812 264.906 301.081 269.314 299.485 271.321C298.366 272.856 297.015 274.262 295.562 275.618C291.961 279.069 287.725 282.117 284.243 285.225C279.323 289.815 270.823 293.106 262.283 297.269C253.882 301.38 245.388 306.118 239.184 311.874C232.658 317.968 228.567 325.228 229.46 334.283C230.122 342.021 235.299 346.808 238.044 353.072C239.017 355.312 239.604 357.78 239.39 360.717C238.559 368.121 229.565 371.215 224.608 376.971C222.263 379.688 220.692 382.888 220.774 387.168C220.93 396.412 226.323 401.08 233.148 404.355C239.088 407.188 246.207 408.864 251.133 412.633C254.899 415.485 257.366 419.546 257.016 426.641C256.93 427.221 257.361 427.79 257.983 427.854C258.557 427.892 259.114 427.465 259.186 426.847C260.461 418.461 257.849 413.259 253.617 409.61C248.635 405.341 241.261 403.341 234.991 400.41C229.445 397.81 224.705 394.518 224.255 387.006C224.036 383.712 225.188 381.102 226.971 378.935C232.06 372.62 241.283 368.886 242.024 361.007C242.469 357.552 241.885 354.656 240.934 351.899C238.798 346.003 234.313 341.247 234.347 334.106C234.487 327.013 238.601 321.957 244.127 317.608C250.301 312.804 258.491 309.161 266.273 305.366C275.627 300.73 284.333 295.861 289.48 290.51C292.618 287.063 296.618 283.626 299.954 279.894C301.496 278.117 302.957 276.325 304.113 274.401L312.149 260.864C312.464 260.789 312.601 260.477 312.523 260.169C312.469 259.891 312.142 259.715 311.88 259.814Z" fill="white"/>
<path fill-rule="evenodd" clip-rule="evenodd" d="M354.023 108.569C353.702 108.784 349.436 110.713 348.014 110.908C346.806 111.1 345.376 111.549 343.958 111.951C340.809 112.862 337.705 114.083 336.887 114.541C329.267 118.989 321.017 124.251 314.183 130.785C309.349 135.321 305.285 140.519 302.442 146.323C299.225 153.255 295.613 163.062 293.362 172.608C291.79 179.419 290.908 186.106 291.261 191.524C291.902 200.866 295.648 210.788 296.009 220.447C296.231 226.023 295.203 231.525 291.252 236.677C287.021 242.233 280.724 244.386 274.1 245.963C266.72 247.729 258.951 248.758 252.415 251.668C248.614 253.348 245.245 255.648 242.524 258.978C239.934 262.148 238.977 265.914 238.825 269.928C238.659 274.863 239.779 280.097 238.596 284.368C237.881 287.002 236.181 289.197 232.606 290.709L224.375 292.79C223.735 292.976 223.335 293.624 223.492 294.312C223.631 294.951 224.259 295.348 224.937 295.176L233.59 293.624C238.629 292.019 241.012 289.067 242.294 285.545C243.684 281.725 243.525 277.097 243.689 272.499C243.796 268.843 244.081 265.252 246.531 262.449C251.04 257.251 257.635 255.5 264.516 254.103C272.003 252.627 279.856 251.584 286.475 248.448C290.194 246.657 293.533 244.222 296.295 240.782C300.156 235.891 301.984 230.768 302.615 225.54C303.982 214.159 299.135 202.111 298.571 190.952C298.282 186.146 299.229 180.282 300.676 174.301C302.84 165.311 306.273 156.114 309.341 149.591C311.609 144.496 314.994 139.895 318.928 135.707C325.101 129.182 332.526 123.613 339.466 118.925C340.521 118.134 350.525 114.121 353.444 111.951C354.952 110.818 357.676 109.379 358.486 108.569C360.717 106.338 358.486 106.338 358.486 106.338C358.256 106.167 354.193 108.337 354.023 108.569Z" fill="white"/>
<path fill-rule="evenodd" clip-rule="evenodd" d="M469.888 205.992C469.918 209.284 471.175 212.26 473.203 215.011C475.946 218.781 480.122 221.752 483.231 224.608C495.503 235.085 511.298 237.465 524.509 244.906C529.485 247.729 534.094 251.26 537.855 256.623C539.079 258.386 540.082 260.061 540.912 261.832C541.723 263.637 542.34 265.485 542.936 267.62C544.615 273.958 544.293 278.976 542.786 283.374C538.315 296.088 524.994 303.798 519.515 318.286C516.972 325.136 518.329 330.77 521.619 335.851C527.737 345.285 541.84 352.23 543.148 363.45C543.753 368.547 542.234 372.78 539.626 376.537C537.115 380.19 533.633 383.388 530.117 386.743C524.671 391.867 519.085 397.129 515.683 403.301C515.413 403.701 515.558 404.252 515.95 404.526C516.357 404.755 516.907 404.653 517.135 404.246C521.053 398.611 527.126 394.287 532.682 389.673C536.715 386.366 540.369 382.872 543.162 379.027C546.522 374.466 548.442 369.295 547.893 362.988C546.798 351.038 532.651 342.943 526.446 332.805C524.245 329.215 523.321 325.24 525.248 320.511C531.092 306.009 544.702 298.513 549.463 285.766C551.535 280.253 552.135 273.864 550.108 265.762C549.476 263.179 548.688 260.932 547.747 258.736C546.792 256.544 545.612 254.463 544.098 252.257C539.589 245.861 534.161 241.461 528.152 238.293C514.982 231.306 499.069 230.24 486.499 220.605C483.219 218.239 479.172 215.664 475.856 212.645C473.69 210.638 471.784 208.598 470.969 205.82C470.942 205.532 470.653 205.318 470.37 205.346C470.074 205.415 469.861 205.667 469.888 205.992Z" fill="white"/>
<path fill-rule="evenodd" clip-rule="evenodd" d="M471.436 413.924C469.873 414.294 468.419 414.932 467.088 416.039C464.565 418.149 462.818 421.653 461.471 425.385C458.721 433.134 458.378 442.65 458.957 447.899C459.072 448.856 459.919 449.567 460.87 449.451C461.814 449.375 462.538 448.488 462.428 447.538C462.027 443.371 462.635 436.465 464.184 430.008C465.168 425.795 466.743 421.898 468.703 418.837C469.703 417.309 470.566 415.879 471.91 414.901C472.18 414.743 472.316 414.447 472.159 414.178C472.049 413.911 471.705 413.771 471.436 413.924Z" fill="white"/>
<path fill-rule="evenodd" clip-rule="evenodd" d="M366.076 95.4285L366.749 95.6921C367.087 95.8606 366.994 96.3879 367.284 96.7653C369.743 101.325 372.361 104.94 375.482 107.768C383.656 114.822 394.062 117.376 404.892 119.618C416.778 122.034 429.071 124.201 438.56 129.898C445.134 133.661 450.725 138.924 454.779 146.732C457.736 152.575 458.559 158.188 458.662 163.74C459.023 176.044 453.685 187.85 455.38 200.817C455.883 204.132 456.813 207.045 458.508 209.802C465.322 222.483 480.091 231.098 482.869 246.141C483.539 250.567 483.487 254.974 482.731 259.257C480.05 274.462 468.845 288.707 470.025 304.629C471.341 321.801 481.448 334.27 485.3 349.394C487.018 356.101 487.556 363.295 485.762 371.412C484.444 376.865 482.128 381.742 479.509 386.349C474.001 394.972 466.545 402.381 459.421 409.927C453.056 417.275 447.037 424.72 445.372 434.165C444.195 440.838 445.278 446.998 447.487 452.97C452.77 468.165 464.088 482.032 465.212 498.234C466.076 507.69 464.75 515.207 462.464 522.006C460.604 526.42 458.418 530.596 455.88 534.746C452.398 540.107 448.199 545.45 443.84 551.671C443.345 552.454 442.217 552.684 441.576 552.208C440.59 551.636 440.417 550.56 440.917 549.778C444.956 543.319 448.488 537.641 451.631 532.118C453.774 528.188 455.899 524.358 457.358 520.199C459.532 514.033 460.376 507.192 459.697 498.711C458.48 483.001 446.706 469.736 441.336 454.997C438.941 448.092 437.675 440.879 439.056 433.051C440.028 427.537 441.993 422.525 444.988 417.876C455.053 401.841 474.541 389.89 479.15 369.92C480.733 362.961 480.01 356.786 478.853 351.079C475.063 335.603 464.665 322.69 463.425 305.09C462.337 288.647 473.635 273.874 476.403 258.178C477.028 254.633 476.95 251 476.503 247.369C473.6 232.992 459.411 225.168 452.497 213.056C450.575 209.6 449.066 205.86 448.711 201.671C447.053 188.493 452.083 176.415 451.752 163.899C451.471 159.325 450.833 154.759 448.417 149.99C441.351 136.685 429.059 132.458 416.169 129.569C401.193 126.239 385.538 124.675 373.977 116.299C368.871 112.433 364.384 107.08 361.336 99.7339C361.429 99.2066 360.448 98.5988 360.905 98.0631L361.029 97.36C361.374 97.463 362.121 97.2988 363.33 96.648C363.015 96.3751 363.065 96.0938 363.441 96.0152C363.818 95.9365 363.805 96.0069 364.114 96.2787C370.173 94.7735 361.05 93.1287 366.076 95.4285Z" fill="white"/>
<path fill-rule="evenodd" clip-rule="evenodd" d="M418.131 556.712C420.925 557.277 423.744 557.738 427.045 557.486C438.105 556.361 448.449 549.026 457.54 540.601C463.707 534.372 469.344 527.041 472.878 519.333C475.681 513.713 477.431 507.866 478.409 502.317C479.674 493.091 476.028 483 477.28 473.808C477.511 470.478 478.796 467.303 481.123 464.348C485.216 459.639 487.981 458.278 491.065 459.293C495.856 460.863 499.992 466.153 504.394 469.938C510.405 474.87 516.77 477.763 524.582 472.483C530.742 468.349 533.78 463.454 534.708 458.192C535.773 452.151 534.396 445.571 533.37 439.059C532.547 433.482 531.718 427.905 534.034 422.991C535.184 420.547 536.967 418.657 539.078 416.927C544.972 412.281 553.142 409.052 557.704 403.736C560.796 400.554 562.476 397.159 563.46 393.671C565.814 386.486 564.992 378.814 568.816 371.483C574.646 361.033 583.817 354.216 589.497 344.579C591.733 340.085 593.686 335.18 594.023 329.155C594.467 320.474 592.516 313.067 588.672 306.125C581.409 291.879 567.154 280.352 563.506 264.037C562.19 257.178 564.545 249.957 565.037 243.054C564.984 239.244 564.549 235.543 563.366 232.005C559.049 221.578 550.158 214.507 544.149 205.448C542.184 202.238 540.28 198.682 539.56 194.538C538.785 190.71 538.382 186.833 537.989 182.927C537.514 173.25 538.143 163.55 536.595 153.864C535.059 144.108 531.926 135.152 527.606 126.791C523.257 118.599 517.734 110.931 511.428 103.591C507.237 98.5804 502.441 94.9798 497.513 92.1233C486.327 85.7709 473.751 83.1909 464.171 73.8595C458.912 68.7697 454.963 62.4245 450.161 56.7991C447.745 54.0895 445.297 51.5615 442.776 49.3771C429.495 38.529 414.454 31.4244 399.219 29.4992C391.78 28.5862 384.501 28.783 377.331 30.4549C370.533 32.0412 363.252 34.3459 357.007 38.9599C355.748 39.934 354.815 41.147 353.52 42.29C352.292 43.0884 352.006 44.7056 352.887 45.8759C353.769 47.0765 355.162 47.3644 356.391 46.5661C357.94 45.9693 359.1 45.5576 360.655 44.9618C366.942 42.1617 372.823 39.5798 378.832 38.3558C385.211 37.0941 391.768 36.873 398.146 37.6713C411.945 39.452 425.641 45.9933 437.318 55.767C439.859 57.7315 441.658 59.8611 443.785 62.1573C448.543 68.0287 452.82 74.5765 458.393 79.9392C468.251 89.7124 481.474 92.769 493.32 99.5277C497.242 101.887 501.428 104.866 505.022 109.088C510.693 115.949 515.95 123.104 520.028 130.813C523.769 138.275 526.693 146.361 528.045 155.142C529.642 164.552 529.051 174.035 529.562 183.471C529.893 187.759 530.223 192.058 531.275 196.333C532.16 201.594 534.612 206.153 537.158 210.221C542.882 218.8 551.15 225.29 555.209 235.165C556.219 237.626 556.489 240.169 556.407 242.728C556.143 250.354 553.677 258.208 555.239 265.763C559.107 282.848 573.614 295.036 581.483 309.926C584.477 315.522 586.663 321.593 586.153 328.596C585.686 333.334 584.271 337.247 582.555 340.817C577.219 350.521 568.029 357.479 562.55 368.028C558.283 375.818 559.024 383.917 556.934 391.657C556.124 394.226 554.944 396.809 552.71 399.2C548.191 404.27 540.423 407.28 534.936 411.744C531.973 414.157 529.664 416.97 527.985 420.329C525.457 426.439 526.069 433.246 527.398 440.102C528.19 445.854 529.685 451.73 528.744 457.068C528.057 460.964 525.988 464.508 521.465 467.583C516.151 471.032 512.198 468.813 508.42 465.573C503.043 461.187 498.272 455.386 493.16 453.578C488.379 451.908 482.796 452.802 476.401 460.326C472.827 464.184 471.337 468.489 470.909 473.005C469.669 482.096 472.611 492.1 471.353 501.254C470.493 506.135 468.873 511.208 466.193 516.13C462.796 523.095 458.325 529.985 452.584 535.854C444.998 543.959 435.34 549.5 426.023 552.998C423.327 553.937 420.951 555.107 417.947 555.701C417.941 555.736 417.546 555.92 417.502 556.166C417.453 556.447 417.773 556.685 418.131 556.712Z" fill="white"/>
<path fill-rule="evenodd" clip-rule="evenodd" d="M352.514 298.967C352.514 298.579 353.595 299.438 355.32 300.154C355.814 300.366 355.789 300.664 356.039 301.226C356.529 302.452 357.269 303.705 357.759 305.138C359.729 310.037 360.714 316.13 361.209 322.222C361.944 331.511 360.963 340.825 357.51 347.072C355.789 350.235 353.08 352.921 350.125 355.102C348.155 356.535 345.936 357.82 343.966 358.833C341.751 359.852 339.532 360.569 337.562 361.259C336.332 361.763 335.347 361.163 334.853 359.911C334.362 358.658 334.853 357.252 336.083 356.774C337.807 355.67 339.781 354.359 341.751 353.043C343.472 351.849 345.196 350.654 346.925 349.216C349.14 347.428 351.114 345.368 352.344 342.89C354.314 338.856 355.05 333.151 355.05 327.206C355.05 320.073 353.82 312.637 352.344 306.603C352.095 304.989 351.114 303.498 351.355 302.065C352.591 300.379 350.865 302.633 352.585 300.568C352.585 300.361 352.585 300.096 352.835 300C353.08 299.883 353.325 299.942 353.325 300.154C354.314 299.793 352.759 299.179 352.514 298.967Z" fill="white"/>
<path fill-rule="evenodd" clip-rule="evenodd" d="M167.338 627.484C167.258 627.527 167.143 627.579 166.987 627.634C166.29 627.934 165.338 628.859 163.319 629.197C158.491 629.984 150.417 628.361 147.399 628.267C146.117 628.218 145.097 627.142 145.151 625.853C145.149 624.534 146.219 623.514 147.549 623.559C150.564 623.618 158.838 622.894 163.566 624.242C165.541 624.834 166.394 625.84 167.069 626.182C167.188 626.255 167.278 626.324 167.368 626.394L167.522 626.381C167.679 626.331 167.916 626.794 167.599 627.258C167.532 627.383 167.421 627.477 167.338 627.484Z" fill="white"/>
<path fill-rule="evenodd" clip-rule="evenodd" d="M296.973 372.883C296.842 371.384 297.57 371.989 296.79 370.785C296.422 370.411 295.747 370.405 295.397 370.232C288.441 367.514 281.472 364.732 274.26 362.908C265.669 360.769 257.193 359.934 248.568 361.22C238.969 362.836 229.937 367.186 222.039 372.953C210.667 381.205 200.565 392.51 192.038 402.627C183.232 413.383 175.518 425.077 169.195 437.258C159.684 455.302 151.947 474.458 143.867 493.446C136.096 512.275 126.61 530.545 118.493 549.166C116.216 553.868 114.275 558.577 112.346 563.35C106.257 578.264 98.8286 593.23 93.4649 608.719C90.002 619.175 87.2432 629.898 85.5159 640.805C85.5916 641.671 86.0024 642.543 87.0274 642.722C88.0438 642.872 88.6669 642.28 88.9226 641.379C90.5868 633.506 93.2732 625.847 95.9767 618.247C97.3476 614.734 98.7212 611.252 100.101 607.769C105.916 593.619 112.421 579.642 118.271 565.818L150.486 496.193C158.26 477.465 166.011 458.541 175.553 440.769C181.922 429.055 189.339 417.853 197.848 407.535C206.075 397.875 215.548 387.096 226.623 379.205C233.569 374.16 241.3 370.295 249.91 368.837C255.858 367.743 261.938 368.017 268.062 368.861C276.561 370.035 285.169 372.369 293.11 374.804C293.8 374.977 294.175 375.445 294.833 375.322C296.152 375.039 295.462 374.795 296.726 373.878C296.738 374.015 297.058 373.849 297.372 373.553C297.349 373.286 297.32 372.955 296.973 372.883Z" fill="white"/>
<path fill-rule="evenodd" clip-rule="evenodd" d="M87.3892 643.025C86.8418 644.482 86.5742 645.246 86.7028 646.716C86.7671 647.451 86.8252 648.115 87.2183 648.785C89.4822 655.479 92.7383 661.979 96.6503 668.26C103.384 679.902 112.061 690.741 119.991 700.696C138.849 724.148 160.05 743.805 182.753 761.307C196.453 771.874 210.757 781.779 225.678 790.955C232.764 795.142 239.517 799.294 246.899 803.049C250.067 804.653 253.215 806.092 256.375 807.595C257.438 808.279 259.08 807.86 259.65 806.67C260.555 805.48 260.089 803.974 258.68 803.297C256.173 801.533 253.665 799.698 251.161 797.97C245.095 793.962 238.723 790.219 232.669 786.347C212.04 773.299 192.374 759.862 173.896 744.505C156.839 730.105 140.664 714.248 125.634 696.04C119.211 687.96 112.393 679.18 105.884 670.11C100.138 662.042 96.9564 652.508 91.2564 645.04C90.4847 643.865 89.4566 643.65 88.3647 642.707C88.0095 642.469 87.9949 642.303 87.6687 642.397C87.3425 642.492 87.3659 642.758 87.3892 643.025Z" fill="white"/>
<path fill-rule="evenodd" clip-rule="evenodd" d="M280.582 769.319C280.477 768.116 281.161 768.361 280.731 767.192C280.261 765.65 278.508 764.86 277.396 763.685C270.756 756.938 265.417 749.641 260.384 742.085C255.007 734.421 249.622 726.662 243.925 719.092C240.529 714.886 237.151 710.816 233.77 706.776C225.892 697.413 217.379 688.381 209.825 678.83C200.429 667.552 191.977 655.451 183.231 643.817C180.237 640.317 177.572 636.752 174.601 633.512C173.133 632.099 171.686 630.912 170.559 629.565C169.848 629.09 169.167 629.018 168.864 629.379C168.221 629.806 168.282 630.505 168.666 631.009C169.505 632.883 170.679 634.763 171.515 636.607C176.164 643.731 181.129 650.517 185.769 657.475C191.577 666.242 198.031 674.749 204.479 683.054L238.266 723.553C242.801 729.307 246.68 735.287 250.886 741.1C255.115 747.115 259.655 753 264.513 758.494C268.573 762.707 272.627 766.79 277.307 770.31C277.318 770.447 277.667 770.613 277.671 770.649C279.033 770.864 278.655 770.431 279.974 770.077C279.991 770.279 280.323 770.25 280.643 770.019C280.958 769.788 280.932 769.492 280.582 769.319" fill="white"/>
<path fill-rule="evenodd" clip-rule="evenodd" d="M175.969 641.921C177.295 641.204 177.4 641.796 178.367 640.658C179.053 639.626 178.798 638.18 179.16 636.918C181.23 628.875 184.527 621.191 188.138 613.619C191.717 605.892 195.311 598.254 198.631 590.641C204.413 577.267 210.51 564.009 216.646 550.969C220.712 542.695 224.808 534.618 228.897 526.443C230.61 522.967 232.311 519.424 234.023 515.943C235.51 512.83 237.289 509.728 238.771 506.581C241.131 501.822 243.193 497.017 245.548 492.259C245.779 491.896 245.4 491.415 245.068 491.145C244.727 490.883 244.441 490.933 244.221 491.295C240.683 495.974 237.409 500.502 234.191 505.349C229.364 512.617 225.169 520.165 220.997 527.836C210.412 546.977 201.429 566.97 192.473 587.085C187.323 599.115 180.993 611.055 177.141 623.824C175.43 628.953 172.289 634.241 173.507 639.533C174.054 640.963 174.278 640.566 175.348 641.708C175.106 641.976 175.436 642.211 175.728 642.223C175.745 642.318 176.008 642.139 175.969 641.921Z" fill="white"/>
<path fill-rule="evenodd" clip-rule="evenodd" d="M422.57 286.06C420.226 286.09 421.564 284.923 419.554 286.125C418.887 286.595 418.887 287.732 418.548 288.57C413.527 299.649 410.849 311.268 410.522 322.983C410.522 328.207 410.849 333.496 411.528 338.72C412.86 346.317 415.204 353.784 418.221 361.179C418.887 362.691 420.226 363.529 421.904 362.988C423.236 362.488 424.242 360.882 423.575 359.377C421.904 353.314 421.225 347.257 420.226 341.23C419.554 335.168 419.226 329.147 419.226 323.12C419.226 312.303 420.898 301.594 424.575 290.944C424.575 290.141 425.247 289.374 425.247 288.505C424.914 286.292 424.914 288.166 423.236 286.458C423.575 286.226 423.236 285.923 423.236 285.822C422.903 285.721 422.57 285.822 422.57 286.06Z" fill="white"/>
<path fill-rule="evenodd" clip-rule="evenodd" d="M616.34 600.233C616.429 600.271 616.555 600.315 616.726 600.359C617.491 600.612 618.585 601.504 620.754 601.674C625.939 602.06 634.336 599.594 637.523 599.215C638.876 599.044 639.857 597.811 639.679 596.451C639.559 595.054 638.333 594.074 636.929 594.244C633.742 594.586 624.915 594.586 620.033 596.451C617.997 597.261 617.188 598.405 616.505 598.829C616.385 598.917 616.296 599 616.208 599.082H616.043C615.872 599.044 615.664 599.556 616.043 600.018C616.125 600.144 616.252 600.233 616.34 600.233Z" fill="white"/>
<path fill-rule="evenodd" clip-rule="evenodd" d="M464.429 347.142C464.429 345.543 463.714 346.251 464.429 344.904C464.783 344.474 465.498 344.405 465.852 344.19C472.965 340.667 480.085 337.076 487.553 334.477C496.45 331.417 505.347 329.747 514.598 330.31C524.911 331.132 534.876 334.901 543.773 340.275C556.578 347.958 568.32 358.992 578.285 368.913C588.605 379.486 597.856 391.152 605.678 403.464C617.42 421.687 627.385 441.251 637.698 460.607C647.67 479.823 659.406 498.287 669.726 517.25C672.571 522.018 675.062 526.824 677.547 531.699C685.376 546.925 694.627 562.082 701.74 577.985C706.375 588.735 710.289 599.832 713.128 611.22C713.128 612.143 712.774 613.104 711.706 613.389C710.643 613.642 709.929 613.073 709.575 612.143C707.083 603.961 703.53 596.101 699.963 588.305C698.187 584.713 696.41 581.153 694.627 577.593C687.159 563.151 678.977 548.955 671.502 534.86L630.945 464.129C620.98 445.02 611.021 425.702 599.272 407.77C591.444 395.958 582.553 384.785 572.588 374.649C562.983 365.183 551.955 354.648 539.498 347.32C531.677 342.621 523.134 339.245 513.883 338.499C507.484 337.892 501.072 338.745 494.667 340.206C485.776 342.236 476.879 345.505 468.697 348.818C467.983 349.065 467.629 349.596 466.92 349.526C465.498 349.349 466.206 349.027 464.783 348.173C464.783 348.319 464.429 348.173 464.069 347.889C464.069 347.604 464.069 347.25 464.429 347.142Z" fill="white"/>
<path fill-rule="evenodd" clip-rule="evenodd" d="M706.888 613.744C707.603 615.237 707.957 616.021 707.957 617.589C707.957 618.373 707.957 619.081 707.603 619.827C705.826 627.124 702.981 634.307 699.421 641.32C693.369 654.27 685.187 666.55 677.713 677.824C659.919 704.401 639.293 727.177 616.877 747.81C603.352 760.266 589.124 772.078 574.176 783.175C567.063 788.266 560.297 793.286 552.829 797.947C549.623 799.938 546.423 801.753 543.218 803.638C542.155 804.46 540.378 804.169 539.664 802.961C538.595 801.785 538.949 800.147 540.378 799.3C542.87 797.2 545.355 795.025 547.846 792.964C553.898 788.158 560.297 783.605 566.348 778.945C586.981 763.219 606.557 747.171 624.699 729.2C641.424 712.374 657.08 694.087 671.307 673.417C677.359 664.267 683.764 654.339 689.816 644.134C695.152 635.06 697.637 624.671 702.981 616.236C703.689 614.92 704.757 614.598 705.826 613.498C706.18 613.213 706.18 613.036 706.534 613.106C706.888 613.175 706.888 613.46 706.888 613.744Z" fill="white"/>
<path fill-rule="evenodd" clip-rule="evenodd" d="M509.58 760.892C509.58 759.608 508.878 759.931 509.226 758.653C509.58 756.978 511.363 755.979 512.432 754.632C518.837 746.873 523.814 738.653 528.442 730.186C533.425 721.574 538.408 712.86 543.738 704.318C546.944 699.55 550.144 694.928 553.35 690.337C560.824 679.695 569 669.344 576.113 658.531C585.016 645.72 592.845 632.125 601.027 618.998C603.872 615.015 606.364 610.993 609.209 607.288C610.632 605.656 612.055 604.265 613.123 602.735C613.831 602.166 614.546 602.027 614.9 602.381C615.621 602.773 615.621 603.519 615.26 604.088C614.546 606.149 613.477 608.249 612.763 610.278C608.501 618.252 603.872 625.897 599.604 633.693C594.267 643.513 588.222 653.118 582.165 662.508L550.144 708.516C545.875 715.029 542.322 721.719 538.408 728.264C534.487 735.023 530.225 741.675 525.591 747.942C521.683 752.779 517.769 757.477 513.14 761.638C513.14 761.783 512.786 761.992 512.786 762.03C511.363 762.384 511.724 761.891 510.295 761.638C510.295 761.853 509.941 761.853 509.58 761.638C509.226 761.423 509.226 761.107 509.58 760.892" fill="white"/>
<path fill-rule="evenodd" clip-rule="evenodd" d="M613.633 602.106C612.115 601.624 612.115 602.232 610.893 601.269C609.985 600.365 609.985 598.881 609.375 597.69C605.727 590.056 600.862 582.995 595.69 576.099C590.523 569.044 585.357 562.08 580.482 555.093C571.969 542.808 563.149 530.696 554.329 518.806C548.551 511.293 542.779 503.979 536.996 496.568C534.564 493.413 532.132 490.189 529.7 487.027C527.57 484.192 525.138 481.42 523.009 478.551C519.663 474.233 516.621 469.818 513.28 465.499C512.972 465.179 513.28 464.635 513.578 464.308C513.886 463.988 514.194 463.988 514.491 464.308C519.053 468.34 523.311 472.269 527.57 476.524C533.959 482.904 539.736 489.673 545.514 496.568C560.112 513.744 573.191 532.047 586.264 550.477C593.869 561.535 602.689 572.297 609.072 584.317C611.807 589.117 616.066 593.824 615.768 599.299C615.46 600.817 615.152 600.462 614.244 601.785C614.547 602.008 614.244 602.3 613.942 602.363C613.942 602.461 613.633 602.329 613.633 602.106Z" fill="white"/>
<path fill-rule="evenodd" clip-rule="evenodd" d="M388.849 464.563C389.909 463.428 390.785 462.684 391.776 461.432C393.738 458.891 395.322 455.992 397.08 453.257C403.209 443.735 409.396 434.412 415.152 424.751C419.143 418.076 422.926 411.357 426.271 404.552C432.021 392.974 437.235 380.921 439.932 369.099C440.484 366.751 441.176 364.23 441.026 362.23C440.98 361.464 440.743 361.327 440.524 360.78C440.955 358.784 440.142 357.562 438.694 357.976C437.246 358.39 435.682 360.395 435.21 362.367C434.71 363.163 434.363 363.383 433.93 364.205C432.871 366.348 432.268 368.487 431.512 370.64C427.743 381.525 423.674 391.904 418.717 402.358C415.252 409.669 411.66 416.83 407.886 424.14C402.161 435.222 396.227 446.273 390.5 457.443C389.946 458.462 389.307 459.509 388.897 460.599C388.419 461.904 388.325 462.756 387.978 464.06C387.729 464.491 387.743 464.919 387.98 465.056C388.217 465.193 388.6 464.993 388.849 464.563Z" fill="white"/>
<path fill-rule="evenodd" clip-rule="evenodd" d="M380.339 480.554C379.165 479.297 378.195 478.473 377.098 477.087C374.926 474.274 373.172 471.064 371.226 468.036C364.44 457.494 357.59 447.172 351.217 436.476C346.798 429.086 342.61 421.647 338.906 414.112C332.54 401.294 326.768 387.949 323.782 374.86C323.171 372.261 322.404 369.47 322.571 367.256C322.621 366.408 322.884 366.256 323.127 365.65C322.65 363.44 323.55 362.087 325.153 362.545C326.756 363.004 328.487 365.224 329.01 367.407C329.564 368.288 329.948 368.532 330.427 369.441C331.6 371.815 332.267 374.183 333.104 376.567C337.277 388.618 341.782 400.11 347.271 411.684C351.107 419.777 355.083 427.706 359.262 435.799C365.6 448.069 372.17 460.304 378.511 472.67C379.124 473.799 379.832 474.958 380.285 476.165C380.815 477.61 380.918 478.553 381.303 479.997C381.579 480.474 381.564 480.948 381.301 481.1C381.039 481.251 380.614 481.03 380.339 480.554Z" fill="white"/>
<path fill-rule="evenodd" clip-rule="evenodd" d="M520.215 512.704C520.476 511.882 520.791 511.282 520.937 510.434C521.195 508.729 520.97 507.003 520.967 505.286C520.964 499.307 521.108 493.39 520.737 487.477C520.493 483.387 520.06 479.349 519.236 475.421C517.881 468.718 515.857 461.999 511.955 456.214C511.192 455.06 510.454 453.788 509.312 453.011C508.884 452.71 508.626 452.733 508.172 452.58C507.494 451.611 506.224 451.378 505.287 452.032C504.349 452.686 504.134 454.037 504.767 455.009C504.777 455.505 504.614 455.712 504.69 456.196C504.946 457.435 505.56 458.52 506.062 459.661C508.634 465.416 510.71 471.063 512.12 477.036C513.107 481.213 513.918 485.37 514.659 489.65C515.781 496.139 516.721 502.685 517.886 509.212C517.967 509.818 517.995 510.463 518.227 511.05C518.515 511.749 518.876 512.132 519.267 512.787C519.289 513.048 519.519 513.221 519.777 513.198C520.035 513.176 520.237 512.965 520.215 512.704Z" fill="white"/>
<path fill-rule="evenodd" clip-rule="evenodd" d="M517.015 486.881C514.841 487.982 516.475 485.247 515.114 487.84V488.196C514.841 491.778 514.841 495.289 514.841 498.842C514.841 500.399 514.569 501.963 514.569 503.526C514.841 517.607 515.114 531.273 513.752 545.04C512.94 552.88 511.851 560.797 509.678 568.814C507.772 577.548 504.782 585.885 501.791 594.329C499.886 600.114 497.984 605.899 496.351 611.72C494.445 618.067 492.539 624.421 490.91 630.916C490.643 631.947 491.187 633.113 491.999 633.504C492.816 633.895 493.633 633.362 493.901 632.332C497.984 620.163 503.693 608.877 508.316 596.952C511.579 588.792 514.297 580.349 516.475 571.727C520.282 557.208 521.643 543.157 521.911 529.035C522.188 520.165 522.188 511.259 521.371 502.211C521.094 498.416 520.826 494.685 520.282 490.854C520.282 489.753 520.554 488.367 520.01 487.521C518.376 485.176 520.282 487.627 517.836 486.846C517.836 486.561 517.559 486.348 517.559 486.384C517.292 486.384 517.015 486.597 517.015 486.881Z" fill="white"/>
<path fill-rule="evenodd" clip-rule="evenodd" d="M234.379 521.715C234.133 520.917 233.85 520.346 233.701 519.513C233.433 517.835 233.569 516.093 233.519 514.38C233.34 508.414 233.039 502.524 233.171 496.593C233.252 492.491 233.493 488.424 234.067 484.434C235.003 477.629 236.501 470.748 239.609 464.636C240.215 463.418 240.798 462.084 241.735 461.21C242.085 460.872 242.303 460.872 242.681 460.68C243.222 459.655 244.283 459.311 245.092 459.882C245.9 460.453 246.123 461.781 245.619 462.807C245.626 463.302 245.77 463.494 245.72 463.984C245.543 465.242 245.059 466.378 244.672 467.561C242.683 473.527 241.108 479.341 240.103 485.424C239.4 489.677 238.845 493.895 238.351 498.23C237.605 504.802 237.013 511.415 236.232 518.027C236.182 518.639 236.178 519.286 236 519.892C235.78 520.614 235.487 521.028 235.179 521.715C235.167 521.978 234.979 522.17 234.761 522.17C234.544 522.17 234.367 521.978 234.379 521.715Z" fill="white"/>
<path fill-rule="evenodd" clip-rule="evenodd" d="M234.039 495.387C236.815 496.488 234.728 493.753 236.467 496.346V496.702C236.815 500.284 236.815 503.795 236.815 507.348C236.815 508.905 237.163 510.469 237.163 512.032C236.815 526.113 236.467 539.779 238.206 553.546C239.244 561.386 240.635 569.303 243.411 577.32C245.846 586.054 249.666 594.391 253.486 602.835C255.92 608.62 258.349 614.405 260.436 620.226C262.87 626.573 265.305 632.927 267.385 639.422C267.727 640.453 267.032 641.619 265.994 642.01C264.951 642.401 263.908 641.868 263.566 640.838C258.349 628.669 251.057 617.383 245.15 605.458C240.983 597.298 237.511 588.855 234.728 580.233C229.865 565.714 228.126 551.663 227.784 537.541C227.431 528.671 227.431 519.765 228.474 510.717C228.828 506.922 229.17 503.191 229.865 499.36C229.865 498.259 229.517 496.873 230.213 496.027C232.3 493.682 229.865 496.133 232.99 495.352C232.99 495.067 233.343 494.854 233.343 494.89C233.685 494.89 234.039 495.103 234.039 495.387Z" fill="white"/>
<path fill-rule="evenodd" clip-rule="evenodd" d="M401.652 262.341C401.596 262.503 401.556 262.672 401.532 262.85C401.482 263.204 400.881 263.439 400.572 263.641C396.869 266.321 392.302 267.727 387.63 268.113C384.659 268.321 381.61 268.101 378.624 267.534C374.188 266.516 370.009 264.679 366.452 262.433C366.177 262.275 366.015 261.986 366.169 261.691C366.306 261.388 366.689 261.222 366.977 261.388C370.521 262.856 374.651 263.509 378.846 263.812C380.497 263.995 382.184 264.007 383.857 264.008C388.903 263.841 393.748 262.788 398.027 260.248C398.381 260.069 398.675 259.66 399.104 259.716C401.007 259.853 400.103 259.523 399.806 259.735C399.635 259.828 399.612 260.201 400.44 260.871C400.567 260.752 400.695 260.826 400.798 260.886C400.83 261.096 400.874 261.121 400.747 261.24C402.369 264.298 402.225 259.783 401.652 262.341Z" fill="white"/>
<path d="M438.938 190.755C435.53 190.428 432.572 189.933 429.669 189.761C426.778 189.56 423.994 189.583 421.167 189.808C418.337 190.046 415.462 190.461 412.44 190.964C409.407 191.452 406.261 192.094 402.755 192.322L402.74 192.324C402.217 192.354 401.815 191.854 401.848 191.206C401.864 190.914 401.969 190.639 402.129 190.421C404.663 186.937 407.74 184.368 411.069 182.437C414.397 180.531 418.028 179.333 421.665 179.095C428.933 178.547 436.203 181.889 439.952 188.872C440.222 189.382 440.083 190.116 439.639 190.512C439.428 190.698 439.184 190.78 438.961 190.761L438.938 190.755" fill="white"/>
<path d="M323.964 190.181C327.377 189.914 330.344 189.47 333.25 189.349C336.143 189.199 338.927 189.27 341.749 189.546C344.575 189.833 347.442 190.298 350.455 190.854C353.479 191.395 356.613 192.092 360.115 192.381L360.13 192.384C360.652 192.422 361.063 191.929 361.041 191.282C361.031 190.989 360.93 190.712 360.774 190.492C358.301 186.964 355.27 184.341 351.975 182.352C348.681 180.388 345.071 179.126 341.439 178.825C334.181 178.15 326.854 181.365 322.984 188.281C322.705 188.786 322.831 189.522 323.268 189.926C323.475 190.115 323.718 190.202 323.941 190.187L323.964 190.181" fill="white"/>
<path d="M676.944 906.846C647.925 922.008 614.146 922.359 581.906 922.04C558.754 921.785 535.684 920.25 512.742 917.115C477.676 914.021 442.117 908.01 406.98 912.731C371.418 917.348 338.685 932.381 305.454 944.604C275.021 956.019 243.711 965.384 211.312 969.939C192.909 972.598 174.143 971.842 155.702 969.842C151.563 969.34 147.492 968.466 143.505 967.275C141.532 966.597 129.916 963.388 121.418 960.086C113.91 957.154 108.836 954.15 115.07 952.736C118.09 953.814 121.149 954.813 124.207 955.727C164.188 967.713 207.13 966.352 247.079 954.557C304.398 941.687 355.81 909.034 415.05 903.523C449.112 900.73 483.302 906.339 517.18 909.5C544.007 913.148 571.038 914.121 598.083 914.028C624.122 913.623 650.953 911.949 674.129 899.381C694.739 886.641 712.961 865.962 712.051 841.025C710.802 840.382 709.363 839.653 708.148 838.777C706.01 837.2 704.611 835.155 706.38 832.278C707.575 830.231 709.346 829.561 711.249 829.697C712.146 829.753 713.059 830.001 713.968 830.362C714.101 830.418 714.225 830.471 714.366 830.538C716.595 831.506 718.706 833.151 720.022 834.663C726.971 864.354 701.449 892.193 676.944 906.846Z" fill="white"/>
<path d="M659.123 832.608C653.923 835.168 640.142 834.553 634.368 835.147C617.937 836.166 601.494 837.028 585.037 837.747C510.636 840.997 436.014 841.442 361.248 841.694C361.324 841.686 361.42 841.689 361.516 841.681C361.212 841.692 360.893 841.705 360.59 841.704L360.704 841.708C335.156 842.629 309.61 843.583 284.065 844.437C283.974 844.446 283.878 844.442 283.785 844.439L283.935 844.444C283.352 844.467 282.768 844.481 282.185 844.494C281.509 844.504 280.847 844.534 280.171 844.556C202.024 848.493 123.511 847.32 44.9337 846.931C34.9822 847.589 24.3652 846.864 14.6855 848.405C13.4954 848.585 12.3229 848.799 11.1659 849.057C14.2361 856.968 12.3203 865.015 13.7334 872.978C23.8109 873.01 9.86815 881.378 7.73611 872.968C7.67746 871.419 7.21638 869.556 6.55498 867.51L6.55533 867.5C3.78501 859.035 -2.37822 847.633 3.2641 843.818C3.70433 843.612 4.12529 843.405 4.58285 843.222C5.4993 842.811 6.45308 842.448 7.42333 842.106C9.3459 841.399 11.3601 840.805 13.4467 840.293C32.3163 835.636 57.2884 837.711 76.8379 836.183C102.146 836.725 127.429 836.867 152.686 836.71C165.154 836.637 177.588 836.497 190.041 836.29C223.583 835.748 257.084 834.784 290.572 833.666C293.772 833.556 296.954 833.446 300.153 833.359C301.131 833.327 302.111 833.295 303.089 833.263C317.208 832.816 331.339 832.47 345.474 832.078C397.113 830.742 448.958 832.045 500.707 831.884C505.163 831.862 509.639 831.843 514.096 831.799C513.816 831.811 513.551 831.825 513.286 831.838C513.852 831.812 514.435 831.801 515 831.787C527.233 831.418 539.444 830.661 551.715 830.305C551.602 830.301 551.49 830.309 551.376 830.305C568.597 829.812 585.599 828.094 602.833 827.679C620.704 828.004 639.196 825.003 656.738 826.08C657.433 826.126 658.128 826.172 658.82 826.22C662.152 829.397 661.632 831.37 659.123 832.608Z" fill="white"/>
<path d="M188.3 838.894H559.595C572.064 838.894 582.57 830.072 584.035 818.361L613.852 597.174C615.588 583.33 604.153 571.162 589.405 571.162H158.484C143.742 571.162 132.305 583.33 134.04 597.174L163.853 818.361C165.322 830.072 175.823 838.894 188.3 838.894" fill="white"/>
</svg>
